<svg height="511pt" viewBox="0 -17 511.9882 511" width="511pt" xmlns="http://www.w3.org/2000/svg"><g fill="#2c3e50"><path d="m156.203125 477.65625h-69.421875c-4.792969 0-8.679688-3.882812-8.679688-8.675781s3.886719-8.679688 8.679688-8.679688h69.421875c4.792969 0 8.679687 3.886719 8.679687 8.679688s-3.886718 8.675781-8.679687 8.675781zm0 0"/><path d="m52.066406 477.789062h-8.675781c-4.792969 0-8.679687-3.886718-8.679687-8.679687s3.886718-8.679687 8.679687-8.679687h8.675781c4.792969 0 8.679688 3.886718 8.679688 8.679687s-3.886719 8.679687-8.679688 8.679687zm0 0"/><path d="m433.898438 477.65625h-69.425782c-4.789062 0-8.675781-3.882812-8.675781-8.675781s3.886719-8.679688 8.675781-8.679688h69.425782c4.792968 0 8.679687 3.886719 8.679687 8.679688s-3.886719 8.675781-8.679687 8.675781zm0 0"/><path d="m329.761719 477.789062h-8.675781c-4.792969 0-8.679688-3.886718-8.679688-8.679687s3.886719-8.679687 8.679688-8.679687h8.675781c4.792969 0 8.679687 3.886718 8.679687 8.679687s-3.886718 8.679687-8.679687 8.679687zm0 0"/><path d="m156.203125 477.789062c-38.339844 0-69.421875-31.082031-69.421875-69.425781 0-38.339843 31.082031-69.421875 69.421875-69.421875 38.34375 0 69.425781 31.082032 69.425781 69.421875-.042968 38.324219-31.101562 69.382813-69.425781 69.425781zm0 0"/></g><path d="m208.269531 408.363281c0 28.757813-23.308593 52.066407-52.066406 52.066407s-52.066406-23.308594-52.066406-52.066407c0-28.757812 23.308593-52.066406 52.066406-52.066406s52.066406 23.308594 52.066406 52.066406zm0 0" fill="#35495e"/><path d="m433.898438 477.789062c-38.34375 0-69.425782-31.082031-69.425782-69.425781 0-38.339843 31.082032-69.421875 69.425782-69.421875 38.339843 0 69.421874 31.082032 69.421874 69.421875-.042968 38.324219-31.097656 69.382813-69.421874 69.425781zm0 0" fill="#2c3e50"/><path d="m485.964844 408.363281c0 28.757813-23.308594 52.066407-52.066406 52.066407-28.757813 0-52.066407-23.308594-52.066407-52.066407 0-28.757812 23.308594-52.066406 52.066407-52.066406 28.757812 0 52.066406 23.308594 52.066406 52.066406zm0 0" fill="#35495e"/><path d="m173.558594 278.195312-52.066406-78.101562h-69.425782l34.714844 78.101562zm0 0" fill="#95a5a5"/><path d="m451.253906 408.363281c0 9.585938-7.769531 17.355469-17.355468 17.355469-9.585938 0-17.355469-7.769531-17.355469-17.355469 0-9.585937 7.769531-17.355469 17.355469-17.355469 9.585937 0 17.355468 7.769532 17.355468 17.355469zm0 0" fill="#95a5a5"/><path d="m390.507812 364.972656h112.8125c2.476563-.003906 4.828126-1.0625 6.472657-2.910156s2.421875-4.308594 2.136719-6.765625c-5.125-39.171875-38.523438-68.457031-78.03125-68.425781zm0 0" fill="#2980ba"/><path d="m173.558594 408.363281c0 9.585938-7.769532 17.355469-17.355469 17.355469s-17.355469-7.769531-17.355469-17.355469c0-9.585937 7.769532-17.355469 17.355469-17.355469s17.355469 7.769532 17.355469 17.355469zm0 0" fill="#95a5a5"/><path d="m86.78125 312.90625h-8.679688c-4.792968 0-8.679687-3.886719-8.679687-8.679688v-17.355468c0-4.792969 3.886719-8.675782 8.679687-8.675782h199.59375s-26.035156 86.777344 17.355469 86.777344h41.332031c7.761719.035156 14.933594-4.136718 18.746094-10.898437 11.644532-20.800781 29.304688-83.34375.667969-197.371094h34.710937l43.390626 130.167969-53.359376 99.101562c-4.542968 8.453125-13.363281 13.71875-22.953124 13.714844h-126.394532c-17.402344.007812-31.53125-14.058594-31.597656-31.460938v-11.929687zm0 0" fill="#2fa8cc"/><path d="m355.796875 156.703125c-21.417969 0-38.78125-17.363281-38.78125-38.78125-.039063-21.523437 17.257813-39.0625 38.78125-39.320313h34.710937v78.101563zm0 0" fill="#2980ba"/><path d="m390.507812 87.277344c16.773438 0 30.375 13.601562 30.375 30.375 0 16.773437-13.601562 30.371094-30.375 30.371094zm0 0" fill="#f0c419"/><path d="m147.527344 243.480469h130.167968c9.585938 0 17.355469 7.773437 17.355469 17.359375 0 9.582031-7.769531 17.355468-17.355469 17.355468h-147.527343v-17.355468c0-9.585938 7.773437-17.359375 17.359375-17.359375zm0 0" fill="#e4c05c"/><path d="m164.882812 78.601562v17.355469h-138.847656v-17.355469c.027344-9.574218 7.78125-17.328124 17.355469-17.355468h104.136719c9.570312.027344 17.324218 7.78125 17.355468 17.355468zm0 0" fill="#f29c1f"/><path d="m164.882812 95.957031v86.78125c0 9.582031-7.773437 17.355469-17.355468 17.355469h-104.136719c-9.585937 0-17.355469-7.773438-17.355469-17.355469v-86.78125zm0 0" fill="#e57e25"/><path d="m182.238281 208.769531h-173.558593c-4.792969 0-8.679688-3.882812-8.679688-8.675781s3.886719-8.679688 8.679688-8.679688h173.558593c4.792969 0 8.675781 3.886719 8.675781 8.679688s-3.882812 8.675781-8.675781 8.675781zm0 0" fill="#2980ba"/><path d="m286.371094 156.703125c-4.117188 0-7.667969-2.898437-8.496094-6.933594-.828125-4.035156 1.292969-8.097656 5.078125-9.71875l60.746094-26.035156c2.859375-1.273437 6.183593-.910156 8.699219.953125 2.511718 1.863281 3.832031 4.933594 3.445312 8.039062-.382812 3.109376-2.414062 5.765626-5.304688 6.957032l-60.746093 26.035156c-1.082031.464844-2.246094.703125-3.421875.703125zm0 0" fill="#2fa8cc"/><path d="m338.605469 91.402344c-3.414063 0-6.511719-2-7.914063-5.113282l-17.519531-38.832031c-1.972656-4.371093-.023437-9.511719 4.347656-11.480469 4.371094-1.972656 9.507813-.023437 11.480469 4.347657l17.511719 38.832031c1.210937 2.683594.976562 5.800781-.621094 8.273438-1.597656 2.472656-4.339844 3.96875-7.285156 3.972656zm0 0" fill="#bdc3c7"/><path d="m308.066406 43.890625c6.144532 0 12-2.605469 16.117188-7.167969 4.113281-4.5625 6.101562-10.65625 5.464844-16.765625-1.570313-11.335937-11.378907-19.699219-22.820313-19.457031h-11.777344c-4.792969 0-8.679687 3.882812-8.679687 8.675781v26.035157c0 4.792968 3.886718 8.679687 8.679687 8.679687zm0 0" fill="#2fa8cc"/><path d="m225.011719 356.296875c2.496093 0 4.871093-1.070313 6.53125-2.933594 1.65625-1.867187 2.4375-4.351562 2.144531-6.832031-5.039062-39.109375-38.351562-68.386719-77.785156-68.363281-39.4375.023437-72.714844 29.335937-77.714844 68.453125-.28125 2.453125.492188 4.910156 2.132812 6.757812 1.640626 1.847656 3.988282 2.910156 6.460938 2.917969zm0 0" fill="#2980ba"/></svg>