<svg height="512pt" viewBox="0 0 512.03891 512" width="512pt" xmlns="http://www.w3.org/2000/svg"><path d="m390.507812 416.5625h-373.152343c-9.585938 0-17.355469-7.769531-17.355469-17.355469v-121.492187c0-9.585938 7.769531-17.355469 17.355469-17.355469h416.542969c9.585937 0 17.355468 7.769531 17.355468 17.355469v138.847656zm0 0" fill="#2fa8cc"/><path d="m503.320312 503.339844c-2.058593.003906-4.050781-.730469-5.621093-2.0625l-38.480469-32.742188c-3.648438-3.117187-4.082031-8.601562-.964844-12.25 3.113282-3.648437 8.597656-4.082031 12.25-.96875l38.476563 32.734375c2.777343 2.359375 3.785156 6.207031 2.519531 9.625s-4.53125 5.683594-8.179688 5.664063zm0 0" fill="#7f8c8d"/><g fill="#2c3e50"><path d="m78.101562 390.527344h-26.035156c-9.585937 0-17.355468-7.769532-17.355468-17.355469v-69.421875c0-9.585938 7.769531-17.359375 17.355468-17.359375h26.035156c9.585938 0 17.355469 7.773437 17.355469 17.359375v69.421875c0 9.585937-7.769531 17.355469-17.355469 17.355469zm-26.035156-86.777344v69.421875h26.035156v-69.421875zm0 0"/><path d="m225.628906 390.527344h-8.679687c-9.585938 0-17.355469-7.769532-17.355469-17.355469v-69.421875c0-9.585938 7.769531-17.359375 17.355469-17.359375h8.679687c19.167969 0 34.710938 15.542969 34.710938 34.714844v34.710937c0 19.171875-15.542969 34.710938-34.710938 34.710938zm-8.679687-86.777344v69.421875h8.679687c9.582032 0 17.355469-7.769531 17.355469-17.355469v-34.710937c0-9.585938-7.773437-17.355469-17.355469-17.355469zm0 0"/><path d="m329.761719 390.527344h-34.710938c-9.585937 0-17.355469-7.769532-17.355469-17.355469v-69.421875c0-9.585938 7.769532-17.359375 17.355469-17.359375h34.710938c4.792969 0 8.679687 3.886719 8.679687 8.679687 0 4.792969-3.886718 8.679688-8.679687 8.679688h-34.710938v69.421875h34.710938c4.792969 0 8.679687 3.886719 8.679687 8.679687 0 4.792969-3.886718 8.675782-8.679687 8.675782zm0 0"/><path d="m156.203125 347.136719h-34.710937c-4.792969 0-8.679688-3.882813-8.679688-8.675781v-34.710938c0-9.585938 7.773438-17.359375 17.355469-17.359375h26.035156c9.585937 0 17.355469 7.773437 17.355469 17.359375v26.03125c0 9.585938-7.769532 17.355469-17.355469 17.355469zm-26.035156-17.355469h26.035156v-26.03125h-26.035156zm0 0"/><path d="m121.492188 390.527344c-4.792969 0-8.679688-3.882813-8.679688-8.675782v-43.390624c0-4.792969 3.886719-8.679688 8.679688-8.679688 4.792968 0 8.675781 3.886719 8.675781 8.679688v43.390624c0 4.792969-3.882813 8.675782-8.675781 8.675782zm0 0"/><path d="m173.558594 390.527344c-3.046875.003906-5.875-1.59375-7.445313-4.207032l-26.035156-43.390624c-2.363281-4.097657-1.007813-9.335938 3.050781-11.773438 4.054688-2.4375 9.316406-1.175781 11.824219 2.835938l26.035156 43.386718c1.609375 2.679688 1.652344 6.019532.117188 8.738282-1.539063 2.722656-4.421875 4.40625-7.546875 4.410156zm0 0"/><path d="m399.1875 347.136719h-34.714844c-4.789062 0-8.675781-3.882813-8.675781-8.675781v-34.710938c0-9.585938 7.769531-17.359375 17.355469-17.359375h26.035156c9.585938 0 17.355469 7.773437 17.355469 17.359375v26.03125c0 9.585938-7.769531 17.355469-17.355469 17.355469zm-26.035156-17.355469h26.035156v-26.03125h-26.035156zm0 0"/><path d="m364.472656 390.527344c-4.789062 0-8.675781-3.882813-8.675781-8.675782v-43.390624c0-4.792969 3.886719-8.679688 8.675781-8.679688 4.792969 0 8.679688 3.886719 8.679688 8.679688v43.390624c0 4.792969-3.886719 8.675782-8.679688 8.675782zm0 0"/><path d="m416.542969 390.527344c-3.050781.003906-5.875-1.59375-7.445313-4.207032l-26.035156-43.390624c-1.664062-2.660157-1.761719-6.011719-.257812-8.765626 1.503906-2.753906 4.378906-4.480468 7.515624-4.515624 3.136719-.035157 6.050782 1.625 7.617188 4.34375l26.035156 43.386718c1.609375 2.679688 1.652344 6.019532.113282 8.738282-1.535157 2.722656-4.417969 4.40625-7.542969 4.410156zm0 0"/><path d="m329.761719 347.136719h-43.390625c-4.789063 0-8.675782-3.882813-8.675782-8.675781 0-4.792969 3.886719-8.679688 8.675782-8.679688h43.390625c4.792969 0 8.679687 3.886719 8.679687 8.679688 0 4.792968-3.886718 8.675781-8.679687 8.675781zm0 0"/></g><path d="m404.488281 408.160156 80.765625 13.964844c4.574219.820312 8.222656 4.277344 9.289063 8.800781 1.066406 4.523438-.652344 9.246094-4.375 12.027344l-25.316407 18.984375-6.003906 32.109375c-.941406 4.730469-4.699218 8.390625-9.449218 9.210937-4.75.824219-9.515626-1.359374-11.996094-5.496093l-45.003906-72.027344c-2.40625-3.933594-2.277344-8.914063.335937-12.714844 2.617187-3.796875 7.222656-5.703125 11.753906-4.859375zm0 0" fill="#bdc3c7"/><path d="m447.339844 512.019531c-7.125.003907-13.722656-3.753906-17.355469-9.882812l-44.941406-71.898438c-4.167969-6.832031-3.9375-15.472656.578125-22.078125 4.519531-6.605468 12.488281-9.949218 20.367187-8.546875l80.75 13.964844c7.980469 1.40625 14.367188 7.417969 16.25 15.300781 1.886719 7.882813-1.089843 16.132813-7.570312 20.996094l-22.617188 16.96875-5.378906 28.738281c-1.585937 8.300781-8.160156 14.742188-16.488281 16.160157-1.1875.195312-2.390625.289062-3.59375.277343zm-45.011719-95.371093c-1.0625.03125-2.027344.621093-2.539063 1.554687-.511718.929687-.488281 2.0625.058594 2.976563l44.914063 71.921874c.59375 1.15625 1.882812 1.785157 3.160156 1.535157 1.234375-.164063 2.21875-1.121094 2.421875-2.351563l5.96875-31.960937c.402344-2.132813 1.589844-4.035157 3.324219-5.335938l25.324219-18.996093c.949218-.710938 1.390624-1.921876 1.117187-3.078126s-1.207031-2.039062-2.378906-2.25l-80.703125-13.945312h-.070313c-.195312-.039062-.398437-.0625-.597656-.070312zm0 0" fill="#7f8c8d"/><path d="m321.085938 199.613281h52.066406c4.792968 0 8.679687 3.882813 8.679687 8.675781v17.359376c0 19.167968-15.542969 34.710937-34.714843 34.710937h-242.980469c-19.171875 0-34.714844-15.542969-34.714844-34.710937v-17.359376c0-4.792968 3.886719-8.675781 8.679687-8.675781zm0 0" fill="#e57e25"/><path d="m310.480469 199.613281h46.28125c4.511719.292969 7.949219 4.160157 7.710937 8.675781v17.359376c.992188 18.078124-12.785156 33.574218-30.855468 34.710937h-215.980469c-18.070313-1.136719-31.847657-16.632813-30.855469-34.710937v-17.359376c-.238281-4.515624 3.199219-8.382812 7.714844-8.675781zm0 0" fill="#f29c1f"/><path d="m156.203125.0195312h138.847656c47.925781 0 86.78125 38.8515628 86.78125 86.7812498v8.675781c0 4.792969-3.886719 8.679688-8.679687 8.679688h-295.050782c-4.792968 0-8.679687-3.886719-8.679687-8.679688v-8.675781c0-47.929687 38.855469-86.7812498 86.78125-86.7812498zm0 0" fill="#e57e25"/><path d="m173.558594.0195312h104.136718c47.925782 0 86.777344 38.8515628 86.777344 86.7812498v8.675781c0 4.792969-3.882812 8.679688-8.675781 8.679688h-260.339844c-4.792969 0-8.675781-3.886719-8.675781-8.679688v-8.675781c0-47.929687 38.851562-86.7812498 86.777344-86.7812498zm0 0" fill="#f29c1f"/><path d="m321.085938 199.613281h47.726562c16.742188-.082031 30.292969-13.632812 30.375-30.375 0-16.773437-13.597656-30.371093-30.375-30.371093h-47.726562zm0 0" fill="#802f34"/><path d="m321.085938 182.257812v-26.035156h65.082031c7.191406 0 13.019531 5.828125 13.019531 13.015625.019531 3.410157-1.335938 6.6875-3.765625 9.078125-2.417969 2.523438-5.761719 3.945313-9.253906 3.941406zm0 0" fill="#cc4b4c"/><path d="m251.660156 199.613281h-169.21875c-16.773437 0-30.375-13.597656-30.375-30.375.082032-16.738281 13.632813-30.289062 30.375-30.371093h169.21875zm0 0" fill="#802f34"/><path d="m65.085938 182.257812c-7.191407 0-13.019532-5.828124-13.019532-13.019531-.019531-3.410156 1.339844-6.683593 3.769532-9.074219 2.414062-2.523437 5.757812-3.945312 9.25-3.941406h186.574218v26.035156zm0 0" fill="#cc4b4c"/><path d="m364.472656 104.15625v34.710938h-43.386718v78.101562c0 9.585938-7.773438 17.355469-17.355469 17.355469-9.585938 0-17.359375-7.769531-17.359375-17.355469v-17.355469c0 9.585938-7.769532 17.355469-17.355469 17.355469s-17.355469-7.769531-17.355469-17.355469v-60.746093h-173.558594v-34.710938zm0 0" fill="#f0c419"/><path d="m364.472656 121.511719v17.355469h-43.386718v78.101562c0 9.585938-7.773438 17.355469-17.355469 17.355469-9.585938 0-17.359375-7.769531-17.359375-17.355469v-17.355469c0 9.585938-7.769532 17.355469-17.355469 17.355469s-17.355469-7.769531-17.355469-17.355469v-60.746093h-173.558594v-17.355469zm0 0" fill="#f3d55b"/><path d="m138.847656 52.085938c-3.507812 0-6.671875-2.113282-8.015625-5.355469-1.34375-3.242188-.601562-6.976563 1.878907-9.457031l8.679687-8.675782c2.179687-2.257812 5.40625-3.164062 8.4375-2.367187 3.035156.792969 5.40625 3.164062 6.199219 6.195312.792968 3.035157-.109375 6.261719-2.367188 8.441407l-8.675781 8.675781c-1.628906 1.628906-3.835937 2.542969-6.136719 2.542969zm0 0" fill="#f3d55b"/><path d="m190.914062 52.085938c-3.507812 0-6.671874-2.113282-8.015624-5.355469-1.339844-3.242188-.597657-6.976563 1.882812-9.457031l8.675781-8.675782c2.179688-2.257812 5.40625-3.164062 8.441407-2.367187 3.03125.792969 5.402343 3.164062 6.195312 6.195312.796875 3.035157-.109375 6.261719-2.363281 8.441407l-8.679688 8.675781c-1.628906 1.628906-3.835937 2.542969-6.136719 2.542969zm0 0" fill="#f3d55b"/><path d="m251.660156 52.085938c-3.507812 0-6.671875-2.113282-8.015625-5.355469-1.34375-3.242188-.601562-6.976563 1.882813-9.457031l8.675781-8.675782c2.179687-2.257812 5.40625-3.164062 8.441406-2.367187 3.03125.792969 5.402344 3.164062 6.195313 6.195312.796875 3.035157-.109375 6.261719-2.367188 8.441407l-8.675781 8.675781c-1.628906 1.628906-3.835937 2.542969-6.136719 2.542969zm0 0" fill="#f3d55b"/><path d="m303.730469 52.085938c-3.511719 0-6.675781-2.113282-8.015625-5.355469-1.34375-3.242188-.601563-6.976563 1.878906-9.457031l8.675781-8.675782c2.179688-2.257812 5.40625-3.164062 8.441407-2.367187 3.035156.792969 5.402343 3.164062 6.199218 6.195312.792969 3.035157-.113281 6.261719-2.367187 8.441407l-8.679688 8.675781c-1.625 1.628906-3.832031 2.542969-6.132812 2.542969zm0 0" fill="#f3d55b"/></svg>