<svg height="512pt" viewBox="0 -4 512 511" width="512pt" xmlns="http://www.w3.org/2000/svg"><path d="m435.199219 495.433594h-358.398438c-42.394531-.050782-76.7499998-34.40625-76.800781-76.800782v-366.933593c.0273438-28.265625 22.933594-51.171875 51.199219-51.199219h409.601562c28.265625.027344 51.171875 22.933594 51.199219 51.199219v366.933593c-.046875 42.398438-34.402344 76.753907-76.800781 76.800782zm-384-477.867188c-18.851563 0-34.132813 15.28125-34.132813 34.132813v366.933593c.039063 32.976563 26.757813 59.695313 59.734375 59.734376h358.398438c32.976562-.039063 59.695312-26.757813 59.734375-59.734376v-366.933593c0-18.851563-15.28125-34.132813-34.132813-34.132813zm0 0" fill="#2c3e50"/><path d="m469.332031 77.300781v341.332031c-.027343 9.414063-7.652343 17.039063-17.066406 17.066407h-392.53125c-9.414063-.027344-17.039063-7.652344-17.066406-17.066407v-341.332031zm0 0" fill="#c03a2b"/><path d="m102.398438 469.832031h307.203124c4.710938 0 8.53125 3.820313 8.53125 8.535157v17.066406c0 4.710937-3.820312 8.53125-8.53125 8.53125h-307.203124c-4.710938 0-8.53125-3.820313-8.53125-8.53125v-17.066406c0-4.714844 3.820312-8.535157 8.53125-8.535157zm0 0" fill="#e64c3c"/><path d="m401.066406 256.5c0 80.117188-64.949218 145.066406-145.066406 145.066406s-145.066406-64.949218-145.066406-145.066406 64.949218-145.066406 145.066406-145.066406 145.066406 64.949218 145.066406 145.066406zm0 0" fill="#f29c1f"/><path d="m256 384.5c-3.414062 0-6.679688-.101562-9.976562-.410156-27.058594-2.03125-52.75-12.683594-73.308594-30.394532-4.894532-4.308593-9.511719-8.917968-13.824219-13.808593-17.796875-20.617188-28.464844-46.429688-30.414063-73.597657-.351562-3.25-.511718-6.519531-.476562-9.789062-.03125-3.421875.144531-6.839844.519531-10.238281 1.992188-26.96875 12.613281-52.582031 30.285157-73.046875 4.308593-4.894532 8.917968-9.511719 13.808593-13.824219 20.59375-17.835937 46.421875-28.507813 73.597657-30.414063 3.25-.351562 6.519531-.511718 9.789062-.476562 3.421875-.03125 6.839844.144531 10.238281.519531 26.96875 1.992188 52.582031 12.613281 73.046875 30.285157 4.894532 4.308593 9.511719 8.917968 13.824219 13.808593 17.78125 20.621094 28.472656 46.410157 30.5 73.566407.289063 3.140624.390625 6.425781.390625 9.820312s-.101562 6.679688-.410156 9.976562c-2.03125 27.058594-12.683594 52.75-30.394532 73.308594-4.308593 4.894532-8.917968 9.511719-13.808593 13.824219-20.601563 17.820313-46.40625 28.515625-73.574219 30.5-3.132812.289063-6.398438.390625-9.8125.390625zm0 0" fill="#d25627"/><path d="m366.933594 256.5c0 2.902344-.085938 5.71875-.339844 8.535156-1.804688 23.480469-11.039062 45.777344-26.371094 63.65625-3.75 4.261719-7.769531 8.28125-12.03125 12.03125-17.847656 15.378906-40.164062 24.625-63.65625 26.371094-2.816406.253906-5.632812.339844-8.535156.339844s-5.71875-.085938-8.535156-.339844c-23.480469-1.804688-45.777344-11.039062-63.65625-26.371094-4.261719-3.75-8.28125-7.769531-12.03125-12.03125-15.339844-17.863281-24.550782-40.175781-26.285156-63.65625-.566407-5.675781-.566407-11.394531 0-17.070312 1.734374-23.480469 10.945312-45.792969 26.285156-63.65625 3.75-4.261719 7.769531-8.28125 12.03125-12.03125 17.835937-15.390625 40.160156-24.605469 63.65625-26.285156 5.675781-.566407 11.394531-.566407 17.070312 0 23.480469 1.734374 45.792969 10.945312 63.65625 26.285156 4.261719 3.75 8.28125 7.769531 12.03125 12.03125 15.332032 17.878906 24.566406 40.175781 26.371094 63.65625.253906 2.816406.339844 5.632812.339844 8.535156zm0 0" fill="#f0c419"/><g fill="#c03a2b"><path d="m264.535156 103.488281v306.140625c-5.671875.628906-11.398437.628906-17.070312 0v-306.140625c5.664062-.785156 11.40625-.785156 17.070312 0zm0 0"/><path d="m409.601562 256.5c.019532 2.851562-.136718 5.703125-.472656 8.535156h-306.140625c-.785156-5.664062-.785156-11.40625 0-17.070312h306.140625c.335938 2.832031.492188 5.683594.472656 8.535156zm0 0"/><path d="m153.839844 142.273438 216.507812 216.472656c-1.769531 2.238281-3.671875 4.363281-5.703125 6.367187-2 2.027344-4.125 3.933594-6.363281 5.699219l-216.507812-216.472656c1.6875-2.304688 3.566406-4.460938 5.613281-6.453125 1.992187-2.042969 4.152343-3.921875 6.453125-5.613281zm0 0"/><path d="m364.613281 147.886719c2.027344 2.003906 3.929688 4.128906 5.699219 6.367187l-216.472656 216.472656c-4.5625-3.445312-8.621094-7.503906-12.066406-12.066406l216.472656-216.507812c2.238281 1.78125 4.363281 3.695312 6.367187 5.734375zm0 0"/><path d="m230.398438 188.234375c-2.257813-.035156-4.421876-.917969-6.058594-2.476563-.339844-.425781-.679688-.851562-1.023438-1.363281-.335937-.4375-.597656-.925781-.765625-1.453125-.246093-.480468-.421875-1-.511719-1.535156-.097656-.5625-.152343-1.132812-.171874-1.707031.011718-1.113281.246093-2.214844.683593-3.242188.410157-1.042969 1.019531-2 1.789063-2.816406 3.421875-3.15625 8.695312-3.15625 12.117187 0 .773438.816406 1.382813 1.773437 1.792969 2.816406.4375 1.027344.667969 2.128907.683594 3.242188-.019532.574219-.074219 1.144531-.171875 1.707031-.09375.535156-.265625 1.054688-.511719 1.535156-.167969.527344-.429688 1.015625-.765625 1.453125-.34375.511719-.683594.9375-1.027344 1.363281-1.632812 1.558594-3.796875 2.441407-6.058593 2.476563zm0 0"/><path d="m187.734375 239.433594c-2.261719-.035156-4.421875-.917969-6.058594-2.476563-.34375-.425781-.683593-.851562-1.023437-1.363281-.339844-.4375-.601563-.925781-.769532-1.449219-.246093-.484375-.417968-1.003906-.511718-1.539062-.09375-.5625-.152344-1.132813-.171875-1.707031.015625-1.113282.246093-2.214844.683593-3.242188.414063-1.042969 1.019532-2 1.792969-2.816406 3.421875-3.15625 8.695313-3.15625 12.117188 0 .769531.816406 1.378906 1.773437 1.792969 2.816406.433593 1.027344.667968 2.128906.679687 3.242188-.019531.574218-.074219 1.144531-.167969 1.707031-.09375.535156-.265625 1.054687-.511718 1.539062-.171876.523438-.429688 1.011719-.769532 1.449219-.339844.511719-.683594.9375-1.023437 1.363281-1.636719 1.558594-3.800781 2.441407-6.058594 2.476563zm0 0"/><path d="m187.734375 290.632812c-2.261719-.03125-4.421875-.917968-6.058594-2.472656-.34375-.429687-.683593-.855468-1.023437-1.367187-.339844-.433594-.601563-.925781-.769532-1.449219-.246093-.484375-.417968-1.003906-.511718-1.535156-.09375-.566406-.152344-1.136719-.171875-1.707032.015625-1.117187.246093-2.21875.683593-3.246093.414063-1.042969 1.019532-2 1.792969-2.8125 3.421875-3.160157 8.695313-3.160157 12.117188 0 .769531.8125 1.378906 1.769531 1.792969 2.8125.433593 1.027343.667968 2.128906.679687 3.246093-.019531.570313-.074219 1.140626-.167969 1.707032-.09375.53125-.265625 1.050781-.511718 1.535156-.171876.523438-.429688 1.015625-.769532 1.449219-.339844.511719-.683594.9375-1.023437 1.367187-1.636719 1.554688-3.800781 2.441406-6.058594 2.472656zm0 0"/><path d="m230.398438 341.832031c-2.257813-.03125-4.421876-.914062-6.058594-2.472656-.339844-.425781-.679688-.855469-1.023438-1.367187-.335937-.433594-.597656-.925782-.765625-1.449219-.246093-.484375-.421875-1-.511719-1.535157-.097656-.566406-.152343-1.136718-.171874-1.707031.011718-1.117187.246093-2.21875.683593-3.242187.410157-1.046875 1.019531-2 1.789063-2.816406 3.421875-3.160157 8.695312-3.160157 12.117187 0 .773438.816406 1.382813 1.769531 1.792969 2.816406.4375 1.023437.667969 2.125.683594 3.242187-.019532.570313-.074219 1.140625-.171875 1.707031-.09375.535157-.265625 1.050782-.511719 1.535157-.167969.523437-.429688 1.015625-.765625 1.449219-.34375.511718-.683594.941406-1.027344 1.367187-1.632812 1.558594-3.796875 2.441406-6.058593 2.472656zm0 0"/><path d="m281.601562 341.730469c-2.261718-.035157-4.421874-.917969-6.058593-2.472657-.34375-.4375-.683594-.855468-1.027344-1.375-.339844-.433593-.597656-.925781-.765625-1.449218-.246094-.484375-.417969-1.003906-.511719-1.539063-.097656-.5625-.152343-1.132812-.171875-1.707031.011719-1.117188.246094-2.222656.683594-3.25.410156-1.042969 1.019531-1.996094 1.792969-2.808594 3.417969-3.164062 8.695312-3.164062 12.117187 0 .773438.8125 1.378906 1.765625 1.789063 2.808594.441406 1.027344.671875 2.132812.683593 3.25-.019531.574219-.074218 1.144531-.171874 1.707031-.089844.535157-.265626 1.054688-.511719 1.539063-.167969.523437-.425781 1.015625-.765625 1.449218-.34375.511719-.683594.9375-1.023438 1.375-1.640625 1.554688-3.800781 2.4375-6.058594 2.472657zm0 0"/><path d="m324.265625 290.632812c-2.257813-.03125-4.421875-.917968-6.058594-2.472656-.339843-.429687-.683593-.855468-1.023437-1.367187-.339844-.433594-.597656-.925781-.769532-1.449219-.246093-.484375-.417968-1.003906-.511718-1.535156-.09375-.566406-.148438-1.136719-.167969-1.707032.011719-1.117187.246094-2.21875.679687-3.246093.414063-1.042969 1.023438-2 1.792969-2.8125 3.421875-3.160157 8.695313-3.160157 12.117188 0 .773437.8125 1.378906 1.769531 1.792969 2.8125.4375 1.027343.667968 2.128906.683593 3.246093-.019531.570313-.078125 1.140626-.171875 1.707032-.09375.53125-.265625 1.050781-.511718 1.535156-.167969.523438-.429688 1.015625-.769532 1.449219-.339844.511719-.679687.9375-1.023437 1.367187-1.636719 1.554688-3.796875 2.441406-6.058594 2.472656zm0 0"/><path d="m324.265625 239.332031c-2.257813-.039062-4.417969-.921875-6.058594-2.476562-.339843-.433594-.683593-.851563-1.023437-1.375-.339844-.433594-.601563-.921875-.769532-1.449219-.246093-.484375-.417968-1-.511718-1.535156-.09375-.566406-.152344-1.136719-.167969-1.707032.011719-1.117187.242187-2.222656.679687-3.25.414063-1.042968 1.019532-1.996093 1.792969-2.808593 3.417969-3.164063 8.699219-3.164063 12.117188 0 .773437.8125 1.382812 1.765625 1.792969 2.808593.4375 1.027344.671874 2.132813.683593 3.25-.019531.570313-.078125 1.140626-.171875 1.707032-.09375.535156-.265625 1.050781-.511718 1.535156-.167969.527344-.429688 1.015625-.769532 1.449219-.339844.515625-.679687.941406-1.023437 1.375-1.636719 1.554687-3.800781 2.4375-6.058594 2.476562zm0 0"/><path d="m281.601562 188.234375c-2.261718-.035156-4.425781-.917969-6.058593-2.476563-.34375-.425781-.683594-.851562-1.027344-1.363281-.335937-.4375-.597656-.925781-.765625-1.453125-.246094-.480468-.417969-1-.511719-1.535156-.097656-.5625-.152343-1.132812-.171875-1.707031.015625-1.113281.246094-2.214844.683594-3.242188.410156-1.042969 1.019531-2 1.792969-2.816406 3.421875-3.15625 8.695312-3.15625 12.117187 0 .769532.816406 1.378906 1.773437 1.789063 2.816406.4375 1.027344.671875 2.128907.683593 3.242188-.019531.574219-.074218 1.144531-.171874 1.707031-.089844.535156-.265626 1.054688-.511719 1.535156-.167969.527344-.429688 1.015625-.765625 1.453125-.34375.511719-.683594.9375-1.023438 1.363281-1.636718 1.558594-3.800781 2.441407-6.058594 2.476563zm0 0"/></g><path d="m81.066406 111.433594h36.632813c1.726562 0 3.285156 1.039062 3.941406 2.636718.660156 1.59375.292969 3.429688-.929687 4.652344l-36.625 36.625c-1.21875 1.21875-3.054688 1.585938-4.648438.929688-1.597656-.660156-2.636719-2.21875-2.636719-3.945313v-36.632812c0-2.355469 1.910157-4.265625 4.265625-4.265625zm0 0" fill="#ecf0f1"/><path d="m430.933594 111.433594h-36.632813c-1.726562 0-3.285156 1.039062-3.941406 2.636718-.660156 1.59375-.292969 3.429688.929687 4.652344l36.625 36.625c1.21875 1.21875 3.054688 1.585938 4.648438.929688 1.597656-.660156 2.636719-2.21875 2.636719-3.945313v-36.632812c0-2.355469-1.910157-4.265625-4.265625-4.265625zm0 0" fill="#ecf0f1"/><path d="m81.066406 401.566406h36.632813c1.726562 0 3.285156-1.039062 3.941406-2.636718.660156-1.59375.292969-3.429688-.929687-4.652344l-36.625-36.625c-1.21875-1.21875-3.054688-1.585938-4.648438-.929688-1.597656.660156-2.636719 2.21875-2.636719 3.945313v36.632812c0 2.355469 1.910157 4.265625 4.265625 4.265625zm0 0" fill="#ecf0f1"/><path d="m430.933594 401.566406h-36.632813c-1.726562 0-3.285156-1.039062-3.941406-2.636718-.660156-1.59375-.292969-3.429688.929687-4.652344l36.625-36.625c1.21875-1.21875 3.054688-1.585938 4.648438-.929688 1.597656.660156 2.636719 2.21875 2.636719 3.945313v36.632812c0 2.355469-1.910157 4.265625-4.265625 4.265625zm0 0" fill="#ecf0f1"/><path d="m469.332031 19.699219v57.601562h-426.664062v-57.601562c-.523438-9.988281 7.082031-18.546875 17.066406-19.199219h392.53125c9.984375.652344 17.589844 9.210938 17.066406 19.199219zm0 0" fill="#e64c3c"/><path d="m230.398438 43.167969h51.203124c9.425782 0 17.066407 7.640625 17.066407 17.066406v17.066406h-85.335938v-17.066406c0-9.425781 7.640625-17.066406 17.066407-17.066406zm0 0" fill="#802d40"/></svg>