<svg height="512pt" viewBox="-115 0 512 512.0001" width="512pt" xmlns="http://www.w3.org/2000/svg"><path d="m282.484375 17.65625v423.722656h-282.484375v-422.574218c-.0117188-4.992188 1.964844-9.78125 5.496094-13.308594 3.527344-3.53125 8.316406-5.5078128 13.308594-5.496094h246.023437c9.738281.0273438 17.625 7.917969 17.65625 17.65625zm0 0" fill="#35495e"/><path d="m282.484375 212.65625v228.722656h-282.484375v-153.597656c58.527344-54.644531 149.449219-100.726562 282.484375-75.125zm0 0" fill="#2c3e50"/><path d="m44.136719 335.449219h123.585937c4.875 0 8.828125 3.953125 8.828125 8.828125v52.964844c0 4.875-3.953125 8.828124-8.828125 8.828124h-123.585937c-4.875 0-8.828125-3.953124-8.828125-8.828124v-52.964844c0-4.875 3.953125-8.828125 8.828125-8.828125zm0 0" fill="#2fa8cc"/><path d="m238.34375 282.484375h-164.066406c-2.34375 0-4.589844.929687-6.242188 2.585937l-17.65625 17.652344c-2.523437 2.527344-6.320312 3.28125-9.617187 1.914063-3.300781-1.367188-5.449219-4.582031-5.453125-8.152344v-208.207031c0-4.875 3.953125-8.828125 8.828125-8.828125h194.207031c4.875 0 8.828125 3.953125 8.828125 8.828125v185.378906c0 4.875-3.953125 8.828125-8.828125 8.828125zm0 0" fill="#955ba5"/><path d="m188.910156 178.492188c-2.152344 1.492187-3.460937 3.917968-3.53125 6.535156v53.316406c0 4.875-3.953125 8.828125-8.828125 8.828125h-79.269531c-2.359375.023437-4.625-.894531-6.300781-2.554687-1.675781-1.65625-2.617188-3.914063-2.617188-6.273438v-17.390625l-.085937-17.652344v-17.214843c.105468-2.976563-1.203125-5.824219-3.53125-7.679688-11.492188-8.558594-16.671875-23.214844-13.109375-37.097656 3.5625-13.878906 15.15625-24.230469 29.351562-26.195313 10.953125-1.578125 22 2.160157 29.75 10.0625 1.664063 1.617188 3.910157 2.5 6.234375 2.449219 2.320313-.050781 4.527344-1.027344 6.121094-2.714844 7.863281-7.816406 18.964844-11.453125 29.925781-9.796875 14.085938 2.1875 25.492188 12.59375 28.957031 26.421875 3.46875 13.824219-1.679687 28.382813-13.066406 36.957032zm0 0" fill="#ecf0f1"/><path d="m185.378906 203.300781v17.652344h-26.746094c-4.875 0-8.828124-3.949219-8.828124-8.828125 0-4.875 3.953124-8.824219 8.828124-8.824219zm0 0" fill="#bdc3c7"/><path d="m123.585938 212.125c0 4.878906-3.953126 8.828125-8.828126 8.828125h-26.394531l-.085937-17.652344h26.480468c4.875 0 8.828126 3.949219 8.828126 8.824219zm0 0" fill="#bdc3c7"/><g fill="#ecf0f1"><path d="m79.449219 370.757812c0 4.875-3.953125 8.828126-8.828125 8.828126s-8.828125-3.953126-8.828125-8.828126 3.953125-8.828124 8.828125-8.828124 8.828125 3.953124 8.828125 8.828124zm0 0"/><path d="m114.757812 370.757812c0 4.875-3.953124 8.828126-8.828124 8.828126s-8.824219-3.953126-8.824219-8.828126 3.949219-8.828124 8.824219-8.828124 8.828124 3.953124 8.828124 8.828124zm0 0"/><path d="m150.070312 370.757812c0 4.875-3.953124 8.828126-8.828124 8.828126s-8.828126-3.953126-8.828126-8.828126 3.953126-8.828124 8.828126-8.828124 8.828124 3.953124 8.828124 8.828124zm0 0"/></g><path d="m282.484375 441.378906v51.820313c.011719 4.988281-1.96875 9.777343-5.496094 13.304687-3.527343 3.53125-8.316406 5.507813-13.308593 5.496094h-244.875c-4.992188.011719-9.78125-1.964844-13.308594-5.496094-3.53125-3.527344-5.5078128-8.316406-5.496094-13.304687v-51.820313zm0 0" fill="#95a5a5"/><path d="m185.378906 485.515625h-88.273437c-4.878907 0-8.828125-3.949219-8.828125-8.824219 0-4.878906 3.949218-8.828125 8.828125-8.828125h88.273437c4.875 0 8.828125 3.949219 8.828125 8.828125 0 4.875-3.953125 8.824219-8.828125 8.824219zm0 0" fill="#7f8c8d"/><path d="m61.792969 0h158.898437v17.65625c0 9.75-7.90625 17.652344-17.65625 17.652344h-123.585937c-9.75 0-17.65625-7.902344-17.65625-17.652344zm0 0" fill="#95a5a5"/><path d="m264.828125 8.828125c4.875 0 8.828125 3.953125 8.828125 8.828125v476.6875c0 4.875-3.953125 8.828125-8.828125 8.828125h-247.171875c-4.875 0-8.828125-3.953125-8.828125-8.828125v-476.6875c0-4.875 3.953125-8.828125 8.828125-8.828125zm0-8.828125h-247.171875c-9.75 0-17.65625 7.90625-17.65625 17.65625v476.6875c0 9.75 7.90625 17.65625 17.65625 17.65625h247.171875c9.75 0 17.65625-7.90625 17.65625-17.65625v-476.6875c0-9.75-7.90625-17.65625-17.65625-17.65625zm0 0" fill="#95a5a5"/></svg>