<svg height="512pt" viewBox="-115 0 512 512.0001" width="512pt" xmlns="http://www.w3.org/2000/svg"><path d="m282.484375 17.65625v423.722656h-282.484375v-422.574218c-.0117188-4.992188 1.964844-9.78125 5.496094-13.308594 3.527344-3.53125 8.316406-5.5078128 13.308594-5.496094h246.023437c9.738281.0273438 17.625 7.917969 17.65625 17.65625zm0 0" fill="#35495e"/><path d="m282.484375 212.65625v228.722656h-282.484375v-153.597656c58.527344-54.644531 149.449219-100.726562 282.484375-75.125zm0 0" fill="#2c3e50"/><path d="m44.136719 335.449219h123.585937c4.875 0 8.828125 3.953125 8.828125 8.828125v52.964844c0 4.875-3.953125 8.828124-8.828125 8.828124h-123.585937c-4.875 0-8.828125-3.953124-8.828125-8.828124v-52.964844c0-4.875 3.953125-8.828125 8.828125-8.828125zm0 0" fill="#2fa8cc"/><path d="m282.484375 441.378906v51.820313c.011719 4.988281-1.96875 9.777343-5.496094 13.304687-3.527343 3.53125-8.316406 5.507813-13.308593 5.496094h-244.875c-4.992188.011719-9.78125-1.964844-13.308594-5.496094-3.53125-3.527344-5.5078128-8.316406-5.496094-13.304687v-51.820313zm0 0" fill="#95a5a5"/><path d="m185.378906 485.515625h-88.273437c-4.878907 0-8.828125-3.949219-8.828125-8.824219 0-4.878906 3.949218-8.828125 8.828125-8.828125h88.273437c4.875 0 8.828125 3.949219 8.828125 8.828125 0 4.875-3.953125 8.824219-8.828125 8.824219zm0 0" fill="#7f8c8d"/><path d="m61.792969 0h158.898437v17.65625c0 9.75-7.90625 17.652344-17.65625 17.652344h-123.585937c-9.75 0-17.65625-7.902344-17.65625-17.652344zm0 0" fill="#95a5a5"/><path d="m238.34375 282.484375h-164.066406c-2.34375 0-4.589844.929687-6.242188 2.585937l-17.65625 17.652344c-2.523437 2.527344-6.320312 3.28125-9.617187 1.914063-3.300781-1.367188-5.449219-4.582031-5.453125-8.152344v-217.035156c0-4.875 3.953125-8.828125 8.828125-8.828125h194.207031c4.875 0 8.828125 3.953125 8.828125 8.828125v194.207031c0 4.875-3.953125 8.828125-8.828125 8.828125zm0 0" fill="#e57e25"/><g fill="#ecf0f1"><path d="m141.242188 256c-43.859376-.046875-79.398438-35.589844-79.449219-79.449219-.007813-3.304687.1875-6.609375.582031-9.894531 4.921875-39.546875 38.382812-69.324219 78.230469-69.632812 39.847656-.304688 73.761719 28.957031 79.289062 68.421874.515625 3.679688.78125 7.390626.796875 11.105469-.050781 43.859375-35.59375 79.402344-79.449218 79.449219zm0-141.242188c-31.144532-.011718-57.433594 23.152344-61.335938 54.050782-.308594 2.570312-.460938 5.15625-.457031 7.742187 0 34.128907 27.664062 61.792969 61.792969 61.792969 34.125 0 61.792968-27.664062 61.792968-61.792969-.011718-2.910156-.222656-5.8125-.628906-8.695312-4.378906-30.425781-30.421875-53.035157-61.164062-53.097657zm0 97.105469c-2.339844 0-4.585938-.933593-6.242188-2.585937l-35.308594-35.3125c-2.523437-2.523438-3.28125-6.320313-1.914062-9.617188 1.367187-3.300781 4.582031-5.449218 8.152344-5.449218h70.621093c3.570313 0 6.789063 2.148437 8.15625 5.449218 1.363281 3.296875.609375 7.09375-1.914062 9.617188l-35.308594 35.3125c-1.65625 1.652344-3.902344 2.585937-6.242187 2.585937zm-14-35.3125 14 14 14-14zm0 0"/><path d="m141.242188 211.863281c-2.339844 0-4.585938-.933593-6.242188-2.585937l-35.308594-35.3125c-2.523437-2.523438-3.28125-6.320313-1.914062-9.617188 1.367187-3.300781 4.582031-5.449218 8.152344-5.449218h70.621093c3.570313 0 6.789063 2.148437 8.15625 5.449218 1.363281 3.296875.609375 7.09375-1.914062 9.617188l-35.308594 35.3125c-1.65625 1.652344-3.902344 2.585937-6.242187 2.585937zm0 0"/><path d="m176.550781 158.898438h26.484375v17.652343h-26.484375zm0 0"/><path d="m105.929688 176.550781h-34.777344l-.53125-17.652343h35.308594zm0 0"/><path d="m132.414062 203.035156h17.65625v44.136719h-17.65625zm0 0"/><path d="m79.449219 370.757812c0 4.875-3.953125 8.828126-8.828125 8.828126s-8.828125-3.953126-8.828125-8.828126 3.953125-8.828124 8.828125-8.828124 8.828125 3.953124 8.828125 8.828124zm0 0"/><path d="m114.757812 370.757812c0 4.875-3.953124 8.828126-8.828124 8.828126s-8.824219-3.953126-8.824219-8.828126 3.949219-8.828124 8.824219-8.828124 8.828124 3.953124 8.828124 8.828124zm0 0"/><path d="m150.070312 370.757812c0 4.875-3.953124 8.828126-8.828124 8.828126s-8.828126-3.953126-8.828126-8.828126 3.953126-8.828124 8.828126-8.828124 8.828124 3.953124 8.828124 8.828124zm0 0"/></g><path d="m264.828125 8.828125c4.875 0 8.828125 3.953125 8.828125 8.828125v476.6875c0 4.875-3.953125 8.828125-8.828125 8.828125h-247.171875c-4.875 0-8.828125-3.953125-8.828125-8.828125v-476.6875c0-4.875 3.953125-8.828125 8.828125-8.828125zm0-8.828125h-247.171875c-9.75 0-17.65625 7.90625-17.65625 17.65625v476.6875c0 9.75 7.90625 17.65625 17.65625 17.65625h247.171875c9.75 0 17.65625-7.90625 17.65625-17.65625v-476.6875c0-9.75-7.90625-17.65625-17.65625-17.65625zm0 0" fill="#95a5a5"/></svg>