<svg height="512pt" viewBox="0 -61 512.00017 512" width="512pt" xmlns="http://www.w3.org/2000/svg"><path d="m364.472656 199.59375h95.460938c4.792968 0 8.675781-3.886719 8.675781-8.679688v-147.523437h-147.523437v130.167969zm0 0" fill="#285680"/><path d="m303.730469 0h182.234375c4.792968 0 8.679687 3.886719 8.679687 8.679688v26.03125c0 4.792968-3.886719 8.679687-8.679687 8.679687h-182.234375c-4.792969 0-8.679688-3.886719-8.679688-8.679687v-26.03125c0-4.792969 3.886719-8.679688 8.679688-8.679688zm0 0" fill="#f29c1f"/><path d="m425.21875 104.136719c0 14.378906-11.652344 26.03125-26.03125 26.03125s-26.035156-11.652344-26.035156-26.03125c0-14.378907 11.65625-26.035157 26.035156-26.035157s26.03125 11.65625 26.03125 26.035157zm0 0" fill="#fdd7ad"/><path d="m397.917969 130.167969h2.535156c18.472656 0 33.445313 14.976562 33.445313 33.445312v35.980469h-69.425782v-35.980469c0-18.46875 14.976563-33.445312 33.445313-33.445312zm0 0" fill="#f29c1f"/><path d="m34.710938 242.984375v-173.5625c0-4.789063 3.886718-8.675781 8.679687-8.675781h104.136719c4.789062 0 8.675781 3.886718 8.675781 8.675781v173.5625zm0 0" fill="#35495e"/><path d="m121.492188 104.136719h-52.070313c-4.789063 0-8.675781-3.886719-8.675781-8.679688s3.886718-8.675781 8.675781-8.675781h52.070313c4.792968 0 8.675781 3.882812 8.675781 8.675781s-3.882813 8.679688-8.675781 8.679688zm0 0" fill="#2c3e50"/><path d="m121.492188 138.847656h-52.070313c-4.789063 0-8.675781-3.886718-8.675781-8.679687s3.886718-8.675781 8.675781-8.675781h52.070313c4.792968 0 8.675781 3.882812 8.675781 8.675781s-3.882813 8.679687-8.675781 8.679687zm0 0" fill="#2c3e50"/><path d="m78.101562 173.558594h-8.679687c-4.789063 0-8.675781-3.882813-8.675781-8.675782 0-4.792968 3.886718-8.679687 8.675781-8.679687h8.679687c4.792969 0 8.679688 3.886719 8.679688 8.679687 0 4.792969-3.886719 8.675782-8.679688 8.675782zm0 0" fill="#2c3e50"/><path d="m338.441406 95.457031c-.710937.003907-1.421875-.082031-2.109375-.257812l-34.710937-8.679688c-3.074219-.691406-5.527344-2.992187-6.417969-6.011719-.890625-3.019531-.078125-6.285156 2.128906-8.53125 2.203125-2.246093 5.453125-3.125 8.488281-2.292968l34.710938 8.679687c4.246094 1.0625 7.035156 5.125 6.503906 9.46875-.53125 4.347657-4.214844 7.617188-8.59375 7.625zm0 0" fill="#2fa8cc"/><path d="m303.730469 147.527344c-4.03125.007812-7.535157-2.761719-8.464844-6.683594-.925781-3.921875.96875-7.964844 4.574219-9.761719l34.714844-17.355469c4.289062-2.144531 9.5-.402343 11.644531 3.886719 2.140625 4.289063.402343 9.503907-3.886719 11.644531l-34.714844 17.355469c-1.199218.601563-2.527344.914063-3.867187.914063zm0 0" fill="#2fa8cc"/><path d="m399.1875 390.550781h-69.425781c-4.792969 0-8.675781-3.882812-8.675781-8.675781s3.882812-8.679688 8.675781-8.679688h69.425781c4.792969 0 8.675781 3.886719 8.675781 8.679688s-3.882812 8.675781-8.675781 8.675781zm0 0" fill="#2c3e50"/><path d="m512 277.695312v43.390626c.027344 4.398437-3.195312 8.140624-7.550781 8.761718l-53.195313 8.765625h-407.863281l-28.117187-8.9375c-3.871094-.957031-6.59375-4.429687-6.59375-8.417969v-26.207031l34.710937-52.066406h425.21875zm0 0" fill="#c03a2b"/><path d="m512 277.695312v26.207032c.027344 4.398437-3.195312 8.140625-7.550781 8.765625l-53.195313 8.765625h-407.863281l-28.117187-8.941406c-3.871094-.957032-6.59375-4.429688-6.59375-8.417969v-9.023438l34.710937-52.066406h425.21875zm0 0" fill="#e64c3c"/><path d="m399.1875 390.550781c-28.757812 0-52.070312-23.308593-52.070312-52.066406s23.3125-52.066406 52.070312-52.066406c28.753906 0 52.066406 23.308593 52.066406 52.066406-.03125 28.742187-23.324218 52.035156-52.066406 52.066406zm0 0" fill="#2c3e50"/><path d="m407.863281 242.984375h-173.558593v-69.425781h100.492187c2.320313-.007813 4.546875.933594 6.160156 2.605468l14.058594 14.058594zm0 0" fill="#b0d3f0"/><path d="m234.304688 173.558594v69.425781h-104.136719l8.679687-69.425781zm0 0" fill="#90bae1"/><path d="m138.847656 173.558594-8.679687 69.425781h-43.386719l23.949219-63.699219c1.226562-3.449218 4.496093-5.746094 8.15625-5.726562zm0 0" fill="#c03a2b"/><path d="m269.015625 299.214844v39.398437h-17.355469v-39.398437c-.007812-1.347656-.304687-2.679688-.867187-3.902344l-24.210938-48.425781c-.601562-1.214844-.925781-2.546875-.953125-3.902344h18.394532l22.214843 44.515625c1.835938 3.632812 2.785157 7.648438 2.777344 11.714844zm0 0" fill="#c03a2b"/><path d="m512 251.660156v26.035156h-27.941406c-3.964844.007813-7.429688-2.671874-8.417969-6.507812l-7.03125-28.203125h34.710937c4.792969 0 8.679688 3.882813 8.679688 8.675781zm0 0" fill="#f0c419"/><path d="m43.390625 242.984375v21.695313c.019531 2.734374-1.269531 5.316406-3.472656 6.941406l-31.238281 23.429687v-31.066406c.015624-2.300781.917968-4.507813 2.515624-6.160156l12.320313-12.238281c1.589844-1.652344 3.78125-2.59375 6.078125-2.601563zm0 0" fill="#f0c419"/><g fill="#2c3e50"><path d="m121.492188 390.550781h-69.425782c-4.792968 0-8.675781-3.882812-8.675781-8.675781s3.882813-8.679688 8.675781-8.679688h69.425782c4.792968 0 8.675781 3.886719 8.675781 8.679688s-3.882813 8.675781-8.675781 8.675781zm0 0"/><path d="m17.355469 390.683594h-8.675781c-4.792969 0-8.679688-3.886719-8.679688-8.679688 0-4.792968 3.886719-8.675781 8.679688-8.675781h8.675781c4.792969 0 8.679687 3.882813 8.679687 8.675781 0 4.792969-3.886718 8.679688-8.679687 8.679688zm0 0"/><path d="m295.050781 390.683594h-8.679687c-4.789063 0-8.675782-3.886719-8.675782-8.679688 0-4.792968 3.886719-8.675781 8.675782-8.675781h8.679687c4.792969 0 8.679688 3.882813 8.679688 8.675781 0 4.792969-3.886719 8.679688-8.679688 8.679688zm0 0"/><path d="m121.492188 390.550781c-28.757813 0-52.070313-23.308593-52.070313-52.066406s23.3125-52.066406 52.070313-52.066406c28.753906 0 52.066406 23.308593 52.066406 52.066406-.03125 28.742187-23.324219 52.035156-52.066406 52.066406zm0 0"/></g><path d="m164.882812 338.484375c0 23.964844-19.429687 43.390625-43.390624 43.390625-23.964844 0-43.390626-19.425781-43.390626-43.390625s19.425782-43.390625 43.390626-43.390625c23.960937 0 43.390624 19.425781 43.390624 43.390625zm0 0" fill="#35495e"/><path d="m147.394531 338.484375c0 14.304687-11.597656 25.902344-25.902343 25.902344-14.308594 0-25.90625-11.597657-25.90625-25.902344s11.597656-25.902344 25.90625-25.902344c14.304687 0 25.902343 11.597657 25.902343 25.902344zm0 0" fill="#95a5a5"/><path d="m442.578125 338.484375c0 23.964844-19.429687 43.390625-43.390625 43.390625-23.964844 0-43.390625-19.425781-43.390625-43.390625s19.425781-43.390625 43.390625-43.390625c23.960938 0 43.390625 19.425781 43.390625 43.390625zm0 0" fill="#35495e"/><path d="m425.089844 338.484375c0 14.304687-11.597656 25.902344-25.902344 25.902344-14.308594 0-25.90625-11.597657-25.90625-25.902344s11.597656-25.902344 25.90625-25.902344c14.304688 0 25.902344 11.597657 25.902344 25.902344zm0 0" fill="#95a5a5"/><path d="m407.863281 242.984375h-141.449219c19.882813-30.242187 52.539063-49.691406 88.601563-52.761719zm0 0" fill="#90bae1"/></svg>