<svg height="512pt" viewBox="0 0 512 512" width="512pt" xmlns="http://www.w3.org/2000/svg"><path d="m151.835938 469.804688c11.285156-20.113282 31.246093-33.871094 54.058593-37.253907 57.007813-7.945312 148.984375-35.839843 201.207031-42.460937 10.054688-.867188 17.566407-9.621094 16.902344-19.691406-.664062-10.070313-9.265625-17.757813-19.347656-17.296876h-271.007812c-26.199219 0-35.503907 58-52.398438 61.441407" fill="#fdd7ad"/><path d="m151.835938 478.632812c-3.207032-.003906-6.160157-1.742187-7.714844-4.546874-1.554688-2.804688-1.46875-6.230469.226562-8.953126 12.523438-22.457031 34.839844-37.75 60.300782-41.320312 27.878906-3.882812 64.917968-12.773438 100.742187-21.371094 37.957031-9.109375 73.796875-17.707031 100.582031-21.105468 4.980469-.472657 8.820313-4.601563 8.925782-9.605469-.132813-5.527344-4.707032-9.90625-10.234376-9.800781h-271.003906c-9.445312 0-18.011718 16.996093-24.894531 30.652343-7.644531 15.164063-14.25 28.246094-25.742187 30.613281-4.777344.972657-9.441407-2.109374-10.417969-6.886718-.972657-4.777344 2.109375-9.441406 6.886719-10.417969 3.347656-1.101563 9.710937-13.714844 13.507812-21.253906 9.019531-17.984375 20.292969-40.359375 40.613281-40.359375h271.050781c14.691407-.386719 27.066407 10.898437 28.027344 25.566406.960938 14.664062-9.835937 27.46875-24.449218 29.003906-25.859376 3.273438-62.898438 12.164063-98.71875 20.761719-36.195313 8.695313-73.695313 17.65625-102.402344 21.683594-20.230469 2.980469-37.902344 15.261719-47.757813 33.179687-1.617187 2.597656-4.46875 4.171875-7.527343 4.160156zm0 0" fill="#f09372"/><path d="m256 397.242188h-70.621094c-4.875 0-8.828125-3.953126-8.828125-8.828126s3.953125-8.828124 8.828125-8.828124h70.621094c4.875 0 8.828125-3.953126 8.828125-8.828126s-3.953125-8.828124-8.828125-8.828124h-114.757812c-4.875 0-8.828126-3.949219-8.828126-8.828126 0-4.875 3.953126-8.824218 8.828126-8.824218h114.757812c14.625 0 26.484375 11.855468 26.484375 26.480468s-11.859375 26.484376-26.484375 26.484376zm0 0" fill="#f09372"/><path d="m152.804688 483.664062-20.390626 28.335938h-114.757812c-9.75 0-17.65625-7.90625-17.65625-17.65625v-34.339844c.0273438-6.089844 3.152344-11.746094 8.296875-15.003906l57.027344-35.578125c3.152343-2.003906 7.226562-1.792969 10.152343.53125l76.179688 61c1.90625 1.488281 3.105469 3.699219 3.324219 6.105469s-.570313 4.796875-2.175781 6.605468zm0 0" fill="#2c3e50"/><path d="m512 317.792969v26.484375c0 4.875-3.953125 8.824218-8.828125 8.824218h-494.34375c-4.875 0-8.828125-3.949218-8.828125-8.824218v-26.484375zm0 0" fill="#c03a2b"/><path d="m0 264.828125h512v52.964844h-512zm0 0" fill="#e64c3c"/><path d="m512 264.828125-77.558594-258.535156c-1.121094-3.734375-4.558594-6.292969-8.457031-6.292969h-339.96875c-3.898437 0-7.335937 2.558594-8.457031 6.292969l-77.558594 258.535156zm0 0" fill="#c03a2b"/><path d="m203.035156 264.828125h105.929688v8.828125c0 24.375-19.761719 44.136719-44.136719 44.136719h-17.65625c-24.375 0-44.136719-19.761719-44.136719-44.136719zm0 0" fill="#802d40"/><path d="m432.550781 132.414062c0-53.628906-79.042969-97.105468-176.550781-97.105468s-176.550781 43.476562-176.550781 97.105468c0 53.628907 79.042969 97.101563 176.550781 97.101563s176.550781-43.472656 176.550781-97.101563zm0 0" fill="#f29c1f"/><path d="m414.898438 132.414062c0-43.878906-71.140626-79.449218-158.898438-79.449218s-158.898438 35.570312-158.898438 79.449218c0 43.878907 71.140626 79.449219 158.898438 79.449219s158.898438-35.570312 158.898438-79.449219zm0 0" fill="#d25627"/><path d="m397.242188 132.414062c0-34.128906-63.238282-61.792968-141.242188-61.792968s-141.242188 27.664062-141.242188 61.792968c0 34.128907 63.238282 61.792969 141.242188 61.792969s141.242188-27.664062 141.242188-61.792969zm0 0" fill="#f0c419"/><g fill="#c03a2b"><path d="m256 238.34375c-4.875 0-8.828125-3.949219-8.828125-8.828125v-194.207031c0-4.875 3.953125-8.824219 8.828125-8.824219s8.828125 3.949219 8.828125 8.824219v194.207031c0 4.878906-3.953125 8.828125-8.828125 8.828125zm0 0"/><path d="m126.921875 227.59375c-3.75 0-7.097656-2.367188-8.335937-5.910156-1.242188-3.542969-.105469-7.480469 2.828124-9.820313l118.238282-94.863281-128.820313-64.917969c-2.898437-1.359375-4.832031-4.183593-5.054687-7.378906-.21875-3.191406 1.304687-6.253906 3.984375-8.003906 2.683593-1.75 6.101562-1.910157 8.933593-.417969l141.242188 71.140625c2.699219 1.34375 4.527344 3.972656 4.84375 6.972656.320312 3-.914062 5.953125-3.273438 7.832031l-129.09375 103.441407c-1.558593 1.242187-3.496093 1.921875-5.492187 1.925781zm0 0"/><path d="m79.792969 135.53125c-4.875.152344-8.953125-3.675781-9.105469-8.550781s3.671875-8.953125 8.550781-9.105469l176.195313-11.421875c4.875-.3125 9.082031 3.386719 9.394531 8.261719s-3.386719 9.082031-8.261719 9.390625l-176.234375 11.40625c-.152343.019531-.34375.019531-.539062.019531zm0 0"/><path d="m388.414062 229.515625c-1.996093 0-3.929687-.679687-5.492187-1.921875l-132.414063-105.410156c-2.355468-1.882813-3.589843-4.835938-3.273437-7.832032.320313-3 2.148437-5.628906 4.847656-6.972656l141.238281-70.214844c2.839844-1.542968 6.296876-1.414062 9.011719.339844 2.714844 1.753906 4.253907 4.851563 4.011719 8.078125-.242188 3.222657-2.226562 6.054688-5.175781 7.382813l-128.820313 64.035156 121.566406 96.785156c2.933594 2.339844 4.066407 6.277344 2.832032 9.816406-1.238282 3.542969-4.582032 5.914063-8.332032 5.914063zm0 0"/><path d="m432.207031 135.53125c-.195312 0-.386719 0-.574219 0l-176.199218-11.425781c-4.875-.308594-8.574219-4.515625-8.261719-9.390625s4.519531-8.574219 9.394531-8.261719l176.195313 11.421875c4.878906.152344 8.703125 4.230469 8.550781 9.105469s-4.230469 8.703125-9.105469 8.550781zm0 0"/></g></svg>