<svg height="512pt" viewBox="0 -13 512.00017 512" width="512pt" xmlns="http://www.w3.org/2000/svg"><path d="m355.796875 69.425781c-3.199219-.003906-6.136719-1.765625-7.648437-4.585937-1.507813-2.824219-1.339844-6.246094.4375-8.910156l34.710937-52.066407c2.660156-3.988281 8.050781-5.0625 12.035156-2.402343 3.988281 2.660156 5.066407 8.046874 2.40625 12.035156l-34.714843 52.066406c-1.609376 2.417969-4.324219 3.867188-7.226563 3.863281zm0 0" fill="#fac176"/><path d="m104.136719 69.425781c-2.90625.003907-5.617188-1.445312-7.230469-3.863281l-34.710938-52.066406c-1.722656-2.578125-1.933593-5.878906-.5625-8.660156 1.375-2.78125 4.128907-4.617188 7.222657-4.8164068 3.09375-.1992192 6.058593 1.2656248 7.78125 3.8437498l34.710937 52.066407c1.773438 2.664062 1.941406 6.085937.433594 8.910156-1.507812 2.820312-4.445312 4.582031-7.644531 4.585937zm0 0" fill="#fac176"/><path d="m156.203125 277.695312c-4.792969 0-8.675781-3.882812-8.675781-8.675781v-34.710937c0-4.792969 3.882812-8.679688 8.675781-8.679688s8.679687 3.886719 8.679687 8.679688v34.710937c0 4.792969-3.886718 8.675781-8.679687 8.675781zm0 0" fill="#95a5a5"/><path d="m303.730469 277.695312c-4.792969 0-8.679688-3.882812-8.679688-8.675781v-34.710937c0-4.792969 3.886719-8.679688 8.679688-8.679688s8.675781 3.886719 8.675781 8.679688v34.710937c0 4.792969-3.882812 8.675781-8.675781 8.675781zm0 0" fill="#95a5a5"/><path d="m362.304688 55.019531c-1.632813-1.890625-4.011719-2.96875-6.507813-2.949219h-251.660156c-2.5-.019531-4.878907 1.058594-6.507813 2.949219-1.664062 1.90625-2.421875 4.4375-2.085937 6.941407l22.476562 162.972656 1.476563 10.589844c.605468 4.277343 4.269531 7.460937 8.589844 7.460937h203.757812c4.324219 0 7.988281-3.183594 8.59375-7.460937l1.472656-10.589844 22.476563-162.972656c.339843-2.503907-.421875-5.035157-2.082031-6.941407zm0 0" fill="#fac176"/><path d="m362.304688 55.019531c-1.632813-1.890625-4.011719-2.96875-6.507813-2.949219h-251.660156c-2.5-.019531-4.878907 1.058594-6.507813 2.949219-1.664062 1.90625-2.421875 4.4375-2.085937 6.941407l22.476562 162.972656c1.105469.445312 2.28125.683594 3.472657.695312h216.949218c1.191406-.011718 2.367188-.25 3.46875-.695312l22.476563-162.972656c.339843-2.503907-.421875-5.035157-2.082031-6.941407zm0 0" fill="#f9eab0"/><path d="m355.796875 52.070312h-251.660156l26.03125-43.390624h199.59375zm0 0" fill="#fac176"/><path d="m156.203125 190.917969c-4.097656 0-7.640625-2.867188-8.492187-6.878907-.851563-4.007812 1.222656-8.066406 4.96875-9.730468l156.203124-69.425782c2.835938-1.257812 6.125-.910156 8.632813.914063 2.503906 1.828125 3.847656 4.851563 3.523437 7.933594-.328124 3.082031-2.273437 5.757812-5.109374 7.015625l-156.203126 69.425781c-1.109374.492187-2.308593.75-3.523437.746094zm0 0" fill="#7f5b53"/><path d="m186.714844 214.148438c-3.359375-.003907-6.414063-1.945313-7.84375-4.984376-1.429688-3.039062-.976563-6.632812 1.160156-9.222656l90.972656-110.007812c1.976563-2.390625 5.074219-3.546875 8.132813-3.03125 3.058593.515625 5.609375 2.621094 6.691406 5.527344s.53125 6.167968-1.441406 8.558593l-90.980469 110.011719c-1.648438 1.992188-4.101562 3.148438-6.691406 3.148438zm0 0" fill="#7f5b53"/><path d="m399.1875 485.839844h-69.425781c-4.792969 0-8.675781-3.886719-8.675781-8.679688 0-4.792968 3.882812-8.679687 8.675781-8.679687h69.425781c4.792969 0 8.675781 3.886719 8.675781 8.679687 0 4.792969-3.882812 8.679688-8.675781 8.679688zm0 0" fill="#2c3e50"/><path d="m512 372.980469v43.390625c.027344 4.398437-3.195312 8.140625-7.550781 8.765625l-53.195313 8.761719h-407.863281l-28.117187-8.9375c-3.871094-.957032-6.59375-4.429688-6.59375-8.417969v-26.207031l34.710937-52.066407h425.21875zm0 0" fill="#c03a2b"/><path d="m512 372.980469v26.207031c.027344 4.398438-3.195312 8.140625-7.550781 8.765625l-53.195313 8.765625h-407.863281l-28.117187-8.9375c-3.871094-.957031-6.59375-4.429688-6.59375-8.417969v-9.027343l34.710937-52.066407h425.21875zm0 0" fill="#e64c3c"/><path d="m399.1875 485.839844c-28.757812 0-52.070312-23.3125-52.070312-52.070313 0-28.753906 23.3125-52.066406 52.070312-52.066406 28.753906 0 52.066406 23.3125 52.066406 52.066406-.03125 28.742188-23.324218 52.035157-52.066406 52.070313zm0 0" fill="#2c3e50"/><path d="m407.863281 338.269531h-173.558593v-69.425781h100.492187c2.320313-.007812 4.546875.933594 6.160156 2.605469l14.058594 14.058593zm0 0" fill="#b0d3f0"/><path d="m234.304688 268.84375v69.425781h-104.136719l8.679687-69.425781zm0 0" fill="#90bae1"/><path d="m138.847656 268.84375-8.679687 69.425781h-43.386719l23.949219-63.695312c1.226562-3.449219 4.496093-5.746094 8.15625-5.730469zm0 0" fill="#c03a2b"/><path d="m269.015625 394.503906v39.394532h-17.355469v-39.394532c-.007812-1.351562-.304687-2.679687-.867187-3.90625l-24.210938-48.421875c-.601562-1.21875-.925781-2.550781-.953125-3.90625h18.394532l22.214843 44.519531c1.835938 3.628907 2.785157 7.644532 2.777344 11.714844zm0 0" fill="#c03a2b"/><path d="m512 346.945312v26.035157h-27.941406c-3.964844.007812-7.429688-2.671875-8.417969-6.507813l-7.03125-28.203125h34.710937c4.792969 0 8.679688 3.886719 8.679688 8.675781zm0 0" fill="#f0c419"/><path d="m43.390625 338.269531v21.695313c.019531 2.734375-1.269531 5.316406-3.472656 6.941406l-31.238281 23.429688v-31.066407c.015624-2.300781.917968-4.507812 2.515624-6.160156l12.320313-12.238281c1.589844-1.652344 3.78125-2.59375 6.078125-2.601563zm0 0" fill="#f0c419"/><g fill="#2c3e50"><path d="m121.492188 485.839844h-69.425782c-4.792968 0-8.675781-3.886719-8.675781-8.679688 0-4.792968 3.882813-8.679687 8.675781-8.679687h69.425782c4.792968 0 8.675781 3.886719 8.675781 8.679687 0 4.792969-3.882813 8.679688-8.675781 8.679688zm0 0"/><path d="m17.355469 485.96875h-8.675781c-4.792969 0-8.679688-3.886719-8.679688-8.679688 0-4.792968 3.886719-8.675781 8.679688-8.675781h8.675781c4.792969 0 8.679687 3.882813 8.679687 8.675781 0 4.792969-3.886718 8.679688-8.679687 8.679688zm0 0"/><path d="m295.050781 485.96875h-8.679687c-4.789063 0-8.675782-3.886719-8.675782-8.679688 0-4.792968 3.886719-8.675781 8.675782-8.675781h8.679687c4.792969 0 8.679688 3.882813 8.679688 8.675781 0 4.792969-3.886719 8.679688-8.679688 8.679688zm0 0"/><path d="m121.492188 485.839844c-28.757813 0-52.070313-23.3125-52.070313-52.070313 0-28.753906 23.3125-52.066406 52.070313-52.066406 28.753906 0 52.066406 23.3125 52.066406 52.066406-.03125 28.742188-23.324219 52.035157-52.066406 52.070313zm0 0"/></g><path d="m164.882812 433.769531c0 23.964844-19.429687 43.390625-43.390624 43.390625-23.964844 0-43.390626-19.425781-43.390626-43.390625 0-23.960937 19.425782-43.390625 43.390626-43.390625 23.960937 0 43.390624 19.429688 43.390624 43.390625zm0 0" fill="#35495e"/><path d="m147.394531 433.769531c0 14.308594-11.597656 25.90625-25.902343 25.90625-14.308594 0-25.90625-11.597656-25.90625-25.90625 0-14.304687 11.597656-25.902343 25.90625-25.902343 14.304687 0 25.902343 11.597656 25.902343 25.902343zm0 0" fill="#95a5a5"/><path d="m442.578125 433.769531c0 23.964844-19.429687 43.390625-43.390625 43.390625-23.964844 0-43.390625-19.425781-43.390625-43.390625 0-23.960937 19.425781-43.390625 43.390625-43.390625 23.960938 0 43.390625 19.429688 43.390625 43.390625zm0 0" fill="#35495e"/><path d="m425.089844 433.769531c0 14.308594-11.597656 25.90625-25.902344 25.90625-14.308594 0-25.90625-11.597656-25.90625-25.90625 0-14.304687 11.597656-25.902343 25.90625-25.902343 14.304688 0 25.902344 11.597656 25.902344 25.902343zm0 0" fill="#95a5a5"/><path d="m407.863281 338.269531h-141.449219c19.882813-30.242187 52.539063-49.691406 88.601563-52.761719zm0 0" fill="#90bae1"/></svg>