<svg height="512pt" viewBox="0 -39 512 512" width="512pt" xmlns="http://www.w3.org/2000/svg"><path d="m416.542969 269.015625h-121.492188v-95.457031h83.308594l27.160156 68.035156zm0 0" fill="#b0d3f0"/><path d="m378.359375 173.558594h-83.308594v-34.710938h57.621094c7.113281-.007812 13.511719 4.328125 16.140625 10.933594zm0 0" fill="#f3d55b"/><path d="m512 277.695312v69.421876c-.003906 4.386718-3.210938 8.113281-7.550781 8.765624l-26.554688 8.503907h-38.875l-79.664062.085937h-46.949219v-39.308594c.007812-2.683593-.617188-5.328124-1.820312-7.722656l-15.535157-48.425781h208.269531c4.792969 0 8.679688 3.886719 8.679688 8.679687zm0 0" fill="#f29c1f"/><path d="m312.40625 325.164062v39.308594h-243.070312l-26.8125-.171875-27.25-8.675781c-3.871094-.960938-6.59375-4.429688-6.59375-8.417969v-329.851562c.027343-9.574219 7.78125-17.3281252 17.355468-17.355469h219.550782c3.941406.0351562 7.757812 1.378906 10.847656 3.816406l32.109375 25.6875c4.101562 3.296875 6.496093 8.273438 6.507812 13.539063v225.972656l15.535157 48.425781c1.203124 2.394532 1.828124 5.039063 1.820312 7.722656zm0 0" fill="#d25627"/><path d="m512 329.761719v17.355469c-.003906 4.386718-3.210938 8.113281-7.550781 8.765624l-26.554688 8.503907h-38.875l-79.664062.085937h-46.949219v-17.355468h46.949219l79.664062-.085938h38.875l26.554688-8.503906c4.339843-.652344 7.546875-4.378906 7.550781-8.765625zm0 0" fill="#f18d46"/><path d="m312.40625 325.164062v39.308594h-243.070312l-26.8125-.171875-27.25-8.675781c-3.871094-.960938-6.59375-4.429688-6.59375-8.417969v-329.851562c.027343-9.574219 7.78125-17.3281252 17.355468-17.355469h219.550782c3.941406.0351562 7.757812 1.378906 10.847656 3.816406l32.109375 25.6875c4.101562 3.296875 6.496093 8.273438 6.507812 13.539063v225.972656l15.535157 48.425781c1.203124 2.394532 1.828124 5.039063 1.820312 7.722656zm0 0" fill="#e57e25"/><path d="m512 277.695312v52.066407c-.003906 4.386719-3.210938 8.113281-7.550781 8.765625l-26.554688 8.503906h-38.875l-79.664062.085938h-46.949219v-21.953126c.007812-2.683593-.617188-5.328124-1.820312-7.722656l-15.535157-48.425781h208.269531c4.792969 0 8.679688 3.886719 8.679688 8.679687zm0 0" fill="#f3d55b"/><path d="m312.40625 325.164062v21.953126h-243.070312l-26.8125-.171876-27.25-8.679687c-3.871094-.957031-6.59375-4.429687-6.59375-8.417969v-312.492187c.027343-9.574219 7.78125-17.3281252 17.355468-17.355469h219.550782c3.941406.0351562 7.757812 1.378906 10.847656 3.816406l32.109375 25.6875c4.101562 3.296875 6.496093 8.273438 6.507812 13.539063v225.972656l15.535157 48.425781c1.203124 2.394532 1.828124 5.039063 1.820312 7.722656zm0 0" fill="#f29c1f"/><path d="m8.679688 321.085938 31.238281-23.433594c2.1875-1.636719 3.472656-4.210938 3.472656-6.941406v-17.355469c0-2.730469-1.285156-5.304688-3.472656-6.941407l-31.238281-23.429687zm0 0" fill="#c03a2b"/><g fill="#2c3e50"><path d="m121.492188 433.769531h-69.425782c-4.792968 0-8.675781-3.886719-8.675781-8.679687 0-4.792969 3.882813-8.675782 8.675781-8.675782h69.425782c4.792968 0 8.675781 3.882813 8.675781 8.675782 0 4.792968-3.882813 8.679687-8.675781 8.679687zm0 0"/><path d="m17.355469 433.898438h-8.675781c-4.792969 0-8.679688-3.886719-8.679688-8.679688s3.886719-8.675781 8.679688-8.675781h8.675781c4.792969 0 8.679687 3.882812 8.679687 8.675781s-3.886718 8.679688-8.679687 8.679688zm0 0"/><path d="m399.1875 433.769531h-69.425781c-4.792969 0-8.675781-3.886719-8.675781-8.679687 0-4.792969 3.882812-8.675782 8.675781-8.675782h69.425781c4.792969 0 8.675781 3.882813 8.675781 8.675782 0 4.792968-3.882812 8.679687-8.675781 8.679687zm0 0"/><path d="m295.050781 433.898438h-8.679687c-4.789063 0-8.675782-3.886719-8.675782-8.679688s3.886719-8.675781 8.675782-8.675781h8.679687c4.792969 0 8.679688 3.882812 8.679688 8.675781s-3.886719 8.679688-8.679688 8.679688zm0 0"/></g><path d="m477.289062 269.015625h26.03125c4.792969 0 8.679688 3.886719 8.679688 8.679687v26.035157h-26.035156c-4.792969 0-8.675782-3.886719-8.675782-8.679688zm0 0" fill="#f0c419"/><path d="m121.492188 433.769531c-28.757813 0-52.070313-23.3125-52.070313-52.070312 0-28.753907 23.3125-52.066407 52.070313-52.066407 28.753906 0 52.066406 23.3125 52.066406 52.066407-.03125 28.742187-23.324219 52.035156-52.066406 52.070312zm0 0" fill="#2c3e50"/><path d="m164.882812 381.699219c0 23.964843-19.429687 43.390625-43.390624 43.390625-23.964844 0-43.390626-19.425782-43.390626-43.390625 0-23.960938 19.425782-43.390625 43.390626-43.390625 23.960937 0 43.390624 19.429687 43.390624 43.390625zm0 0" fill="#35495e"/><path d="m147.394531 381.699219c0 14.308593-11.597656 25.90625-25.902343 25.90625-14.308594 0-25.90625-11.597657-25.90625-25.90625 0-14.304688 11.597656-25.902344 25.90625-25.902344 14.304687 0 25.902343 11.597656 25.902343 25.902344zm0 0" fill="#95a5a5"/><path d="m399.1875 433.769531c-28.757812 0-52.070312-23.3125-52.070312-52.070312 0-28.753907 23.3125-52.066407 52.070312-52.066407 28.753906 0 52.066406 23.3125 52.066406 52.066407-.03125 28.742187-23.324218 52.035156-52.066406 52.070312zm0 0" fill="#2c3e50"/><path d="m442.578125 381.699219c0 23.964843-19.429687 43.390625-43.390625 43.390625-23.964844 0-43.390625-19.425782-43.390625-43.390625 0-23.960938 19.425781-43.390625 43.390625-43.390625 23.960938 0 43.390625 19.429687 43.390625 43.390625zm0 0" fill="#35495e"/><path d="m425.089844 381.699219c0 14.308593-11.597656 25.90625-25.902344 25.90625-14.308594 0-25.90625-11.597657-25.90625-25.90625 0-14.304688 11.597656-25.902344 25.90625-25.902344 14.304688 0 25.902344 11.597656 25.902344 25.902344zm0 0" fill="#95a5a5"/><path d="m416.542969 269.015625h-121.492188v-52.328125c25.339844-8.761719 58.316407-7.636719 99.363281 17.617188 4.078126 2.515624 7.722657 4.945312 11.105469 7.289062zm0 0" fill="#90bae1"/><path d="m190.914062 129.761719c-2.882812 0-5.582031-1.429688-7.195312-3.820313s-1.933594-5.429687-.855469-8.101562l34.710938-86.363282c1.15625-2.878906 3.757812-4.921874 6.828125-5.355468 3.070312-.4375 6.140625.796875 8.054687 3.234375 1.914063 2.441406 2.378907 5.714843 1.222657 8.59375l-34.710938 86.363281c-1.320312 3.289062-4.507812 5.449219-8.054688 5.449219zm0 0" fill="#7f5b53"/><path d="m190.914062 129.753906c-3.734374 0-7.050781-2.390625-8.230468-5.933594-1.183594-3.542968.035156-7.445312 3.023437-9.6875l69.425781-51.660156c2.480469-1.859375 5.765626-2.253906 8.617188-1.035156 2.855469 1.21875 4.839844 3.867188 5.207031 6.945312.371094 3.082032-.929687 6.125-3.410156 7.984376l-69.425781 51.660156c-1.5 1.125-3.328125 1.730468-5.207032 1.726562zm0 0" fill="#7f5b53"/><path d="m256.347656 199.59375c-11.390625 36.136719-44.894531 60.722656-82.789062 60.746094h-43.390625c-37.886719-.027344-71.390625-24.609375-82.785157-60.746094zm0 0" fill="#ecf0f1"/><path d="m260.339844 173.558594c.011718 8.832031-1.332032 17.613281-3.992188 26.035156h-208.964844c-2.660156-8.421875-4.007812-17.203125-3.992187-26.035156 0-4.792969 3.882813-8.675782 8.675781-8.675782h199.59375c4.792969 0 8.679688 3.882813 8.679688 8.675782zm0 0" fill="#90bae1"/><path d="m242.714844 164.882812-11.507813-17.539062c-3.65625-5.570312-8.699219-10.089844-14.632812-13.121094l-24.894531-12.730468c-.695313-.347657-1.371094-.722657-2.03125-1.113282l-21.21875-12.519531c-13.042969-7.707031-29.398438-7.027344-41.757813 1.734375-3.25 2.308594-6.84375 4.09375-10.648437 5.292969l-11.742188 3.722656c-5.964844 1.890625-11.378906 5.210937-15.765625 9.675781l-7.628906 7.75c-1.835938 1.851563-3.480469 3.886719-4.902344 6.074219l-14.699219 22.773437zm0 0" fill="#f5efca"/></svg>