<svg height="512pt" viewBox="0 0 512 512" width="512pt" xmlns="http://www.w3.org/2000/svg"><path d="m512 423.722656h-512l35.308594-79.445312 2.828125-6.355469 32.484375-73.09375h370.757812l32.484375 73.09375 2.828125 6.355469zm0 0" fill="#802f34"/><path d="m441.378906 344.9375v37.078125c0 15.296875-10.378906 29.660156-28.246094 41.707031h-314.265624c-17.867188-12.046875-28.246094-26.410156-28.246094-41.707031v-37.078125zm0 0" fill="#b19046"/><path d="m441.378906 344.9375c0-43.511719-82.996094-78.785156-185.378906-78.785156s-185.378906 35.273437-185.378906 78.785156 82.996094 78.785156 185.378906 78.785156 185.378906-35.273437 185.378906-78.785156zm0 0" fill="#e4c05c"/><path d="m256 406.070312c-103.917969 0-167.722656-35.601562-167.722656-61.132812 0-25.527344 63.804687-61.128906 167.722656-61.128906s167.722656 35.609375 167.722656 61.128906-63.804687 61.132812-167.722656 61.132812zm0 0" fill="#c03a2b"/><path d="m256 388.414062c-99.335938 0-148.152344-33.175781-150.070312-43.714843 1.933593-10.0625 50.75-43.253907 150.070312-43.253907s148.152344 33.191407 150.070312 43.714844c-1.917968 10.078125-50.734374 43.253906-150.070312 43.253906zm0 0" fill="#f0c419"/><g fill="#802f34"><path d="m256 432.550781c-4.875 0-8.828125-3.953125-8.828125-8.828125v-167.722656c0-4.875 3.953125-8.828125 8.828125-8.828125s8.828125 3.953125 8.828125 8.828125v167.722656c0 4.875-3.953125 8.828125-8.828125 8.828125zm0 0"/><path d="m105.929688 432.550781c-3.949219.003907-7.417969-2.617187-8.496094-6.414062-1.082032-3.796875.492187-7.851563 3.855468-9.925781l134.875-83.304688-133.382812-51.007812c-4.484375-1.785157-6.703125-6.84375-4.980469-11.351563 1.722657-4.507813 6.75-6.796875 11.28125-5.136719l150.070313 57.378906c3.136718 1.199219 5.320312 4.074219 5.632812 7.417969.316406 3.34375-1.292968 6.574219-4.152344 8.339844l-150.066406 92.691406c-1.390625.859375-2.996094 1.316407-4.636718 1.3125zm0 0"/><path d="m264.828125 330.503906c.246094 4.859375-3.445313 9.023438-8.296875 9.359375h-.53125l-211.332031 13.238281h-.53125c-4.652344-.042968-8.496094-3.652343-8.828125-8.296874v-.527344l2.828125-6.355469c1.472656-1.445313 3.414062-2.320313 5.472656-2.472656l211.859375-13.242188h1.0625c4.449219.304688 7.992188 3.847657 8.296875 8.296875zm0 0"/><path d="m397.242188 432.550781c-1.71875 0-3.402344-.503906-4.839844-1.445312l-141.238282-92.691407c-2.742187-1.800781-4.257812-4.972656-3.9375-8.238281.320313-3.265625 2.425782-6.082031 5.464844-7.316406l141.238282-57.378906c2.945312-1.3125 6.375-.917969 8.941406 1.035156s3.863281 5.148437 3.386718 8.339844c-.480468 3.1875-2.660156 5.863281-5.6875 6.972656l-125.660156 51.050781 127.175782 83.464844c3.265624 2.140625 4.734374 6.171875 3.617187 9.910156-1.121094 3.738282-4.558594 6.300782-8.460937 6.296875zm0 0"/><path d="m476.691406 344.277344v.527344c-.332031 4.644531-4.175781 8.253906-8.828125 8.296874h-.53125l-211.332031-13.238281h-.53125c-4.875-.148437-8.707031-4.21875-8.5625-9.09375.148438-4.875 4.21875-8.707031 9.09375-8.5625h.53125l211.859375 13.242188c2.058594.152343 4 1.027343 5.472656 2.472656zm0 0"/></g><path d="m512 423.722656v79.449219c0 4.875-3.953125 8.828125-8.828125 8.828125h-494.34375c-4.875 0-8.828125-3.953125-8.828125-8.828125v-79.449219zm0 0" fill="#c03a2b"/><path d="m22.070312 467.863281c0 4.875-3.953124 8.828125-8.828124 8.828125h-13.242188v-17.65625h13.242188c4.875 0 8.828124 3.953125 8.828124 8.828125zm0 0" fill="#e64c3c"/><path d="m462.125 459.035156h-27.453125c-4.875 0-8.828125 3.953125-8.828125 8.828125s3.953125 8.828125 8.828125 8.828125h27.453125c4.875 0 8.828125-3.953125 8.828125-8.828125s-3.953125-8.828125-8.828125-8.828125zm-64.175781 0h-27.457031c-4.875 0-8.824219 3.953125-8.824219 8.828125s3.949219 8.828125 8.824219 8.828125h27.457031c4.875 0 8.824219-3.953125 8.824219-8.828125s-3.949219-8.828125-8.824219-8.828125zm-64.089844 0h-27.453125c-4.875 0-8.828125 3.953125-8.828125 8.828125s3.953125 8.828125 8.828125 8.828125h27.453125c4.875 0 8.828125-3.953125 8.828125-8.828125s-3.953125-8.828125-8.828125-8.828125zm-64.089844 0h-27.539062c-4.875 0-8.828125 3.953125-8.828125 8.828125s3.953125 8.828125 8.828125 8.828125h27.539062c4.875 0 8.828125-3.953125 8.828125-8.828125s-3.953125-8.828125-8.828125-8.828125zm-64.175781 0h-27.453125c-4.875 0-8.828125 3.953125-8.828125 8.828125s3.953125 8.828125 8.828125 8.828125h27.453125c4.875 0 8.828125-3.953125 8.828125-8.828125s-3.953125-8.828125-8.828125-8.828125zm-64.085938 0h-27.457031c-4.875 0-8.824219 3.953125-8.824219 8.828125s3.949219 8.828125 8.824219 8.828125h27.457031c4.875 0 8.824219-3.953125 8.824219-8.828125s-3.949219-8.828125-8.824219-8.828125zm-64.179687 0h-27.453125c-4.875 0-8.828125 3.953125-8.828125 8.828125s3.953125 8.828125 8.828125 8.828125h27.453125c4.875 0 8.828125-3.953125 8.828125-8.828125s-3.953125-8.828125-8.828125-8.828125zm0 0" fill="#e64c3c"/><path d="m512 459.035156v17.65625h-13.242188c-4.875 0-8.828124-3.953125-8.828124-8.828125s3.953124-8.828125 8.828124-8.828125zm0 0" fill="#e64c3c"/><path d="m488.429688 88.277344-47.050782 176.550781h-370.757812l-47.050782-176.550781zm0 0" fill="#c03a2b"/><path d="m17.65625 0h476.6875c9.75 0 17.65625 7.90625 17.65625 17.65625v70.621094h-512v-70.621094c0-9.75 7.90625-17.65625 17.65625-17.65625zm0 0" fill="#e64c3c"/><path d="m203.035156 44.136719h105.929688c9.75 0 17.65625 7.90625 17.65625 17.65625v26.484375h-141.242188v-26.484375c0-9.75 7.90625-17.65625 17.65625-17.65625zm0 0" fill="#802d40"/></svg>