<svg height="512pt" viewBox="0 0 512 512" width="512pt" xmlns="http://www.w3.org/2000/svg"><path d="m35.308594 105.929688h-17.652344c-9.75 0-17.65625 7.90625-17.65625 17.65625v26.484374h512v-26.484374c0-9.75-7.90625-17.65625-17.65625-17.65625zm0 0" fill="#c03a2b"/><path d="m0 150.070312h512v344.273438c0 9.75-7.90625 17.65625-17.65625 17.65625h-476.6875c-9.75 0-17.65625-7.90625-17.65625-17.65625zm0 0" fill="#c03a2b"/><path d="m35.308594 35.308594h441.382812v114.761718h-441.382812zm0 0" fill="#802f34"/><path d="m52.964844 0h406.070312c9.75 0 17.65625 7.90625 17.65625 17.65625v17.652344h-441.382812v-17.652344c0-9.75 7.90625-17.65625 17.65625-17.65625zm0 0" fill="#e64c3c"/><path d="m329.535156 149.890625h-23.835937l-72.652344.179687 50.320313-39.019531 16.769531-12.976562c12.199219 15.796875 22.09375 33.242187 29.398437 51.816406zm0 0" fill="#c03a2b"/><path d="m305.699219 149.890625-72.652344.179687 50.320313-39.019531c8.796874 12.121094 16.285156 25.140625 22.332031 38.839844zm0 0" fill="#f0c419"/><path d="m326.621094 149.890625h2.914062c-7.304687-18.574219-17.199218-36.019531-29.398437-51.816406l22.601562-16.773438c1.898438-1.460937 4.304688-2.097656 6.679688-1.765625 2.375.332032 4.515625 1.605469 5.941406 3.53125 14.597656 20.378906 25.75 43.011719 33.015625 67.003906h-41.753906zm0 0" fill="#e4c05c"/><path d="m352.660156 203.035156c48.222656 40.605469 65.925782 107.019532 44.3125 166.238282-21.613281 59.222656-77.933594 98.621093-140.972656 98.621093s-119.359375-39.398437-140.972656-98.621093c-21.613282-59.21875-3.910156-125.632813 44.3125-166.238282zm0 0" fill="#f29c1f"/><path d="m379.585938 317.792969c0 68.253906-55.332032 123.585937-123.585938 123.585937s-123.585938-55.332031-123.585938-123.585937c0-68.253907 55.332032-123.585938 123.585938-123.585938s123.585938 55.332031 123.585938 123.585938zm0 0" fill="#d25627"/><path d="m361.929688 317.792969c0 58.503906-47.425782 105.929687-105.929688 105.929687s-105.929688-47.425781-105.929688-105.929687c0-58.503907 47.425782-105.929688 105.929688-105.929688s105.929688 47.425781 105.929688 105.929688zm0 0" fill="#f0c419"/><g fill="#c03a2b"><path d="m264.828125 150.070312v344.273438c0 4.875-3.953125 8.828125-8.828125 8.828125s-8.828125-3.953125-8.828125-8.828125v-344.273438zm0 0"/><path d="m423.722656 326.621094h-335.445312c-4.875 0-8.828125-3.953125-8.828125-8.828125s3.953125-8.828125 8.828125-8.828125h335.445312c4.875 0 8.828125 3.953125 8.828125 8.828125s-3.953125 8.828125-8.828125 8.828125zm0 0"/><path d="m131.160156 451.460938c-3.570312 0-6.789062-2.152344-8.152344-5.449219-1.367187-3.300781-.613281-7.09375 1.910157-9.621094l249.679687-249.679687c3.464844-3.34375 8.96875-3.296876 12.375.109374s3.453125 8.910157.109375 12.375l-249.679687 249.679688c-1.65625 1.65625-3.902344 2.585938-6.242188 2.585938zm0 0"/><path d="m374.597656 445.21875c-2.339844 0-4.585937-.929688-6.238281-2.585938l-237.199219-237.195312c-2.292968-2.21875-3.214844-5.5-2.40625-8.585938.808594-3.085937 3.21875-5.496093 6.304688-6.304687 3.085937-.808594 6.367187.113281 8.582031 2.40625l237.199219 237.199219c2.523437 2.523437 3.277344 6.320312 1.914062 9.617187-1.367187 3.296875-4.585937 5.449219-8.15625 5.449219zm0 0"/><path d="m229.515625 247.171875c-2.335937-.035156-4.574219-.949219-6.265625-2.558594-.351562-.441406-.707031-.882812-1.058594-1.414062-.351562-.449219-.621094-.957031-.796875-1.5-.253906-.5-.433593-1.035157-.527343-1.589844-.097657-.582031-.160157-1.171875-.175782-1.765625.011719-1.152344.253906-2.292969.703125-3.351562.429688-1.082032 1.058594-2.070313 1.855469-2.914063 3.539062-3.265625 8.996094-3.265625 12.535156 0 .796875.84375 1.425782 1.832031 1.851563 2.914063.453125 1.058593.695312 2.199218.707031 3.351562-.019531.59375-.078125 1.183594-.175781 1.765625-.097657.554687-.273438 1.089844-.53125 1.589844-.171875.542969-.441407 1.050781-.792969 1.5-.351562.53125-.707031.972656-1.058594 1.414062-1.691406 1.609375-3.929687 2.523438-6.269531 2.558594zm0 0"/><path d="m185.378906 300.136719c-2.335937-.03125-4.574218-.945313-6.265625-2.558594-.355469-.441406-.707031-.882813-1.0625-1.414063-.347656-.449218-.617187-.957031-.792969-1.5-.253906-.5-.433593-1.035156-.53125-1.589843-.097656-.582031-.15625-1.171875-.175781-1.765625.015625-1.152344.253907-2.292969.707031-3.351563.425782-1.082031 1.054688-2.070312 1.855469-2.914062 3.539063-3.265625 8.992188-3.265625 12.535157 0 .796874.84375 1.425781 1.832031 1.851562 2.914062.453125 1.058594.691406 2.199219.707031 3.351563-.019531.59375-.078125 1.183594-.175781 1.765625-.097656.554687-.277344 1.089843-.53125 1.589843-.175781.542969-.445312 1.050782-.792969 1.5-.355469.53125-.707031.972657-1.058593 1.414063-1.695313 1.613281-3.933594 2.527344-6.269532 2.558594zm0 0"/><path d="m185.378906 353.101562c-2.335937-.03125-4.574218-.945312-6.265625-2.558593-.355469-.441407-.707031-.882813-1.0625-1.410157-.347656-.453124-.617187-.960937-.792969-1.503906-.253906-.5-.433593-1.035156-.53125-1.585937-.097656-.585938-.15625-1.175781-.175781-1.765625.015625-1.15625.253907-2.292969.707031-3.355469.425782-1.082031 1.054688-2.070313 1.855469-2.914063 3.539063-3.265624 8.992188-3.265624 12.535157 0 .796874.84375 1.425781 1.832032 1.851562 2.914063.453125 1.0625.691406 2.199219.707031 3.355469-.019531.589844-.078125 1.179687-.175781 1.765625-.097656.550781-.277344 1.085937-.53125 1.585937-.175781.542969-.445312 1.050782-.792969 1.503906-.355469.527344-.707031.96875-1.058593 1.410157-1.695313 1.613281-3.933594 2.527343-6.269532 2.558593zm0 0"/><path d="m229.515625 406.070312c-2.335937-.035156-4.574219-.949218-6.265625-2.5625-.351562-.441406-.707031-.882812-1.058594-1.410156-.351562-.453125-.621094-.960937-.796875-1.5-.253906-.503906-.433593-1.039062-.527343-1.589844-.097657-.585937-.160157-1.175781-.175782-1.765624.011719-1.15625.253906-2.292969.703125-3.355469.429688-1.082031 1.058594-2.070313 1.855469-2.914063 3.539062-3.265625 8.996094-3.265625 12.535156 0 .796875.84375 1.425782 1.832032 1.851563 2.914063.453125 1.0625.695312 2.199219.707031 3.355469-.019531.589843-.078125 1.179687-.175781 1.765624-.097657.550782-.273438 1.085938-.53125 1.589844-.171875.539063-.441407 1.046875-.792969 1.5-.351562.527344-.707031.96875-1.058594 1.410156-1.691406 1.613282-3.929687 2.527344-6.269531 2.5625zm0 0"/><path d="m282.484375 405.964844c-2.335937-.039063-4.574219-.953125-6.269531-2.5625-.351563-.449219-.707032-.882813-1.058594-1.421875-.351562-.449219-.621094-.957031-.792969-1.5-.257812-.5-.433593-1.035157-.53125-1.589844-.097656-.582031-.15625-1.171875-.175781-1.765625.011719-1.15625.25-2.296875.707031-3.363281.421875-1.078125 1.050781-2.0625 1.851563-2.902344 3.535156-3.273437 9-3.273437 12.535156 0 .800781.839844 1.429688 1.824219 1.855469 2.902344.453125 1.066406.691406 2.207031.703125 3.363281-.015625.59375-.078125 1.183594-.175782 1.765625-.09375.554687-.273437 1.089844-.527343 1.589844-.175781.542969-.445313 1.050781-.796875 1.5-.351563.53125-.707032.972656-1.058594 1.421875-1.695312 1.609375-3.929688 2.523437-6.265625 2.5625zm0 0"/><path d="m326.621094 353.101562c-2.335938-.03125-4.574219-.945312-6.269532-2.558593-.351562-.441407-.703124-.882813-1.058593-1.410157-.347657-.453124-.617188-.960937-.792969-1.503906-.253906-.5-.433594-1.035156-.53125-1.585937-.097656-.585938-.15625-1.175781-.175781-1.765625.015625-1.15625.253906-2.292969.707031-3.355469.425781-1.082031 1.054688-2.070313 1.851562-2.914063 3.542969-3.265624 8.996094-3.265624 12.535157 0 .800781.84375 1.429687 1.832032 1.855469 2.914063.453124 1.0625.691406 2.199219.707031 3.355469-.019531.589844-.078125 1.179687-.175781 1.765625-.097657.550781-.277344 1.085937-.53125 1.585937-.175782.542969-.445313 1.050782-.792969 1.503906-.355469.527344-.707031.96875-1.0625 1.410157-1.691407 1.613281-3.929688 2.527343-6.265625 2.558593zm0 0"/><path d="m326.621094 300.03125c-2.335938-.035156-4.574219-.949219-6.269532-2.558594-.351562-.449218-.703124-.882812-1.058593-1.421875-.351563-.449219-.621094-.957031-.792969-1.5-.253906-.5-.433594-1.035156-.53125-1.589843-.097656-.582032-.15625-1.171876-.175781-1.765626.011719-1.15625.253906-2.300781.707031-3.363281.425781-1.078125 1.054688-2.066406 1.851562-2.902343 3.539063-3.277344 9-3.277344 12.535157 0 .800781.835937 1.429687 1.824218 1.855469 2.902343.453124 1.0625.691406 2.207031.707031 3.363281-.019531.59375-.078125 1.183594-.175781 1.765626-.097657.554687-.277344 1.089843-.53125 1.589843-.175782.542969-.441407 1.050781-.792969 1.5-.355469.53125-.707031.972657-1.0625 1.421875-1.691407 1.609375-3.929688 2.523438-6.265625 2.558594zm0 0"/><path d="m282.484375 247.171875c-2.339844-.035156-4.578125-.949219-6.269531-2.558594-.351563-.441406-.707032-.882812-1.058594-1.414062-.351562-.449219-.621094-.957031-.792969-1.5-.257812-.5-.433593-1.035157-.53125-1.589844-.097656-.582031-.15625-1.171875-.175781-1.765625.011719-1.152344.253906-2.292969.707031-3.351562.425781-1.082032 1.054688-2.070313 1.851563-2.914063 3.539062-3.265625 8.996094-3.265625 12.535156 0 .796875.84375 1.425781 1.832031 1.855469 2.914063.449219 1.058593.691406 2.199218.703125 3.351562-.015625.59375-.078125 1.183594-.175782 1.765625-.09375.554687-.273437 1.089844-.527343 1.589844-.175781.542969-.445313 1.050781-.796875 1.5-.351563.53125-.707032.972656-1.058594 1.414062-1.691406 1.609375-3.929688 2.523438-6.265625 2.558594zm0 0"/></g><path d="m512 150.070312-70.53125 47.050782c-5.804688 3.867187-12.625 5.925781-19.597656 5.914062h-331.742188c-6.972656.011719-13.792968-2.046875-19.597656-5.914062l-70.53125-47.050782zm0 0" fill="#e64c3c"/></svg>