<svg height="512pt" viewBox="0 0 512 512" width="512pt" xmlns="http://www.w3.org/2000/svg"><path d="m35.308594 105.929688h-17.652344c-9.75 0-17.65625 7.90625-17.65625 17.65625v26.484374h512v-26.484374c0-9.75-7.90625-17.65625-17.65625-17.65625zm0 0" fill="#c03a2b"/><path d="m0 150.070312h512v344.273438c0 9.75-7.90625 17.65625-17.65625 17.65625h-476.6875c-9.75 0-17.65625-7.90625-17.65625-17.65625zm0 0" fill="#c03a2b"/><path d="m35.308594 35.308594h441.382812v114.761718h-441.382812zm0 0" fill="#802f34"/><path d="m52.964844 0h406.070312c9.75 0 17.65625 7.90625 17.65625 17.65625v17.652344h-441.382812v-17.652344c0-9.75 7.90625-17.65625 17.65625-17.65625zm0 0" fill="#e64c3c"/><path d="m421.84375 203.035156h-331.6875c-6.980469 0-13.808594-2.066406-19.613281-5.941406l-70.542969-47.023438h512l-70.542969 47.023438c-5.804687 3.875-12.632812 5.941406-19.613281 5.941406zm0 0" fill="#e64c3c"/><path d="m329.535156 149.890625v.179687h-91.191406l-2.027344-2.5625 49.699219-38.488281 14.121094-10.945312c12.199219 15.796875 22.09375 33.242187 29.398437 51.816406zm0 0" fill="#c03a2b"/><path d="m310.203125 150.070312h-71.859375l-2.027344-2.5625 49.699219-38.488281c9.65625 12.679688 17.773437 26.457031 24.1875 41.050781zm0 0" fill="#f0c419"/><path d="m329.535156 150.070312v-.179687c-7.304687-18.574219-17.199218-36.019531-29.398437-51.816406l22.601562-16.773438c1.898438-1.460937 4.304688-2.097656 6.679688-1.765625 2.375.332032 4.515625 1.605469 5.941406 3.53125 14.597656 20.378906 25.75 43.011719 33.015625 67.003906zm0 0" fill="#f29c1f"/><path d="m397.242188 273.65625 21.617187-16.171875c2.972656-1.992187 6.851563-1.992187 9.824219 0l16.613281 14.695313c2.972656 1.988281 6.847656 1.988281 9.816406 0l7.8125-5.886719c2.714844-1.828125 6.214844-2.007813 9.101563-.464844 2.882812 1.542969 4.679687 4.554687 4.664062 7.828125v176.550781c.015625 3.269531-1.78125 6.285157-4.664062 7.828125-2.886719 1.542969-6.386719 1.363282-9.101563-.464844l-7.8125-5.84375c-2.96875-1.988281-6.84375-1.988281-9.816406 0l-16.664063 14.679688c-2.972656 1.984375-6.847656 1.984375-9.816406 0l-15.535156-14.691406c-3.507812-2.347656-8.1875-1.886719-11.167969 1.105468l-6.269531 6.265626c-1.65625 1.667968-3.90625 2.605468-6.257812 2.605468-2.347657 0-4.601563-.9375-6.257813-2.605468l-6.269531-6.265626c-2.976563-2.992187-7.660156-3.453124-11.164063-1.105468l-15.539062 14.691406c-2.96875 1.984375-6.84375 1.984375-9.816407 0l-16.664062-14.679688c-2.972656-1.988281-6.847656-1.988281-9.816406 0l-7.8125 5.84375c-2.714844 1.828126-6.214844 2.007813-9.101563.464844-2.882812-1.542968-4.675781-4.558594-4.660156-7.828125v-176.550781c-.015625-3.273438 1.777344-6.285156 4.660156-7.828125 2.886719-1.542969 6.386719-1.363281 9.101563.464844l7.8125 5.851562c2.96875 1.988281 6.84375 1.988281 9.816406 0l16.710938-14.695312c2.972656-1.992188 6.851562-1.992188 9.824218 0l21.519532 16.207031" fill="#7ed09e"/><g fill="#464f5d"><path d="m406.070312 423.722656c-4.875 0-8.828124-3.949218-8.828124-8.824218v-70.621094c0-14.628906 11.855468-26.484375 26.480468-26.484375 14.628906 0 26.484375 11.855469 26.484375 26.484375 0 4.875-3.953125 8.824218-8.828125 8.824218s-8.828125-3.949218-8.828125-8.824218-3.953125-8.828125-8.828125-8.828125-8.824218 3.953125-8.824218 8.828125v70.621094c0 4.875-3.953126 8.824218-8.828126 8.824218zm0 0"/><path d="m423.722656 388.414062h-35.308594c-4.875 0-8.828124-3.953124-8.828124-8.828124s3.953124-8.828126 8.828124-8.828126h35.308594c4.875 0 8.828125 3.953126 8.828125 8.828126s-3.953125 8.828124-8.828125 8.828124zm0 0"/><path d="m441.378906 423.722656h-52.964844c-4.875 0-8.828124-3.949218-8.828124-8.824218 0-4.878907 3.953124-8.828126 8.828124-8.828126h52.964844c4.875 0 8.828125 3.949219 8.828125 8.828126 0 4.875-3.953125 8.824218-8.828125 8.824218zm0 0"/><path d="m326.621094 326.621094h-8.828125c-4.875 0-8.828125-3.953125-8.828125-8.828125s3.953125-8.828125 8.828125-8.828125h8.828125c4.875 0 8.828125 3.953125 8.828125 8.828125s-3.953125 8.828125-8.828125 8.828125zm0 0"/><path d="m344.277344 361.929688h-26.484375c-4.875 0-8.828125-3.949219-8.828125-8.828126 0-4.875 3.953125-8.824218 8.828125-8.824218h26.484375c4.875 0 8.824218 3.949218 8.824218 8.824218 0 4.878907-3.949218 8.828126-8.824218 8.828126zm0 0"/><path d="m344.277344 397.242188h-26.484375c-4.875 0-8.828125-3.953126-8.828125-8.828126s3.953125-8.828124 8.828125-8.828124h26.484375c4.875 0 8.824218 3.953124 8.824218 8.828124s-3.949218 8.828126-8.824218 8.828126zm0 0"/></g><path d="m370.757812 238.34375h17.65625c4.875 0 8.828126 3.953125 8.828126 8.828125v35.3125c0 4.875-3.953126 8.824219-8.828126 8.824219h-17.65625c-4.875 0-8.828124-3.949219-8.828124-8.824219v-35.3125c0-4.875 3.953124-8.828125 8.828124-8.828125zm0 0" fill="#ecf0f1"/></svg>