<svg height="512pt" viewBox="0 0 512 512" width="512pt" xmlns="http://www.w3.org/2000/svg"><path d="m335.449219 35.308594v219.457031l-45.726563 221.925781h-272.066406v-441.382812zm0 0" fill="#7f5b53"/><path d="m52.964844 35.308594h247.171875v441.382812h-247.171875zm0 0" fill="#af8066"/><path d="m256 450.207031h-158.898438c-9.75 0-17.652343-7.90625-17.652343-17.65625v-105.929687c0-9.75 7.902343-17.65625 17.652343-17.65625h158.898438c7.964844-.535156 15.941406.824218 23.277344 3.964844 2.03125 1.675781 3.207031 4.171874 3.207031 6.804687v119.703125c0 2.632812-1.175781 5.128906-3.207031 6.804688-7.335938 3.140624-15.3125 4.5-23.277344 3.964843zm-158.898438-123.585937v105.929687h158.898438c1.234375 0 5.296875-.21875 8.828125-.527343v-104.875c-3.53125-.308594-7.59375-.527344-8.828125-.527344zm0 0" fill="#7f5b53"/><path d="m289.722656 476.691406h-280.894531c-4.875 0-8.828125 3.949219-8.828125 8.824219v26.484375h353.101562v-2.648438zm0 0" fill="#59474e"/><path d="m512 379.585938c0 73.128906-59.285156 132.414062-132.414062 132.414062-73.128907 0-132.414063-59.285156-132.414063-132.414062 0-73.128907 59.285156-132.414063 132.414063-132.414063 73.128906 0 132.414062 59.285156 132.414062 132.414063zm0 0" fill="#2fa8cc"/><path d="m476.691406 379.585938c0 3-.179687 5.914062-.441406 8.828124-4.277344 46.625-41.210938 83.558594-87.835938 87.835938-2.914062.261719-5.828124.441406-8.828124.441406s-5.914063-.179687-8.828126-.441406c-46.679687-4.15625-83.679687-41.15625-87.832031-87.835938-.265625-2.914062-.441406-5.828124-.441406-8.828124s.175781-5.914063.441406-8.828126c4.273438-46.625 41.207031-83.558593 87.832031-87.832031 2.914063-.265625 5.828126-.441406 8.828126-.441406s5.914062.175781 8.828124.441406c45.96875 4.191407 82.625 40.183594 87.65625 86.066407.089844.617187.089844 1.148437.179688 1.765624.261719 2.914063.441406 5.828126.441406 8.828126zm0 0" fill="#b0d3f0"/><path d="m476.691406 379.585938c0 3-.179687 5.914062-.441406 8.828124-4.277344 46.625-41.210938 83.558594-87.835938 87.835938-2.914062.261719-5.828124.441406-8.828124.441406s-5.914063-.179687-8.828126-.441406c-32.902343-3.023438-62.023437-22.535156-77.328124-51.820312 38.132812-48.460938 97.632812-88.628907 182.640624-55.4375.089844.617187.089844 1.148437.179688 1.765624.261719 2.914063.441406 5.828126.441406 8.828126zm0 0" fill="#90bae1"/><path d="m335.449219 8.828125v26.480469h-317.792969v-26.480469c0-4.875 3.949219-8.828125 8.828125-8.828125h300.136719c4.875 0 8.828125 3.953125 8.828125 8.828125zm0 0" fill="#59474e"/><g fill="#285680"><path d="m388.414062 282.925781v17.210938c0 4.875-3.953124 8.828125-8.828124 8.828125s-8.828126-3.953125-8.828126-8.828125v-17.210938c2.914063-.265625 5.828126-.441406 8.828126-.441406s5.914062.175781 8.828124.441406zm0 0"/><path d="m388.414062 459.035156v17.214844c-2.914062.261719-5.828124.441406-8.828124.441406s-5.914063-.179687-8.828126-.441406v-17.214844c0-4.875 3.953126-8.828125 8.828126-8.828125s8.828124 3.953125 8.828124 8.828125zm0 0"/><path d="m308.964844 379.585938c0 4.875-3.953125 8.828124-8.828125 8.828124h-17.210938c-.265625-2.914062-.441406-5.828124-.441406-8.828124s.175781-5.914063.441406-8.828126h17.210938c4.875 0 8.828125 3.953126 8.828125 8.828126zm0 0"/><path d="m476.691406 379.585938c0 3-.179687 5.914062-.441406 8.828124h-17.214844c-4.875 0-8.828125-3.953124-8.828125-8.828124s3.953125-8.828126 8.828125-8.828126h17.214844c.261719 2.914063.441406 5.828126.441406 8.828126zm0 0"/><path d="m423.722656 432.550781c-2.339844 0-4.585937-.929687-6.238281-2.585937l-44.140625-44.136719c-1.652344-1.65625-2.585938-3.902344-2.585938-6.242187v-44.136719c0-4.875 3.953126-8.828125 8.828126-8.828125s8.828124 3.953125 8.828124 8.828125v40.480469l41.550782 41.554687c2.523437 2.523437 3.277344 6.320313 1.914062 9.617187-1.367187 3.296876-4.585937 5.449219-8.15625 5.449219zm0 0"/></g><path d="m123.585938 264.828125c0 9.75-7.902344 17.65625-17.65625 17.65625-9.75 0-17.652344-7.90625-17.652344-17.65625s7.902344-17.65625 17.652344-17.65625c9.753906 0 17.65625 7.90625 17.65625 17.65625zm0 0" fill="#464f5d"/><path d="m97.101562 70.621094h52.96875c4.875 0 8.828126 3.953125 8.828126 8.828125v123.585937c0 4.875-3.953126 8.828125-8.828126 8.828125h-52.96875c-4.875 0-8.824218-3.953125-8.824218-8.828125v-123.585937c0-4.875 3.949218-8.828125 8.824218-8.828125zm0 0" fill="#b0d3f0"/><path d="m203.035156 70.621094h52.964844c4.875 0 8.828125 3.953125 8.828125 8.828125v123.585937c0 4.875-3.953125 8.828125-8.828125 8.828125h-52.964844c-4.875 0-8.828125-3.953125-8.828125-8.828125v-123.585937c0-4.875 3.953125-8.828125 8.828125-8.828125zm0 0" fill="#b0d3f0"/><path d="m194.207031 273.65625h-35.308593c-4.878907 0-8.828126-3.953125-8.828126-8.828125s3.949219-8.828125 8.828126-8.828125h35.308593c4.875 0 8.828125 3.953125 8.828125 8.828125s-3.953125 8.828125-8.828125 8.828125zm0 0" fill="#7f5b53"/></svg>