<svg height="512pt" viewBox="0 0 512 512" width="512pt" xmlns="http://www.w3.org/2000/svg"><path d="m503.171875 441.378906h-88.273437v-61.792968c0-4.875-3.953126-8.828126-8.828126-8.828126h-17.65625v-353.101562c0-9.75-7.90625-17.65625-17.65625-17.65625h-229.515624c-9.75 0-17.65625 7.90625-17.65625 17.65625v353.101562h-17.65625c-4.875 0-8.828126 3.953126-8.828126 8.828126v61.792968h-88.273437c-4.875 0-8.828125 3.953125-8.828125 8.828125v52.964844c0 4.875 3.953125 8.828125 8.828125 8.828125h494.34375c4.875 0 8.828125-3.953125 8.828125-8.828125v-52.964844c0-4.875-3.953125-8.828125-8.828125-8.828125zm0 0" fill="#d25627"/><path d="m432.550781 114.757812h52.964844c4.878906 0 8.828125 3.953126 8.828125 8.828126v79.449218c0 4.875-3.949219 8.828125-8.828125 8.828125h-52.964844c-4.875 0-8.828125-3.953125-8.828125-8.828125v-79.449218c0-4.875 3.953125-8.828126 8.828125-8.828126zm0 0" fill="#d25627"/><path d="m414.898438 441.378906h88.273437c4.875 0 8.828125 3.953125 8.828125 8.828125v52.964844c0 4.875-3.953125 8.828125-8.828125 8.828125h-494.34375c-4.875 0-8.828125-3.953125-8.828125-8.828125v-52.964844c0-4.875 3.953125-8.828125 8.828125-8.828125zm0 0" fill="#bdc3c7"/><path d="m388.414062 406.070312h26.484376v35.308594h-317.796876v-35.308594zm0 0" fill="#d25627"/><path d="m388.414062 370.757812h17.65625c4.875 0 8.828126 3.953126 8.828126 8.828126v26.484374h-317.796876v-26.484374c0-4.875 3.953126-8.828126 8.828126-8.828126zm0 0" fill="#e57e25"/><path d="m185.378906 370.757812h-61.792968v-353.101562c0-9.75 7.90625-17.65625 17.65625-17.65625h229.515624c9.75 0 17.65625 7.90625 17.65625 17.65625v353.101562h-61.792968" fill="#f29c1f"/><g fill="#b0d3f0"><path d="m353.101562 44.136719v52.964843c0 4.878907-3.949218 8.828126-8.824218 8.828126h-176.554688c-4.875 0-8.824218-3.949219-8.824218-8.828126v-52.964843c0-4.875 3.949218-8.828125 8.824218-8.828125h176.554688c4.875 0 8.824218 3.953125 8.824218 8.828125zm0 0"/><path d="m238.34375 141.242188h105.933594c4.875 0 8.824218 3.953124 8.824218 8.828124v52.964844c0 4.875-3.949218 8.828125-8.824218 8.828125h-105.933594c-4.875 0-8.828125-3.953125-8.828125-8.828125v-52.964844c0-4.875 3.953125-8.828124 8.828125-8.828124zm0 0"/><path d="m353.101562 256v35.308594c0 4.878906-3.949218 8.828125-8.824218 8.828125h-176.554688c-4.875 0-8.824218-3.949219-8.824218-8.828125v-35.308594c0-4.875 3.949218-8.828125 8.824218-8.828125h176.554688c4.875 0 8.824218 3.953125 8.824218 8.828125zm0 0"/></g><path d="m194.207031 176.550781c0 9.75-7.90625 17.65625-17.65625 17.65625s-17.652343-7.90625-17.652343-17.65625 7.902343-17.652343 17.652343-17.652343 17.65625 7.902343 17.65625 17.652343zm0 0" fill="#d25627"/><path d="m335.449219 370.757812h-158.898438l15.21875-30.4375c1.496094-2.984374 4.546875-4.867187 7.882813-4.871093h112.695312c3.335938.003906 6.386719 1.886719 7.882813 4.871093zm0 0" fill="#f5efca"/><path d="m335.449219 370.757812h-158.898438l16.445313 98.691407c.699218 4.175781 4.3125 7.238281 8.546875 7.242187h108.914062c4.234375-.003906 7.847657-3.066406 8.546875-7.242187zm0 0" fill="#f9eab0"/><path d="m282.402344 406.070312c2.800781-.03125 5.445312 1.273438 7.121094 3.511719 1.679687 2.238281 2.1875 5.144531 1.371093 7.820313-5.519531 14.4375-19.371093 23.972656-34.828125 23.972656-15.457031 0-29.308594-9.535156-34.828125-23.972656-.816406-2.675782-.308593-5.582032 1.367188-7.820313 1.679687-2.238281 4.324219-3.542969 7.125-3.511719zm0 0" fill="#fac176"/><path d="m432.550781 114.757812h52.964844c4.878906 0 8.828125 3.953126 8.828125 8.828126v79.449218c0 4.875-3.949219 8.828125-8.828125 8.828125h-52.964844c-4.875 0-8.828125-3.953125-8.828125-8.828125v-79.449218c0-4.875 3.953125-8.828126 8.828125-8.828126zm0 0" fill="#f29c1f"/><path d="m459.035156 185.378906c-4.875 0-8.828125-3.953125-8.828125-8.828125v-26.480469c0-4.875 3.953125-8.828124 8.828125-8.828124s8.828125 3.953124 8.828125 8.828124v26.480469c0 4.875-3.953125 8.828125-8.828125 8.828125zm0 0" fill="#d25627"/></svg>