<svg height="512pt" viewBox="0 0 512 512" width="512pt" xmlns="http://www.w3.org/2000/svg"><path d="m476.691406 335.449219-35.3125-17.65625-30.894531 17.65625-30.898437-17.65625-35.308594 17.65625-19.511719-9.710938 7.152344-9.269531c4.875-14.414062 6.324219-29.769531 4.238281-44.84375 27.539062 7.945312 27.539062-8.738281 27.539062-25.421875 0-16.6875 28.25-33.546875 9.445313-50.320313-5.324219-5.617187-12.378906-9.285156-20.039063-10.414062v-49.699219l-.085937-.117187v-91.515625c0-11.703125-4.652344-22.929688-12.929687-31.210938-8.277344-8.277343-19.503907-12.925781-31.207032-12.925781h-141.15625c-24.375 0-44.136718 19.761719-44.136718 44.136719v141.332031c-7.65625 1.128906-14.714844 4.796875-20.039063 10.414062-18.800781 16.773438 9.445313 33.546876 9.445313 50.320313 0 16.769531 0 33.367187 27.542968 25.421875-1.058594 23.921875-3.707031 45.375 22.6875 70.003906 1.589844 1.5 3.089844 3 4.5 4.414063v15.886719c-11.191406 8.667968-23.480468 15.820312-36.542968 21.277343-5.828126 2.386719-11.894532 4.132813-18.097657 5.207031-8.683593 1.621094-17.171875 4.132813-25.335937 7.503907-13.246094 5.375-26.082032 11.71875-38.398438 18.980469 0 0-39.460937 26.480468-49.347656 70.617187v17.65625c0 4.875 3.953125 8.828125 8.828125 8.828125h300.136719l35.3125-17.65625 35.308594 17.65625 30.898437-17.65625 30.894531 17.65625 35.3125-17.65625 35.308594 17.65625v-194.207031zm0 0" fill="#fdd7ad"/><path d="m308.964844 346.042969v122.082031c-10.414063 5.625-22.0625 8.570312-33.898438 8.566406h-73.445312c-33.085938.253906-61.835938-22.683594-68.941406-54.996094-2.339844-12.691406-2.84375-25.65625-1.5-38.488281 13.0625-5.457031 25.351562-12.609375 36.542968-21.277343v-15.886719c3.414063 3.523437 6.628906 7.234375 9.625 11.121093 16.949219 21.980469 21.539063 40.429688 45.992188 40.429688h30.011718c28.511719 0 30.015626-25.070312 55.613282-51.550781zm0 0" fill="#f09372"/><path d="m353.101562 185.46875c7.660157 1.128906 14.714844 4.796875 20.039063 10.414062 18.804687 16.773438-9.445313 33.546876-9.445313 50.320313 0 16.769531 0 33.367187-27.539062 25.421875h-195.621094c-27.542968 7.945312-27.542968-8.738281-27.542968-25.421875 0-16.6875-28.246094-33.546875-9.445313-50.320313 5.324219-5.617187 12.382813-9.285156 20.039063-10.414062zm0 0" fill="#f09372"/><path d="m353.015625 141.152344v-97.015625c0-11.703125-4.652344-22.929688-12.929687-31.210938-8.277344-8.277343-19.503907-12.925781-31.207032-12.925781h-141.15625c-24.375 0-44.136718 19.761719-44.136718 44.136719v97.105469zm0 0" fill="#f29c1f"/><path d="m335.449219 141.152344v-97.015625c0-24.363281-16.773438-44.136719-37.359375-44.136719h-119.488282c-20.585937 0-37.359374 19.773438-37.359374 44.136719v97.105469zm0 0" fill="#f0c419"/><path d="m353.101562 135.769531v57.023438c.023438 2.550781-.984374 5.003906-2.796874 6.796875-1.8125 1.796875-4.273438 2.785156-6.824219 2.738281-2.160157.023437-4.257813-.726563-5.914063-2.117187-28.679687-21.140626-63.605468-32.078126-99.222656-31.074219-35.589844-1.046875-70.515625 9.828125-99.222656 30.894531-1.652344 1.402344-3.746094 2.183594-5.914063 2.207031-2.539062.019531-4.984375-.976562-6.789062-2.765625-1.804688-1.789062-2.824219-4.226562-2.832031-6.765625v-56.9375c18.714843-27.453125 63.117187-47.492187 114.757812-47.492187 51.464844 0 95.867188 20.214844 114.757812 47.492187zm0 0" fill="#e57e25"/><path d="m176.550781 397.59375c-4.875 0-8.828125-3.953125-8.828125-8.828125v-35.664063c0-4.875 3.953125-8.824218 8.828125-8.824218s8.828125 3.949218 8.828125 8.824218v35.664063c0 4.875-3.953125 8.828125-8.828125 8.828125zm0 0" fill="#f0785a"/><path d="m308.964844 468.125v43.875h-220.6875v-114.757812l-.53125-1.324219c8.164062-3.371094 16.652344-5.882813 25.335937-7.503907 6.203125-1.074218 12.269531-2.820312 18.097657-5.207031-1.34375 12.832031-.839844 25.796875 1.5 38.488281 7.105468 32.3125 35.855468 55.25 68.941406 54.996094h73.445312c11.835938.003906 23.484375-2.941406 33.898438-8.566406zm0 0" fill="#35495e"/><path d="m88.277344 397.242188v114.757812h-79.449219c-4.875 0-8.828125-3.953125-8.828125-8.828125v-17.65625c9.886719-44.136719 49.347656-70.617187 49.347656-70.617187 12.316406-7.261719 25.152344-13.605469 38.398438-18.980469zm0 0" fill="#2c3e50"/><path d="m336.15625 271.625c2.085938 15.074219.636719 30.429688-4.238281 44.84375l-7.152344 9.269531-15.800781 20.304688c-25.597656 26.480469-27.101563 51.550781-55.613282 51.550781h-30.011718c-24.453125 0-29.042969-18.449219-45.992188-40.429688-2.996094-3.886718-6.210937-7.597656-9.625-11.121093-1.410156-1.414063-2.910156-2.914063-4.5-4.414063-26.394531-24.628906-23.746094-46.082031-22.6875-70.003906.089844-3.265625.175782-6.53125.175782-9.976562 0-19.242188-5.382813-29.042969-7.503907-59.410157 2.167969-.023437 4.261719-.804687 5.914063-2.207031 28.707031-21.066406 63.632812-31.941406 99.222656-30.894531 35.617188-1.003907 70.542969 9.933593 99.222656 31.074219 1.65625 1.390624 3.753906 2.140624 5.914063 2.117187-2.117188 30.277344-7.503907 40.078125-7.503907 59.320313 0 3.445312.089844 6.710937.179688 9.976562zm0 0" fill="#fdd7ad"/><path d="m238.34375 70.621094c-14.625 0-26.480469-11.855469-26.480469-26.484375 0-14.625 11.855469-26.480469 26.480469-26.480469 14.628906 0 26.484375 11.855469 26.484375 26.480469 0 7.023437-2.789063 13.761719-7.757813 18.726562-4.964843 4.96875-11.703124 7.757813-18.726562 7.757813zm0 0" fill="#e57e25"/><path d="m220.691406 52.964844h-17.65625c-4.875 0-8.828125-3.953125-8.828125-8.828125s3.953125-8.828125 8.828125-8.828125h17.65625c4.875 0 8.824219 3.953125 8.824219 8.828125s-3.949219 8.828125-8.824219 8.828125zm0 0" fill="#e57e25"/><path d="m273.65625 52.964844h-17.65625c-4.875 0-8.828125-3.953125-8.828125-8.828125s3.953125-8.828125 8.828125-8.828125h17.65625c4.875 0 8.828125 3.953125 8.828125 8.828125s-3.953125 8.828125-8.828125 8.828125zm0 0" fill="#e57e25"/><path d="m308.964844 511.957031 35.3125-17.613281 35.308594 17.65625 30.898437-17.65625 30.894531 17.65625 35.3125-17.65625 35.308594 17.65625v-194.207031l-35.308594 17.65625-35.3125-17.65625-30.894531 17.65625-30.898437-17.65625-35.308594 17.65625-19.511719-9.710938-15.800781-7.855469zm0 0" fill="#14a085"/><g fill="#2c3e50"><path d="m438.175781 467.863281c-4.875 0-8.828125-3.953125-8.828125-8.828125v-70.621094c.457032-14.738281 12.539063-26.445312 27.28125-26.445312 14.742188 0 26.824219 11.707031 27.28125 26.445312 0 4.875-3.953125 8.828126-8.828125 8.828126s-8.828125-3.953126-8.828125-8.828126c-.453125-4.980468-4.625-8.792968-9.625-8.792968s-9.171875 3.8125-9.625 8.792968v70.621094c0 4.875-3.953125 8.828125-8.828125 8.828125zm0 0"/><path d="m456.632812 432.550781h-36.917968c-4.875 0-8.824219-3.953125-8.824219-8.828125s3.949219-8.824218 8.824219-8.824218h36.917968c4.875 0 8.828126 3.949218 8.828126 8.824218s-3.953126 8.828125-8.828126 8.828125zm0 0"/><path d="m475.082031 467.863281h-55.367187c-4.875 0-8.824219-3.953125-8.824219-8.828125s3.949219-8.828125 8.824219-8.828125h55.367187c4.875 0 8.828125 3.953125 8.828125 8.828125s-3.953125 8.828125-8.828125 8.828125zm0 0"/><path d="m355.117188 370.757812h-9.234376c-4.875 0-8.828124-3.953124-8.828124-8.828124s3.953124-8.828126 8.828124-8.828126h9.234376c4.875 0 8.828124 3.953126 8.828124 8.828126s-3.953124 8.828124-8.828124 8.828124zm0 0"/><path d="m373.566406 406.070312h-27.683594c-4.875 0-8.828124-3.953124-8.828124-8.828124s3.953124-8.828126 8.828124-8.828126h27.683594c4.875 0 8.828125 3.953126 8.828125 8.828126s-3.953125 8.828124-8.828125 8.828124zm0 0"/><path d="m373.566406 441.378906h-27.683594c-4.875 0-8.828124-3.953125-8.828124-8.828125s3.953124-8.828125 8.828124-8.828125h27.683594c4.875 0 8.828125 3.953125 8.828125 8.828125s-3.953125 8.828125-8.828125 8.828125zm0 0"/></g></svg>