<svg height="512pt" viewBox="0 0 512 512" width="512pt" xmlns="http://www.w3.org/2000/svg"><path d="m512 396.5v-17.65625c0-4.875-3.953125-8.828125-8.828125-8.828125h-150.070313v-1.941406c-5.839843-21.042969-18.703124-39.453125-36.457031-52.171875-14.613281-8.832032-30.472656-15.410156-47.050781-19.507813-4.605469-.777343-9.109375-2.082031-13.417969-3.886719-.277343-.078124-.546875-.199218-.792969-.351562-9.242187-3.886719-17.933593-8.960938-25.867187-15.09375v-24.984375c1.503906-1.675781 3.089844-3.265625 4.855469-4.941406 10.171875-8.605469 16.519531-20.890625 17.65625-34.164063.335937-5.910156.277344-11.839844-.175782-17.742187v-.265625c0-.707032-.089843-1.5-.089843-2.207032 0-2.558593-.085938-5.121093-.085938-7.769531.574219-10.328125 1.929688-20.597656 4.058594-30.71875.707031-4.324219 1.238281-9.355469 1.679687-15.359375 3.835938.203125 7.128907-2.699218 7.414063-6.535156v-39.191406c-.386719-.492188-.800781-.964844-1.238281-1.414063l1.148437-.96875v-60.472656c-1.039062-17.699219-16.1875-31.234375-33.898437-30.2773438h-108.578125c-17.734375-.9921872-32.933594 12.5468748-33.984375 30.2773438v60.558594l1.144531.972656c-.40625.417969-.789063.859375-1.144531 1.324219v39.105468c.105468 1.851563.953125 3.585938 2.34375 4.8125 1.394531 1.226563 3.21875 1.84375 5.070312 1.71875.441406 6.003907.96875 11.035157 1.675782 15.359376 2.125 10.15625 3.480468 20.453124 4.0625 30.808593 0 2.648438-.089844 5.210938-.089844 7.769531 0 .707032-.085938 1.5-.085938 2.207032v.265625c-.457031 5.902343-.515625 11.832031-.179687 17.742187 1.140625 13.273438 7.488281 25.558594 17.65625 34.164063 1.765625 1.675781 3.355469 3.265625 4.855469 4.941406v24.984375c-8.15625 6.316406-17.121094 11.511719-26.660157 15.445312-4.308593 1.804688-8.808593 3.109376-13.417969 3.886719-16.574218 4.097657-32.4375 10.675781-47.050781 19.507813-17.75 12.71875-30.617187 31.128906-36.457031 52.171875v134.355469c0 4.875 3.953125 8.828124 8.828125 8.828124h494.34375c4.875 0 8.828125-3.953124 8.828125-8.828124v-17.65625c0-4.875-3.953125-8.828126-8.828125-8.828126 4.875 0 8.828125-3.949218 8.828125-8.828124v-17.652344c0-4.875-3.953125-8.828125-8.828125-8.828125 4.875 0 8.828125-3.953125 8.828125-8.828125v-17.65625c0-4.875-3.953125-8.828125-8.828125-8.828125 4.875 0 8.828125-3.949219 8.828125-8.824219zm0 0" fill="#fdd7ad"/><path d="m353.101562 368.074219v1.941406h-61.792968c-4.875 0-8.824219 3.953125-8.824219 8.828125v17.65625c0 4.875 3.949219 8.824219 8.824219 8.824219-4.875 0-8.824219 3.953125-8.824219 8.828125v17.65625c0 4.875 3.949219 8.828125 8.824219 8.828125-4.875 0-8.824219 3.953125-8.824219 8.828125v17.652344c0 4.878906 3.949219 8.828124 8.824219 8.828124-4.875 0-8.824219 3.953126-8.824219 8.828126l17.652344 26.484374h-70.621094v-105.933593c0-4.875-3.949219-8.824219-8.824219-8.824219h-88.277344c-4.875 0-8.828124 3.949219-8.828124 8.824219v105.933593h-52.964844v-123.585937h-70.621094v-19.597656c5.839844-21.042969 18.707031-39.453125 36.457031-52.171875 14.613281-8.832032 30.476563-15.410156 47.050781-19.507813 4.609376-.777343 9.109376-2.082031 13.417969-3.886719-1.074219 9.480469-.6875 19.066407 1.148438 28.425782 5.195312 23.882812 26.40625 40.863281 50.847656 40.695312h54.289063c24.449218.140625 45.675781-16.816406 50.933593-40.695312 1.769531-9.367188 2.125-18.949219 1.0625-28.425782l.175781-.351562c.246094.152344.515626.273438.792969.351562 4.308594 1.804688 8.8125 3.109376 13.417969 3.886719 16.578125 4.097657 32.4375 10.675781 47.050781 19.507813 17.753907 12.71875 30.617188 31.128906 36.457031 52.171875zm0 0" fill="#35495e"/><path d="m0 387.671875h70.621094v35.308594h-70.621094zm0 0" fill="#2c3e50"/><path d="m70.621094 422.980469v88.277343h-61.792969c-4.875 0-8.828125-3.953124-8.828125-8.828124v-79.449219zm0 0" fill="#f09372"/><path d="m52.964844 422.980469v88.277343h-44.136719c-4.875 0-8.828125-3.953124-8.828125-8.828124v-79.449219zm0 0" fill="#fdd7ad"/><path d="m229.515625 405.324219v105.933593h-105.929687v-105.933593c0-4.875 3.953124-8.824219 8.828124-8.824219h88.277344c4.875 0 8.824219 3.949219 8.824219 8.824219zm0 0" fill="#2c3e50"/><path d="m254.144531 320.933594c-5.257812 23.878906-26.484375 40.835937-50.933593 40.695312h-54.289063c-24.441406.167969-45.652344-16.8125-50.847656-40.695312-1.835938-9.359375-2.222657-18.945313-1.148438-28.425782 9.539063-3.933593 18.503907-9.128906 26.660157-15.445312v-24.984375c6.71875 7.875 12.851562 16.222656 18.363281 24.984375 4.558593 8.445312 13.441406 13.652344 23.039062 13.503906h23.128907c9.597656.148438 18.476562-5.058594 23.039062-13.503906 5.507812-8.761719 11.644531-17.109375 18.359375-24.984375v24.984375c7.933594 6.132812 16.625 11.207031 25.867187 15.09375l-.175781.351562c1.0625 9.476563.707031 19.058594-1.0625 28.425782zm0 0" fill="#f09372"/><path d="m291.308594 475.945312h211.863281c4.875 0 8.828125 3.953126 8.828125 8.828126v17.65625c0 4.875-3.953125 8.828124-8.828125 8.828124h-211.863281c-4.875 0-8.824219-3.953124-8.824219-8.828124v-17.65625c0-4.875 3.949219-8.828126 8.824219-8.828126zm0 0" fill="#c03a2b"/><path d="m291.308594 440.636719h211.863281c4.875 0 8.828125 3.953125 8.828125 8.828125v17.652344c0 4.878906-3.953125 8.828124-8.828125 8.828124h-211.863281c-4.875 0-8.824219-3.949218-8.824219-8.828124v-17.652344c0-4.875 3.949219-8.828125 8.824219-8.828125zm0 0" fill="#e64c3c"/><path d="m291.308594 405.324219h211.863281c4.875 0 8.828125 3.953125 8.828125 8.828125v17.65625c0 4.875-3.953125 8.828125-8.828125 8.828125h-211.863281c-4.875 0-8.824219-3.953125-8.824219-8.828125v-17.65625c0-4.875 3.949219-8.828125 8.824219-8.828125zm0 0" fill="#c03a2b"/><path d="m291.308594 370.015625h211.863281c4.875 0 8.828125 3.953125 8.828125 8.828125v17.65625c0 4.875-3.953125 8.824219-8.828125 8.824219h-211.863281c-4.875 0-8.824219-3.949219-8.824219-8.824219v-17.65625c0-4.875 3.949219-8.828125 8.824219-8.828125zm0 0" fill="#e64c3c"/><g fill="#95a5a5"><path d="m409.714844 334.707031c-1.535156 0-3.039063-.402343-4.371094-1.167969-2.03125-1.160156-3.523438-3.082031-4.136719-5.34375-.617187-2.257812-.308593-4.671874.855469-6.703124 3.308594-7.003907 3.308594-15.121094 0-22.125-6.460938-12.429688-6.460938-27.230469 0-39.660157 1.523438-2.820312 4.453125-4.589843 7.65625-4.628906 3.203125-.042969 6.175781 1.65625 7.769531 4.4375 1.589844 2.78125 1.550781 6.203125-.101562 8.949219-3.3125 7.007812-3.3125 15.128906 0 22.136718 6.46875 12.429688 6.46875 27.234376 0 39.664063-1.574219 2.75-4.503907 4.445313-7.671875 4.441406zm0 0"/><path d="m365.578125 334.707031c-1.535156 0-3.042969-.402343-4.371094-1.167969-2.035156-1.160156-3.523437-3.082031-4.140625-5.34375-.613281-2.257812-.304687-4.671874.855469-6.703124 3.3125-7.003907 3.3125-15.121094 0-22.125-6.460937-12.429688-6.460937-27.230469 0-39.660157 1.523437-2.820312 4.457031-4.589843 7.660156-4.628906 3.203125-.042969 6.175781 1.65625 7.765625 4.4375 1.59375 2.78125 1.554688 6.203125-.101562 8.949219-3.308594 7.007812-3.308594 15.128906 0 22.136718 6.472656 12.429688 6.472656 27.234376 0 39.664063-1.574219 2.75-4.5 4.445313-7.667969 4.441406zm0 0"/><path d="m453.96875 334.707031c-1.550781.007813-3.074219-.394531-4.414062-1.167969-2.035157-1.160156-3.523438-3.082031-4.140626-5.34375-.617187-2.257812-.308593-4.671874.855469-6.703124 3.308594-7.003907 3.308594-15.121094 0-22.125-6.460937-12.429688-6.460937-27.230469 0-39.660157 1.570313-2.753906 4.492188-4.460937 7.660157-4.476562 3.171874-.015625 6.109374 1.660156 7.707031 4.394531 1.597656 2.738281 1.617187 6.121094.046875 8.875-3.289063 6.988281-3.289063 15.078125 0 22.066406 6.460937 12.433594 6.460937 27.230469 0 39.664063-1.574219 2.777343-4.523438 4.488281-7.714844 4.476562zm0 0"/></g><path d="m132.414062 308.222656c-4.875 0-8.828124-3.953125-8.828124-8.828125v-52.964843c0-4.875 3.953124-8.828126 8.828124-8.828126s8.828126 3.953126 8.828126 8.828126v52.964843c0 4.875-3.953126 8.828125-8.828126 8.828125zm0 0" fill="#f0785a"/><path d="m220.691406 308.222656c-4.878906 0-8.828125-3.953125-8.828125-8.828125v-52.964843c0-4.875 3.949219-8.828126 8.828125-8.828126 4.875 0 8.824219 3.953126 8.824219 8.828126v52.964843c0 4.875-3.949219 8.828125-8.824219 8.828125zm0 0" fill="#f0785a"/><path d="m264.738281 30.328125v60.472656l-1.148437.96875c-15.003906-18.007812-48.460938-31.160156-87.039063-31.160156-38.753906 0-72.207031 13.152344-87.128906 31.25l-1.144531-.972656v-60.558594c1.050781-17.730469 16.25-31.269531 33.984375-30.2773438h108.578125c17.710937-.9570312 32.859375 12.5781248 33.898437 30.2773438zm0 0" fill="#f29c1f"/><path d="m247.171875 30.328125v60.472656l-.882813.96875c-12.050781-18.007812-38.839843-31.160156-69.738281-31.160156-31.019531 0-57.792969 13.152344-69.738281 31.25l-.882812-.972656v-60.558594c-.824219-15.863281 11.34375-29.40625 27.207031-30.2773438h86.898437c15.839844.9023438 27.96875 14.4374998 27.136719 30.2773438zm0 0" fill="#f0c419"/><path d="m264.828125 93.183594v39.191406c-.285156 3.835938-3.578125 6.738281-7.414063 6.535156-1.621093-.027344-3.191406-.550781-4.503906-1.5-22.722656-14.636718-49.34375-22.054687-76.359375-21.277344-27.007812-.828124-53.636719 6.558594-76.359375 21.1875-1.289062.988282-2.875 1.519532-4.5 1.5-1.851562.125-3.675781-.492187-5.070312-1.71875-1.390625-1.226562-2.238282-2.960937-2.34375-4.8125v-39.105468c.355468-.464844.738281-.90625 1.144531-1.324219 14.921875-18.097656 48.375-31.25 87.128906-31.25 38.578125 0 72.035157 13.152344 87.039063 31.160156.4375.449219.851562.921875 1.238281 1.414063zm0 0" fill="#e57e25"/><path d="m255.734375 154.269531c-2.128906 10.121094-3.484375 20.390625-4.058594 30.71875 0 2.648438.085938 5.210938.085938 7.769531 0 .707032.089843 1.5.089843 2.207032v.265625c.453126 5.902343.511719 11.832031.175782 17.742187-1.136719 13.273438-7.484375 25.558594-17.65625 34.164063-1.765625 1.675781-3.351563 3.265625-4.855469 4.941406-6.714844 7.875-12.851563 16.222656-18.359375 24.984375-4.5625 8.445312-13.441406 13.652344-23.039062 13.503906h-23.128907c-9.597656.148438-18.480469-5.058594-23.039062-13.503906-5.511719-8.761719-11.644531-17.109375-18.363281-24.984375-1.5-1.675781-3.089844-3.265625-4.855469-4.941406-10.167969-8.605469-16.515625-20.890625-17.65625-34.164063-.335938-5.910156-.277344-11.839844.179687-17.742187v-.265625c0-.707032.085938-1.5.085938-2.207032 0-2.558593.089844-5.121093.089844-7.769531-.582032-10.355469-1.9375-20.652343-4.0625-30.808593-.707032-4.324219-1.234376-9.355469-1.675782-15.359376 1.625.019532 3.210938-.511718 4.5-1.5 22.722656-14.628906 49.351563-22.015624 76.359375-21.1875 27.015625-.777343 53.636719 6.640626 76.359375 21.277344 1.3125.949219 2.882813 1.472656 4.503906 1.5-.441406 6.003906-.972656 11.035156-1.679687 15.359375zm0 0" fill="#fdd7ad"/><path d="m251.761719 208.292969c.089843 1.589843.175781 3.179687.265625 4.679687-1.136719 13.273438-7.484375 25.558594-17.65625 34.164063-1.765625 1.675781-3.351563 3.265625-4.855469 4.941406-6.714844 7.875-12.851563 16.222656-18.359375 24.984375-4.5625 8.445312-13.441406 13.652344-23.039062 13.503906h-23.128907c-9.597656.148438-18.480469-5.058594-23.039062-13.503906-5.511719-8.761719-11.644531-17.109375-18.363281-24.984375-1.5-1.675781-3.089844-3.265625-4.855469-4.941406-10.167969-8.605469-16.515625-20.890625-17.65625-34.164063.089843-1.5.179687-3.089844.265625-4.679687 0-2.558594.089844-5.117188.089844-7.765625 0-1.855469-.089844-3.621094-.175782-5.296875v-.265625c0-.707032.085938-1.5.085938-2.207032 0-2.558593.089844-5.121093.089844-7.769531-.582032-10.355469-1.9375-20.652343-4.0625-30.808593 1.023437-.238282 1.988281-.6875 2.824218-1.324219 22.722656-14.625 49.351563-22.015625 76.359375-21.183594 27.015625-.777344 53.636719 6.636719 76.359375 21.273437.859375.601563 1.816406 1.046876 2.824219 1.324219-2.128906 10.121094-3.484375 20.390625-4.058594 30.71875 0 2.648438.085938 5.210938.085938 7.769531 0 .707032.089843 1.5.089843 2.207032v.265625c-.089843 1.675781-.175781 3.441406-.175781 5.296875 0 2.648437.085938 5.207031.085938 7.765625zm0 0" fill="#fdd7ad"/></svg>