<svg height="511pt" viewBox="-4 0 511 511.40543" width="511pt" xmlns="http://www.w3.org/2000/svg"><path d="m225.828125 268.285156v-20.480468c1.476563-1.648438 3.039063-3.210938 4.773437-4.859376 19.960938-18.828124 17.964844-35.230468 17.097657-53.453124 0-2.519532-.085938-5.035157-.085938-7.636719 0-14.753907 4.078125-22.21875 5.640625-45.300781h.085938l7.203125-7.117188s8.417969 60.746094 43.128906 69.425781c0 0 8.675781 60.660157-77.84375 69.421875zm0 0" fill="#af8066"/><path d="m225.828125 268.285156v-18.484375c53.023437-8.070312 65.867187-37.226562 68.644531-54.757812 2.847656 1.75 5.949219 3.039062 9.199219 3.820312 0 0 8.675781 60.660157-77.84375 69.421875zm0 0" fill="#7f5b53"/><path d="m477.492188 337.710938c-4.792969 0-8.679688-3.886719-8.679688-8.679688v-60.746094c0-4.792968-3.886719-8.675781-8.675781-8.675781-4.792969 0-8.679688-3.886719-8.679688-8.679687 0-4.792969 3.886719-8.675782 8.679688-8.675782 14.375 0 26.03125 11.65625 26.03125 26.03125v60.746094c0 4.792969-3.882813 8.679688-8.675781 8.679688zm0 0" fill="#fac176"/><path d="m338.644531 337.710938c-4.792969 0-8.679687-3.886719-8.679687-8.679688v-60.746094c0-14.375 11.65625-26.03125 26.035156-26.03125 4.792969 0 8.675781 3.882813 8.675781 8.675782 0 4.792968-3.882812 8.679687-8.675781 8.679687s-8.679688 3.882813-8.679688 8.675781v60.746094c0 4.792969-3.882812 8.679688-8.675781 8.679688zm0 0" fill="#fac176"/><path d="m260.453125 29.816406v64.910156l-1.125-4.511718c-14.753906-17.703125-47.644531-30.632813-85.566406-30.632813-38.097657 0-70.984375 12.929688-85.652344 30.71875l-1.128906 4.425781v-64.910156c1.035156-17.433594 15.976562-30.742187 33.410156-29.7656248h106.742187c17.40625-.9414062 32.300782 12.3632808 33.320313 29.7656248zm0 0" fill="#e57e25"/><path d="m243.1875 29.816406v64.910156l-.871094-4.511718c-11.84375-17.703125-38.179687-30.632813-68.554687-30.632813-30.492188 0-56.8125 12.929688-68.554688 30.71875l-.867187 4.425781v-64.910156c-.8125-15.597656 11.148437-28.910156 26.742187-29.7656248h85.425781c15.570313.8867188 27.496094 14.1914068 26.679688 29.7656248zm0 0" fill="#f29c1f"/><path d="m260.542969 91.601562v38.53125c-.105469 1.808594-.921875 3.5-2.273438 4.703126-1.347656 1.207031-3.125 1.824218-4.929687 1.71875h-.085938c-1.59375-.023438-3.140625-.539063-4.425781-1.476563-22.339844-14.386719-48.507813-21.675781-75.066406-20.914063-26.550781-.8125-52.726563 6.449219-75.0625 20.828126-1.269531.972656-2.828125 1.492187-4.425781 1.476562-1.871094.035156-3.691407-.613281-5.121094-1.824219-1.386719-1.121093-2.183594-2.816406-2.171875-4.597656v-38.445313c.351562-.453124.730469-.886718 1.128906-1.300781 14.667969-17.789062 47.554687-30.71875 85.652344-30.71875 37.921875 0 70.8125 12.929688 85.566406 30.632813.429687.441406.832031.902344 1.214844 1.386718zm0 0" fill="#d25627"/><path d="m.203125 415.8125h43.390625v86.777344h-43.390625zm0 0" fill="#fdd7ad"/><path d="m129.15625 502.589844h-85.5625v-86.777344h26.03125v17.355469c-.480469 4.992187-.480469 10.019531 0 15.011719 1.824219 20.222656 11.976562 53.804687 59.53125 54.410156zm0 0" fill="#f09372"/><path d="m263.578125 305.515625c-7.625 14.226563-17.433594 27.167969-29.070313 38.355469-7.292968 6.96875-15.359374 13.082031-24.039062 18.222656-8.691406 4.152344-17.097656 8.878906-25.164062 14.148438-7.097657 5.199218-11.367188 13.414062-11.542969 22.214843-.175781-8.800781-4.445313-17.015625-11.542969-22.214843-8.0625-5.269532-16.472656-9.996094-25.164062-14.148438-8.679688-5.140625-16.742188-11.253906-24.039063-18.222656-11.636719-11.1875-21.445313-24.128906-29.070313-38.355469 12.335938-4.519531 24.945313-8.257813 37.75-11.195313v-46.515624c18.136719 19.613281 19.699219 37.835937 40.699219 37.835937h22.734375c21 0 22.5625-18.222656 40.699219-37.835937v46.515624c12.792969 2.988282 25.398437 6.726563 37.75 11.195313zm0 0" fill="#f09372"/><path d="m337.601562 502.589844h-207.230468c-48.59375 0-58.921875-34.015625-60.746094-54.410156v-32.367188h-69.421875v-34.710938c0-38.183593 48.074219-62.65625 83.742187-75.585937 7.625 14.226563 17.433594 27.167969 29.070313 38.355469 7.296875 6.96875 15.359375 13.082031 24.039063 18.222656 8.691406 4.152344 17.101562 8.878906 25.164062 14.148438 7.097656 5.199218 11.367188 13.414062 11.542969 22.214843.175781-8.800781 4.445312-17.015625 11.542969-22.214843 8.066406-5.269532 16.472656-9.996094 25.164062-14.148438 8.679688-5.140625 16.746094-11.253906 24.039062-18.222656 11.636719-11.1875 21.445313-24.128906 29.070313-38.355469 24.5625 7.847656 47.183594 20.800781 66.386719 38.007813l-15.792969 26.296874c-.53125.773438-.859375 1.667969-.953125 2.601563-.277344.988281-.335938 2.023437-.175781 3.039063l9.460937 70.898437 6.507813 48.683594c.542969 4.324219 4.230469 7.566406 8.589843 7.546875zm0 0" fill="#35495e"/><g fill="#fdd7ad"><path d="m373.355469 207.539062c9.585937 0 17.355469 7.773438 17.355469 17.359376v26.03125c0 9.585937-7.769532 17.355468-17.355469 17.355468-9.585938 0-17.355469-7.769531-17.355469-17.355468v-26.03125c0-9.585938 7.769531-17.359376 17.355469-17.359376zm0 0"/><path d="m408.066406 207.539062c9.585938 0 17.355469 7.773438 17.355469 17.359376v26.03125c0 9.585937-7.769531 17.355468-17.355469 17.355468-9.585937 0-17.355468-7.769531-17.355468-17.355468v-26.03125c0-9.585938 7.769531-17.359376 17.355468-17.359376zm0 0"/><path d="m442.777344 207.539062c9.585937 0 17.359375 7.773438 17.359375 17.359376v26.03125c0 9.585937-7.773438 17.355468-17.359375 17.355468-9.582032 0-17.355469-7.769531-17.355469-17.355468v-26.03125c0-9.585938 7.773437-17.359376 17.355469-17.359376zm0 0"/></g><path d="m121.695312 247.804688v20.480468c-86.78125-8.675781-78.101562-69.421875-78.101562-69.421875 34.710938-8.679687 43.386719-60.746093 43.386719-60.746093l2.171875-3.472657c1.429687 1.210938 3.25 1.859375 5.121094 1.824219 1.558593 23.167969 5.640624 30.632812 5.640624 45.386719 0 2.601562-.089843 5.117187-.089843 7.636719-.867188 18.222656-2.863281 34.625 17.097656 53.453124 1.734375 1.648438 3.296875 3.210938 4.773437 4.859376zm0 0" fill="#af8066"/><path d="m121.695312 249.800781v18.484375c-86.78125-8.675781-78.101562-69.421875-78.101562-69.421875 3.300781-.828125 6.480469-2.082031 9.457031-3.730469 2.863281 17.527344 15.707031 46.597657 68.644531 54.667969zm0 0" fill="#7f5b53"/><path d="m247.699219 189.492188c.867187 18.222656 2.863281 34.625-17.097657 53.453124-1.734374 1.648438-3.296874 3.210938-4.773437 4.859376-18.136719 19.613281-19.699219 37.835937-40.699219 37.835937h-22.734375c-21 0-22.5625-18.222656-40.699219-37.835937-1.476562-1.648438-3.039062-3.210938-4.773437-4.859376-19.960937-18.828124-17.964844-35.230468-17.097656-53.453124 0-2.519532.089843-5.035157.089843-7.636719 0-14.753907-4.082031-22.21875-5.640624-45.386719 1.597656.015625 3.15625-.503906 4.425781-1.476562 22.335937-14.378907 48.511719-21.640626 75.0625-20.828126 26.558593-.761718 52.726562 6.527344 75.066406 20.914063 1.285156.9375 2.832031 1.453125 4.425781 1.476563-1.5625 23.082031-5.640625 30.546874-5.640625 45.300781 0 2.601562.085938 5.117187.085938 7.636719zm0 0" fill="#fdd7ad"/><path d="m225.828125 511.269531h-95.457031c-19.847656 1.246094-39.230469-6.359375-52.933594-20.773437-9.710938-11.742188-15.464844-26.246094-16.445312-41.449219v-.164063c-.496094-5.386718-.496094-10.804687 0-16.191406v-60.269531c0-4.792969 3.886718-8.679687 8.675781-8.679687 4.792969 0 8.679687 3.886718 8.679687 8.679687v75.195313c.667969 11.5 4.914063 22.507812 12.148438 31.472656 10.488281 10.535156 25.058594 15.949218 39.875 14.824218h95.457031c14.835937 1.136719 29.425781-4.277343 39.921875-14.824218 15.332031-17.292969 12.269531-44.59375 12.242188-44.863282-.445313-4.675781 2.910156-8.855468 7.570312-9.433593 4.664062-.578125 8.9375 2.65625 9.648438 7.296875.179687 1.425781 4.128906 35.164062-16.382813 58.40625-13.71875 14.429687-33.128906 22.039062-53 20.773437zm0 0" fill="#2c3e50"/><path d="m503.4375 375.460938-8.332031 62.394531-7.636719 57.1875c-.5625 4.3125-4.238281 7.542969-8.589844 7.546875h-141.277344c-4.359374.019531-8.046874-3.222656-8.589843-7.546875l-6.507813-48.683594-9.460937-70.898437c-.160157-1.015626-.101563-2.050782.175781-3.039063h190.046875c.273437.988281.332031 2.023437.171875 3.039063zm0 0" fill="#f5efca"/><path d="m503.265625 372.421875h-190.046875c.09375-.933594.421875-1.828125.953125-2.601563l15.792969-26.296874 6.160156-10.324219c.777344-1.285157 1.886719-2.335938 3.210938-3.039063 1.285156-.765625 2.757812-1.15625 4.253906-1.128906h129.300781c.761719 0 1.515625.089844 2.257813.261719.613281.171875 1.199218.433593 1.734374.78125 1.378907.730469 2.546876 1.804687 3.386719 3.125l22.039063 36.621093c.460937.808594.78125 1.6875.957031 2.601563zm0 0" fill="#f9eab0"/><path d="m356 450.523438c-4.792969.195312-8.839844-3.527344-9.035156-8.320313-.195313-4.792969 3.53125-8.839844 8.324218-9.035156l104.132813-8.679688c4.792969-.394531 9 3.171875 9.394531 7.964844.394532 4.792969-3.167968 8.996094-7.960937 9.394531l-104.136719 8.675782c-.242188 0-.492188 0-.71875 0zm0 0" fill="#af8066"/><path d="m373.355469 476.558594c-3.613281-.003906-6.84375-2.246094-8.113281-5.628906-1.269532-3.378907-.3125-7.195313 2.402343-9.574219l69.425781-60.746094c2.285157-2.296875 5.660157-3.128906 8.75-2.15625 3.089844.972656 5.382813 3.582031 5.945313 6.773437.5625 3.191407-.703125 6.429688-3.277344 8.398438l-69.421875 60.746094c-1.574218 1.398437-3.605468 2.175781-5.710937 2.1875zm0 0" fill="#af8066"/></svg>