<svg height="512pt" viewBox="0 -17 512.00017 512" width="512pt" xmlns="http://www.w3.org/2000/svg"><path d="m156.203125 269.015625c-4.792969 0-8.675781-3.882813-8.675781-8.675781v-34.710938c0-4.792968 3.882812-8.679687 8.675781-8.679687s8.679687 3.886719 8.679687 8.679687v34.710938c0 4.792968-3.886718 8.675781-8.679687 8.675781zm0 0" fill="#95a5a5"/><path d="m303.730469 269.015625c-4.792969 0-8.679688-3.882813-8.679688-8.675781v-34.710938c0-4.792968 3.886719-8.679687 8.679688-8.679687s8.675781 3.886719 8.675781 8.679687v34.710938c0 4.792968-3.882812 8.675781-8.675781 8.675781zm0 0" fill="#95a5a5"/><path d="m399.1875 477.15625h-69.425781c-4.792969 0-8.675781-3.882812-8.675781-8.675781s3.882812-8.679688 8.675781-8.679688h69.425781c4.792969 0 8.675781 3.886719 8.675781 8.679688s-3.882812 8.675781-8.675781 8.675781zm0 0" fill="#2c3e50"/><path d="m512 364.300781v43.390625c.027344 4.398438-3.195312 8.140625-7.550781 8.765625l-53.195313 8.761719h-407.863281l-28.117187-8.9375c-3.871094-.957031-6.59375-4.429688-6.59375-8.417969v-26.207031l34.710937-52.066406h425.21875zm0 0" fill="#c03a2b"/><path d="m512 364.300781v26.207031c.027344 4.398438-3.195312 8.140626-7.550781 8.765626l-53.195313 8.765624h-407.863281l-28.117187-8.9375c-3.871094-.957031-6.59375-4.429687-6.59375-8.417968v-9.027344l34.710937-52.066406h425.21875zm0 0" fill="#e64c3c"/><path d="m399.1875 477.15625c-28.757812 0-52.070312-23.308594-52.070312-52.066406 0-28.753906 23.3125-52.066406 52.070312-52.066406 28.753906 0 52.066406 23.3125 52.066406 52.066406-.03125 28.742187-23.324218 52.035156-52.066406 52.066406zm0 0" fill="#2c3e50"/><path d="m407.863281 329.589844h-173.558593v-69.425782h100.492187c2.320313-.007812 4.546875.933594 6.160156 2.605469l14.058594 14.058594zm0 0" fill="#b0d3f0"/><path d="m234.304688 260.164062v69.425782h-104.136719l8.679687-69.425782zm0 0" fill="#90bae1"/><path d="m138.847656 260.164062-8.679687 69.425782h-43.386719l23.949219-63.695313c1.226562-3.449219 4.496093-5.75 8.15625-5.730469zm0 0" fill="#c03a2b"/><path d="m269.015625 385.824219v39.394531h-17.355469v-39.394531c-.007812-1.351563-.304687-2.679688-.867187-3.90625l-24.210938-48.421875c-.601562-1.21875-.925781-2.550782-.953125-3.90625h18.394532l22.214843 44.515625c1.835938 3.632812 2.785157 7.648437 2.777344 11.71875zm0 0" fill="#c03a2b"/><path d="m512 338.265625v26.035156h-27.941406c-3.964844.007813-7.429688-2.671875-8.417969-6.507812l-7.03125-28.203125h34.710937c4.792969 0 8.679688 3.882812 8.679688 8.675781zm0 0" fill="#f0c419"/><path d="m43.390625 329.589844v21.695312c.019531 2.734375-1.269531 5.316406-3.472656 6.941406l-31.238281 23.429688v-31.066406c.015624-2.300782.917968-4.507813 2.515624-6.160156l12.320313-12.238282c1.589844-1.652344 3.78125-2.59375 6.078125-2.601562zm0 0" fill="#f0c419"/><path d="m121.492188 477.15625h-69.425782c-4.792968 0-8.675781-3.882812-8.675781-8.675781s3.882813-8.679688 8.675781-8.679688h69.425782c4.792968 0 8.675781 3.886719 8.675781 8.679688s-3.882813 8.675781-8.675781 8.675781zm0 0" fill="#2c3e50"/><path d="m17.355469 477.289062h-8.675781c-4.792969 0-8.679688-3.886718-8.679688-8.679687s3.886719-8.675781 8.679688-8.675781h8.675781c4.792969 0 8.679687 3.882812 8.679687 8.675781s-3.886718 8.679687-8.679687 8.679687zm0 0" fill="#2c3e50"/><path d="m295.050781 477.289062h-8.679687c-4.789063 0-8.675782-3.886718-8.675782-8.679687s3.886719-8.675781 8.675782-8.675781h8.679687c4.792969 0 8.679688 3.882812 8.679688 8.675781s-3.886719 8.679687-8.679688 8.679687zm0 0" fill="#2c3e50"/><path d="m121.492188 477.15625c-28.757813 0-52.070313-23.308594-52.070313-52.066406 0-28.753906 23.3125-52.066406 52.070313-52.066406 28.753906 0 52.066406 23.3125 52.066406 52.066406-.03125 28.742187-23.324219 52.035156-52.066406 52.066406zm0 0" fill="#2c3e50"/><path d="m164.882812 425.089844c0 23.964844-19.429687 43.390625-43.390624 43.390625-23.964844 0-43.390626-19.425781-43.390626-43.390625s19.425782-43.390625 43.390626-43.390625c23.960937 0 43.390624 19.425781 43.390624 43.390625zm0 0" fill="#35495e"/><path d="m147.394531 425.089844c0 14.308594-11.597656 25.902344-25.902343 25.902344-14.308594 0-25.90625-11.59375-25.90625-25.902344 0-14.304688 11.597656-25.902344 25.90625-25.902344 14.304687 0 25.902343 11.597656 25.902343 25.902344zm0 0" fill="#95a5a5"/><path d="m442.578125 425.089844c0 23.964844-19.429687 43.390625-43.390625 43.390625-23.964844 0-43.390625-19.425781-43.390625-43.390625s19.425781-43.390625 43.390625-43.390625c23.960938 0 43.390625 19.425781 43.390625 43.390625zm0 0" fill="#35495e"/><path d="m425.089844 425.089844c0 14.308594-11.597656 25.902344-25.902344 25.902344-14.308594 0-25.90625-11.59375-25.90625-25.902344 0-14.304688 11.597656-25.902344 25.90625-25.902344 14.304688 0 25.902344 11.597656 25.902344 25.902344zm0 0" fill="#95a5a5"/><path d="m407.863281 329.589844h-141.449219c19.882813-30.242188 52.539063-49.691406 88.601563-52.761719zm0 0" fill="#90bae1"/><path d="m312.40625 164.882812h52.066406c4.792969 0 8.679688 3.882813 8.679688 8.675782v17.355468c0 19.171876-15.539063 34.714844-34.710938 34.714844h-242.984375c-19.171875 0-34.710937-15.542968-34.710937-34.714844v-17.355468c0-4.792969 3.886718-8.675782 8.675781-8.675782zm0 0" fill="#e57e25"/><path d="m301.800781 164.882812h46.28125c4.511719.292969 7.953125 4.160157 7.714844 8.675782v17.355468c.988281 18.082032-12.789063 33.578126-30.859375 34.714844h-215.976562c-18.074219-1.136718-31.847657-16.632812-30.859376-34.714844v-17.355468c-.238281-4.515625 3.203126-8.382813 7.714844-8.675782zm0 0" fill="#f29c1f"/><path d="m147.527344 0h138.84375c47.929687 0 86.78125 38.851562 86.78125 86.78125v8.675781c0 4.792969-3.886719 8.679688-8.679688 8.679688h-295.050781c-4.789063 0-8.675781-3.886719-8.675781-8.679688v-8.675781c0-47.929688 38.851562-86.78125 86.78125-86.78125zm0 0" fill="#e57e25"/><path d="m164.882812 0h104.132813c23.015625 0 45.089844 9.144531 61.363281 25.417969 16.273438 16.273437 25.417969 38.347656 25.417969 61.363281v8.675781c0 4.792969-3.886719 8.679688-8.679687 8.679688h-260.335938c-4.792969 0-8.679688-3.886719-8.679688-8.679688v-8.675781c0-47.929688 38.851563-86.78125 86.78125-86.78125zm0 0" fill="#f29c1f"/><path d="m242.984375 104.136719h-169.222656c-16.738281.078125-30.292969 13.632812-30.371094 30.371093 0 16.773438 13.597656 30.375 30.371094 30.375h286.375c16.738281-.082031 30.292969-13.632812 30.371093-30.375 0-8.054687-3.199218-15.78125-8.894531-21.476562-5.695312-5.695312-13.421875-8.894531-21.476562-8.894531zm0 0" fill="#802f34"/><path d="m56.40625 147.527344c-7.1875 0-13.015625-5.828125-13.015625-13.019532-.023437-3.410156 1.335937-6.683593 3.765625-9.078124 2.414062-2.519532 5.757812-3.945313 9.25-3.9375h321.085938c7.1875 0 13.015624 5.828124 13.015624 13.015624.023438 3.410157-1.335937 6.683594-3.765624 9.078126-2.414063 2.523437-5.757813 3.945312-9.25 3.941406zm0 0" fill="#cc4b4c"/><g fill="#f3d55b"><path d="m312.40625 104.136719v78.101562c0 9.585938-7.769531 17.355469-17.355469 17.355469-9.585937 0-17.355469-7.769531-17.355469-17.355469v-17.355469c0 9.585938-7.769531 17.355469-17.355468 17.355469-9.585938 0-17.355469-7.769531-17.355469-17.355469v-60.746093zm0 0"/><path d="m130.167969 52.066406c-3.507813 0-6.671875-2.113281-8.015625-5.355468-1.339844-3.242188-.597656-6.972657 1.882812-9.457032l8.675782-8.675781c2.179687-2.257813 5.40625-3.164063 8.441406-2.367187 3.035156.792968 5.402344 3.164062 6.195312 6.195312.796875 3.035156-.109375 6.261719-2.363281 8.441406l-8.679687 8.675782c-1.625 1.628906-3.832032 2.542968-6.136719 2.542968zm0 0"/><path d="m182.238281 52.066406c-3.511719 0-6.671875-2.113281-8.015625-5.355468-1.34375-3.242188-.601562-6.972657 1.878906-9.457032l8.679688-8.675781c2.175781-2.257813 5.402344-3.164063 8.4375-2.367187 3.035156.792968 5.402344 3.164062 6.199219 6.195312.792969 3.035156-.113281 6.261719-2.367188 8.441406l-8.679687 8.675782c-1.625 1.628906-3.832032 2.542968-6.132813 2.542968zm0 0"/><path d="m242.984375 52.066406c-3.511719 0-6.675781-2.113281-8.015625-5.355468-1.34375-3.242188-.601562-6.972657 1.878906-9.457032l8.679688-8.675781c2.175781-2.257813 5.402344-3.164063 8.4375-2.367187 3.035156.792968 5.402344 3.164062 6.199218 6.195312.792969 3.035156-.113281 6.261719-2.367187 8.441406l-8.679687 8.675782c-1.625 1.628906-3.832032 2.542968-6.132813 2.542968zm0 0"/><path d="m295.050781 52.066406c-3.507812 0-6.671875-2.113281-8.015625-5.355468-1.34375-3.242188-.601562-6.972657 1.878906-9.457032l8.679688-8.675781c2.179688-2.257813 5.40625-3.164063 8.4375-2.367187 3.035156.792968 5.40625 3.164062 6.199219 6.195312.792969 3.035156-.109375 6.261719-2.367188 8.441406l-8.675781 8.675782c-1.628906 1.628906-3.835938 2.542968-6.136719 2.542968zm0 0"/></g></svg>