<svg height="512pt" viewBox="0 -39 512 512" width="512pt" xmlns="http://www.w3.org/2000/svg"><path d="m312.40625 325.164062v39.308594h-243.070312l-26.8125-.171875-27.25-8.675781c-3.871094-.960938-6.59375-4.429688-6.59375-8.417969v-329.851562c.027343-9.574219 7.78125-17.3281252 17.355468-17.355469h219.550782c3.941406.0351562 7.757812 1.378906 10.847656 3.816406l32.109375 25.6875c4.101562 3.296875 6.496093 8.273438 6.507812 13.539063v225.972656l15.535157 48.425781c1.203124 2.394532 1.828124 5.039063 1.820312 7.722656zm0 0" fill="#c03a2b"/><path d="m312.40625 325.164062v21.953126h-243.070312l-26.8125-.171876-27.25-8.679687c-3.871094-.957031-6.59375-4.429687-6.59375-8.417969v-312.492187c.027343-9.574219 7.78125-17.3281252 17.355468-17.355469h219.550782c3.941406.0351562 7.757812 1.378906 10.847656 3.816406l32.109375 25.6875c4.101562 3.296875 6.496093 8.273438 6.507812 13.539063v225.972656l15.535157 48.425781c1.203124 2.394532 1.828124 5.039063 1.820312 7.722656zm0 0" fill="#d25627"/><path d="m208.269531 190.914062h34.714844c4.792969 0 8.675781 3.886719 8.675781 8.679688v8.675781c0 14.378907-11.65625 26.035157-26.03125 26.035157h-156.207031c-14.375 0-26.03125-11.65625-26.03125-26.035157v-8.675781c0-4.792969 3.882813-8.679688 8.675781-8.679688zm0 0" fill="#e57e25"/><path d="m198.144531 190.914062h28.933594c4.371094.4375 7.589844 4.296876 7.226563 8.679688v8.675781c1.089843 13.148438-8.570313 24.734375-21.695313 26.035157h-130.167969c-13.125-1.300782-22.785156-12.886719-21.695312-26.035157v-8.675781c-.363282-4.382812 2.855468-8.242188 7.226562-8.679688zm0 0" fill="#f29c1f"/><path d="m130.167969 43.390625h34.714843c23.015626 0 45.085938 9.140625 61.359376 25.417969 16.277343 16.273437 25.417968 38.34375 25.417968 61.359375 0 4.792969-3.882812 8.679687-8.675781 8.679687h-190.917969c-4.792968 0-8.675781-3.886718-8.675781-8.679687 0-47.925781 38.851563-86.777344 86.777344-86.777344zm0 0" fill="#e57e25"/><path d="m147.527344 43.390625c47.925781 0 86.777344 38.851563 86.777344 86.777344 0 4.792969-3.886719 8.679687-8.675782 8.679687h-156.207031c-4.789063 0-8.675781-3.886718-8.675781-8.679687 0-47.925781 38.851562-86.777344 86.78125-86.777344zm0 0" fill="#f29c1f"/><path d="m416.542969 269.015625h-121.492188v-95.457031h83.308594l27.160156 68.035156zm0 0" fill="#35495e"/><path d="m378.359375 173.558594h-83.308594v-34.710938h57.621094c7.113281-.007812 13.511719 4.328125 16.140625 10.933594zm0 0" fill="#95a5a5"/><path d="m512 277.695312v69.421876c-.003906 4.386718-3.210938 8.113281-7.550781 8.765624l-26.554688 8.503907h-38.875l-79.664062.085937h-46.949219v-39.308594c.007812-2.683593-.617188-5.328124-1.820312-7.722656l-15.535157-48.425781h208.269531c4.792969 0 8.679688 3.886719 8.679688 8.679687zm0 0" fill="#f29c1f"/><path d="m512 329.761719v17.355469c-.003906 4.386718-3.210938 8.113281-7.550781 8.765624l-26.554688 8.503907h-38.875l-79.664062.085937h-46.949219v-17.355468h46.949219l79.664062-.085938h38.875l26.554688-8.503906c4.339843-.652344 7.546875-4.378906 7.550781-8.765625zm0 0" fill="#7f8c8d"/><path d="m512 277.695312v52.066407c-.003906 4.386719-3.210938 8.113281-7.550781 8.765625l-26.554688 8.503906h-38.875l-79.664062.085938h-46.949219v-21.953126c.007812-2.683593-.617188-5.328124-1.820312-7.722656l-15.535157-48.425781h208.269531c4.792969 0 8.679688 3.886719 8.679688 8.679687zm0 0" fill="#95a5a5"/><path d="m8.679688 321.085938 31.238281-23.433594c2.1875-1.636719 3.472656-4.210938 3.472656-6.941406v-17.355469c0-2.730469-1.285156-5.304688-3.472656-6.941407l-31.238281-23.429687zm0 0" fill="#c03a2b"/><path d="m121.492188 433.769531h-69.425782c-4.792968 0-8.675781-3.886719-8.675781-8.679687 0-4.792969 3.882813-8.675782 8.675781-8.675782h69.425782c4.792968 0 8.675781 3.882813 8.675781 8.675782 0 4.792968-3.882813 8.679687-8.675781 8.679687zm0 0" fill="#2c3e50"/><path d="m17.355469 433.898438h-8.675781c-4.792969 0-8.679688-3.886719-8.679688-8.679688s3.886719-8.675781 8.679688-8.675781h8.675781c4.792969 0 8.679687 3.882812 8.679687 8.675781s-3.886718 8.679688-8.679687 8.679688zm0 0" fill="#2c3e50"/><path d="m399.1875 433.769531h-69.425781c-4.792969 0-8.675781-3.886719-8.675781-8.679687 0-4.792969 3.882812-8.675782 8.675781-8.675782h69.425781c4.792969 0 8.675781 3.882813 8.675781 8.675782 0 4.792968-3.882812 8.679687-8.675781 8.679687zm0 0" fill="#2c3e50"/><path d="m295.050781 433.898438h-8.679687c-4.789063 0-8.675782-3.886719-8.675782-8.679688s3.886719-8.675781 8.675782-8.675781h8.679687c4.792969 0 8.679688 3.882812 8.679688 8.675781s-3.886719 8.679688-8.679688 8.679688zm0 0" fill="#2c3e50"/><path d="m477.289062 269.015625h26.03125c4.792969 0 8.679688 3.886719 8.679688 8.679687v26.035157h-26.035156c-4.792969 0-8.675782-3.886719-8.675782-8.679688zm0 0" fill="#f0c419"/><path d="m121.492188 433.769531c-28.757813 0-52.070313-23.3125-52.070313-52.070312 0-28.753907 23.3125-52.066407 52.070313-52.066407 28.753906 0 52.066406 23.3125 52.066406 52.066407-.03125 28.742187-23.324219 52.035156-52.066406 52.070312zm0 0" fill="#2c3e50"/><path d="m164.882812 381.699219c0 23.964843-19.429687 43.390625-43.390624 43.390625-23.964844 0-43.390626-19.425782-43.390626-43.390625 0-23.960938 19.425782-43.390625 43.390626-43.390625 23.960937 0 43.390624 19.429687 43.390624 43.390625zm0 0" fill="#35495e"/><path d="m147.394531 381.699219c0 14.308593-11.597656 25.90625-25.902343 25.90625-14.308594 0-25.90625-11.597657-25.90625-25.90625 0-14.304688 11.597656-25.902344 25.90625-25.902344 14.304687 0 25.902343 11.597656 25.902343 25.902344zm0 0" fill="#95a5a5"/><path d="m399.1875 433.769531c-28.757812 0-52.070312-23.3125-52.070312-52.070312 0-28.753907 23.3125-52.066407 52.070312-52.066407 28.753906 0 52.066406 23.3125 52.066406 52.066407-.03125 28.742187-23.324218 52.035156-52.066406 52.070312zm0 0" fill="#2c3e50"/><path d="m442.578125 381.699219c0 23.964843-19.429687 43.390625-43.390625 43.390625-23.964844 0-43.390625-19.425782-43.390625-43.390625 0-23.960938 19.425781-43.390625 43.390625-43.390625 23.960938 0 43.390625 19.429687 43.390625 43.390625zm0 0" fill="#35495e"/><path d="m425.089844 381.699219c0 14.308593-11.597656 25.90625-25.902344 25.90625-14.308594 0-25.90625-11.597657-25.90625-25.90625 0-14.304688 11.597656-25.902344 25.90625-25.902344 14.304688 0 25.902344 11.597656 25.902344 25.902344zm0 0" fill="#95a5a5"/><path d="m416.542969 269.015625h-121.492188v-52.328125c25.339844-8.761719 58.316407-7.636719 99.363281 17.617188 4.078126 2.515624 7.722657 4.945312 11.105469 7.289062zm0 0" fill="#2c3e50"/><path d="m138.847656 190.914062h-68.296875c-14.6875.304688-26.84375-11.347656-27.160156-26.03125.316406-14.6875 12.472656-26.339843 27.160156-26.035156h153.949219c14.6875-.304687 26.84375 11.347656 27.160156 26.035156-.316406 14.683594-12.472656 26.335938-27.160156 26.03125zm0 0" fill="#802f34"/><path d="m53.195312 173.558594c-3.34375.398437-6.621093-1.164063-8.417968-4.015625-1.796875-2.847657-1.796875-6.476563 0-9.324219 1.796875-2.851562 5.074218-4.410156 8.417968-4.015625h188.660157c3.34375-.394531 6.621093 1.164063 8.417969 4.015625 1.796874 2.847656 1.796874 6.476562 0 9.324219-1.796876 2.851562-5.074219 4.414062-8.417969 4.015625zm0 0" fill="#cc4b4c"/><g fill="#f3d55b"><path d="m130.167969 78.101562c0 4.792969-3.882813 8.679688-8.675781 8.679688-4.792969 0-8.679688-3.886719-8.679688-8.679688 0-4.792968 3.886719-8.679687 8.679688-8.679687 4.792968 0 8.675781 3.886719 8.675781 8.679687zm0 0"/><path d="m182.238281 78.101562c0 4.792969-3.886719 8.679688-8.679687 8.679688-4.792969 0-8.675782-3.886719-8.675782-8.679688 0-4.792968 3.882813-8.679687 8.675782-8.679687 4.792968 0 8.679687 3.886719 8.679687 8.679687zm0 0"/><path d="m216.949219 104.136719c0 4.792969-3.886719 8.675781-8.679688 8.675781s-8.675781-3.882812-8.675781-8.675781 3.882812-8.679688 8.675781-8.679688 8.679688 3.886719 8.679688 8.679688zm0 0"/><path d="m95.457031 104.136719c0 4.792969-3.882812 8.675781-8.675781 8.675781s-8.679688-3.882812-8.679688-8.675781 3.886719-8.679688 8.679688-8.679688 8.675781 3.886719 8.675781 8.679688zm0 0"/><path d="m138.847656 138.847656v52.066406c0 9.585938 7.769532 17.355469 17.355469 17.355469s17.355469-7.769531 17.355469-17.355469v60.746094c0 9.585938 7.769531 17.355469 17.355468 17.355469 9.585938 0 17.355469-7.769531 17.355469-17.355469v-112.8125zm0 0"/></g></svg>