<svg height="511pt" viewBox="-4 0 511 511.49121" width="511pt" xmlns="http://www.w3.org/2000/svg"><path d="m290.378906 298.15625v59.734375h-241.324218c-10.683594.007813-20.933594-4.230469-28.488282-11.785156-7.554687-7.554688-11.796875-17.804688-11.789062-28.492188v-4.777343c-.007813-20.066407 14.773437-37.070313 34.648437-39.851563l47.1875 40.449219c6.765625 5.835937 16.890625 5.460937 23.210938-.855469l24.234375-24.234375 29.355468 25.089844c6.765626 5.835937 16.890626 5.460937 23.210938-.855469l28.246094-28.246094 33.875 29.101563c6.769531 5.835937 16.890625 5.460937 23.210937-.855469zm0 0" fill="#802f34"/><path d="m503.710938 312.835938v4.777343c.011718 10.6875-4.230469 20.9375-11.785157 28.492188-7.554687 7.554687-17.804687 11.792969-28.492187 11.785156h-104.789063v-85.332031h104.789063c10.6875-.011719 20.9375 4.230468 28.492187 11.785156 7.554688 7.554688 11.796875 17.804688 11.785157 28.492188zm0 0" fill="#802f34"/><path d="m25.84375 298.15625h460.800781c9.425781 0 17.066407 7.644531 17.066407 17.066406 0 9.425782-7.640626 17.070313-17.066407 17.070313h-460.800781c-9.421875 0-17.066406-7.644531-17.066406-17.070313 0-9.421875 7.644531-17.066406 17.066406-17.066406zm0 0" fill="#cc4b4c"/><path d="m119.710938 511.363281h-68.265626c-4.710937 0-8.53125-3.820312-8.53125-8.535156 0-4.710937 3.820313-8.53125 8.53125-8.53125h68.265626c4.714843 0 8.535156 3.820313 8.535156 8.53125 0 4.714844-3.820313 8.535156-8.535156 8.535156zm0 0" fill="#2c3e50"/><path d="m17.3125 511.492188h-8.535156c-4.710938 0-8.53125-3.820313-8.53125-8.535157 0-4.710937 3.820312-8.53125 8.53125-8.53125h8.535156c4.710938 0 8.53125 3.820313 8.53125 8.53125 0 4.714844-3.820312 8.535157-8.53125 8.535157zm0 0" fill="#2c3e50"/><path d="m392.777344 511.363281h-68.265625c-4.710938 0-8.53125-3.820312-8.53125-8.535156 0-4.710937 3.820312-8.53125 8.53125-8.53125h68.265625c4.714844 0 8.535156 3.820313 8.535156 8.53125 0 4.714844-3.820312 8.535156-8.535156 8.535156zm0 0" fill="#2c3e50"/><path d="m290.378906 511.492188h-8.535156c-4.710938 0-8.53125-3.820313-8.53125-8.535157 0-4.710937 3.820312-8.53125 8.53125-8.53125h8.535156c4.710938 0 8.535156 3.820313 8.535156 8.53125 0 4.714844-3.824218 8.535157-8.535156 8.535157zm0 0" fill="#2c3e50"/><path d="m162.378906 110.425781h187.734375c75.402344 0 136.53125 61.125 136.53125 136.53125v8.535157c0 9.425781-7.640625 17.066406-17.066406 17.066406h-426.664063c-9.425781 0-17.070312-7.640625-17.070312-17.066406v-8.535157c0-75.40625 61.128906-136.53125 136.535156-136.53125zm0 0" fill="#e57e25"/><path d="m179.445312 110.425781h153.601563c75.402344 0 136.53125 61.125 136.53125 136.53125v8.535157c0 9.425781-7.640625 17.066406-17.066406 17.066406h-392.53125c-9.425781 0-17.066407-7.640625-17.066407-17.066406v-8.535157c0-75.40625 61.125-136.53125 136.53125-136.53125zm0 0" fill="#f29c1f"/><path d="m158.964844 443.222656h285.015625c18.851562 0 34.132812-15.28125 34.132812-34.132812v-34.132813c-.027343-9.414062-7.652343-17.039062-17.066406-17.066406h-409.601563c-9.414062.027344-17.039062 7.652344-17.066406 17.066406v34.132813c0 18.851562 15.28125 34.132812 34.132813 34.132812zm0 0" fill="#e57e25"/><path d="m166.449219 426.15625h263.089843c16.214844 1.082031 30.273438-11.101562 31.507813-27.304688v-27.308593c-.648437-8.085938-7.65625-14.160157-15.753906-13.652344h-378.09375c-8.097657-.507813-15.109375 5.566406-15.753907 13.652344v27.308593c1.234376 16.203126 15.289063 28.386719 31.503907 27.304688zm0 0" fill="#f29c1f"/><path d="m119.710938 511.363281c-28.277344 0-51.199219-22.921875-51.199219-51.199219 0-28.277343 22.921875-51.199218 51.199219-51.199218 28.277343 0 51.203124 22.921875 51.203124 51.199218-.035156 28.261719-22.9375 51.167969-51.203124 51.199219zm0 0" fill="#2c3e50"/><path d="m119.710938 502.703125c-23.492188 0-42.539063-19.046875-42.539063-42.539063 0-23.496093 19.046875-42.539062 42.539063-42.539062 23.496093 0 42.539062 19.042969 42.539062 42.539062-.023438 23.484376-19.054688 42.515626-42.539062 42.539063zm0 0" fill="#35495e"/><path d="m119.710938 485.636719c-14.066407 0-25.46875-11.40625-25.46875-25.472657 0-14.070312 11.402343-25.472656 25.46875-25.472656 14.070312 0 25.472656 11.402344 25.472656 25.472656-.011719 14.0625-11.410156 25.457032-25.472656 25.472657zm0 0" fill="#95a5a5"/><path d="m392.777344 511.363281c-28.273438 0-51.199219-22.921875-51.199219-51.199219 0-28.277343 22.925781-51.199218 51.199219-51.199218 28.277344 0 51.203125 22.921875 51.203125 51.199218-.035157 28.261719-22.9375 51.167969-51.203125 51.199219zm0 0" fill="#2c3e50"/><path d="m392.777344 502.703125c-23.492188 0-42.535156-19.046875-42.535156-42.539063 0-23.496093 19.042968-42.539062 42.535156-42.539062 23.496094 0 42.539062 19.042969 42.539062 42.539062-.023437 23.484376-19.054687 42.515626-42.539062 42.539063zm0 0" fill="#35495e"/><g fill="#f3d55b"><path d="m111.179688 170.15625c-3.453126 0-6.5625-2.078125-7.882813-5.265625s-.589844-6.859375 1.847656-9.300781l8.535157-8.53125c3.347656-3.234375 8.671874-3.1875 11.960937.101562 3.292969 3.292969 3.339844 8.617188.105469 11.964844l-8.535156 8.53125c-1.597657 1.601562-3.769532 2.5-6.03125 2.5zm0 0"/><path d="m179.445312 153.089844c-3.449218 0-6.5625-2.078125-7.882812-5.265625s-.589844-6.859375 1.851562-9.300781l8.53125-8.53125c3.347657-3.234376 8.671876-3.1875 11.960938.101562 3.292969 3.292969 3.339844 8.617188.105469 11.964844l-8.53125 8.53125c-1.601563 1.601562-3.773438 2.5-6.035157 2.5zm0 0"/><path d="m307.445312 153.089844c-3.449218 0-6.5625-2.078125-7.882812-5.265625s-.589844-6.859375 1.851562-9.300781l8.53125-8.53125c3.347657-3.234376 8.671876-3.1875 11.960938.101562 3.292969 3.292969 3.339844 8.617188.105469 11.964844l-8.53125 8.53125c-1.601563 1.601562-3.773438 2.5-6.035157 2.5zm0 0"/><path d="m239.179688 212.824219c-3.453126 0-6.5625-2.078125-7.882813-5.269531-1.320313-3.1875-.589844-6.855469 1.847656-9.296876l8.535157-8.53125c3.347656-3.234374 8.671874-3.1875 11.960937.101563 3.292969 3.292969 3.339844 8.613281.105469 11.960937l-8.535156 8.535157c-1.597657 1.601562-3.769532 2.5-6.03125 2.5zm0 0"/><path d="m170.914062 212.824219c-2.265624 0-4.433593-.898438-6.035156-2.5l-8.53125-8.535157c-3.234375-3.347656-3.1875-8.667968.101563-11.960937 3.292969-3.289063 8.613281-3.335937 11.960937-.101563l8.535156 8.53125c2.441407 2.441407 3.167969 6.109376 1.847657 9.296876-1.320313 3.191406-4.429688 5.269531-7.878907 5.269531zm0 0"/><path d="m85.578125 221.359375c-2.261719-.003906-4.433594-.902344-6.03125-2.5l-8.535156-8.535156c-3.234375-3.347657-3.1875-8.671875.105469-11.960938 3.289062-3.292969 8.613281-3.339843 11.960937-.105469l8.535156 8.535157c2.4375 2.4375 3.167969 6.109375 1.847657 9.296875-1.320313 3.1875-4.429688 5.265625-7.882813 5.269531zm0 0"/><path d="m384.246094 161.625c-2.261719 0-4.433594-.898438-6.035156-2.5l-8.53125-8.535156c-3.234376-3.347656-3.1875-8.667969.101562-11.960938 3.292969-3.292968 8.617188-3.339844 11.964844-.105468l8.53125 8.535156c2.441406 2.441406 3.171875 6.109375 1.851562 9.296875-1.320312 3.1875-4.433594 5.269531-7.882812 5.269531zm0 0"/><path d="m324.511719 212.824219c-2.261719 0-4.433594-.898438-6.03125-2.5l-8.535157-8.535157c-3.234374-3.347656-3.1875-8.667968.105469-11.960937 3.289063-3.289063 8.613281-3.335937 11.960938-.101563l8.535156 8.53125c2.4375 2.441407 3.167969 6.109376 1.847656 9.296876-1.320312 3.191406-4.429687 5.269531-7.882812 5.269531zm0 0"/><path d="m409.84375 221.359375c-3.449219-.003906-6.558594-2.082031-7.878906-5.269531-1.320313-3.1875-.59375-6.859375 1.847656-9.296875l8.535156-8.535157c3.347656-3.234374 8.667969-3.1875 11.960938.105469 3.292968 3.289063 3.335937 8.613281.101562 11.960938l-8.53125 8.535156c-1.601562 1.597656-3.769531 2.496094-6.035156 2.5zm0 0"/></g><path d="m290.378906 272.558594v25.597656l-14.421875 14.421875c-6.320312 6.316406-16.441406 6.691406-23.210937.855469l-33.875-29.101563 11.773437-11.773437zm0 0" fill="#4fba6f"/><path d="m230.644531 272.558594-40.019531 40.019531c-6.320312 6.316406-16.445312 6.691406-23.210938.855469l-29.355468-25.089844-18.347656-15.785156zm0 0" fill="#4fba6f"/><path d="m358.644531 272.558594v110.933594c0 9.425781-7.640625 17.066406-17.066406 17.066406s-17.066406-7.640625-17.066406-17.066406v-17.066407c0 9.425781-7.640625 17.066407-17.066407 17.066407-9.425781 0-17.066406-7.640626-17.066406-17.066407v-93.867187zm0 0" fill="#f3d55b"/><path d="m138.058594 288.34375-24.234375 24.234375c-6.320313 6.316406-16.445313 6.691406-23.210938.855469l-47.1875-40.449219c1.863281-.273437 3.746094-.414063 5.628907-.425781h70.65625zm0 0" fill="#4fba6f"/><path d="m211.957031 58.882812-79.640625-14.4375c-1.804687-.332031-3.199218-1.777343-3.457031-3.59375-.261719-1.820312.671875-3.597656 2.3125-4.417968l56.808594-28.410156zm0 0" fill="#e64c3c"/><path d="m102.644531 25.089844h-34.132812c-4.710938 0-8.53125-3.820313-8.53125-8.53125 0-4.714844 3.820312-8.535156 8.53125-8.535156h34.132812c4.714844 0 8.535157 3.820312 8.535157 8.535156 0 4.710937-3.820313 8.53125-8.535157 8.53125zm0 0" fill="#2fa8cc"/><path d="m34.378906 25.089844h-8.535156c-4.710938 0-8.53125-3.820313-8.53125-8.53125 0-4.714844 3.820312-8.535156 8.53125-8.535156h8.535156c4.710938 0 8.535156 3.820312 8.535156 8.535156 0 4.710937-3.824218 8.53125-8.535156 8.53125zm0 0" fill="#2fa8cc"/><path d="m85.578125 59.222656h-34.132813c-4.710937 0-8.53125-3.820312-8.53125-8.53125 0-4.714844 3.820313-8.535156 8.53125-8.535156h34.132813c4.714844 0 8.535156 3.820312 8.535156 8.535156 0 4.710938-3.820312 8.53125-8.535156 8.53125zm0 0" fill="#2fa8cc"/><path d="m17.3125 59.222656h-8.535156c-4.710938 0-8.53125-3.820312-8.53125-8.53125 0-4.714844 3.820312-8.535156 8.53125-8.535156h8.535156c4.710938 0 8.53125 3.820312 8.53125 8.535156 0 4.710938-3.820312 8.53125-8.53125 8.53125zm0 0" fill="#2fa8cc"/><path d="m256.246094 161.625c-3.308594 0-6.316406-1.914062-7.722656-4.90625l-68.265626-145.066406c-1.640624-4.183594.242188-8.921875 4.304688-10.835938 4.0625-1.914062 8.914062-.351562 11.097656 3.574219l68.265625 145.066406c2 4.265625.167969 9.34375-4.097656 11.347657-1.117187.535156-2.34375.8125-3.582031.820312zm0 0" fill="#af8066"/><path d="m273.3125 161.625h-34.132812c-4.714844 0-8.535157-3.820312-8.535157-8.535156 0-4.710938 3.820313-8.53125 8.535157-8.53125h34.132812c4.710938 0 8.53125 3.820312 8.53125 8.53125 0 4.714844-3.820312 8.535156-8.53125 8.535156zm0 0" fill="#e57e25"/><path d="m392.90625 485.636719c-14.066406 0-25.472656-11.40625-25.472656-25.472657 0-14.070312 11.40625-25.472656 25.472656-25.472656 14.070312 0 25.472656 11.402344 25.472656 25.472656-.015625 14.0625-11.410156 25.457032-25.472656 25.472657zm0 0" fill="#95a5a5"/></svg>