<svg height="504pt" viewBox="0 0 504 504.65574" width="504pt" xmlns="http://www.w3.org/2000/svg"><g fill="#fb7b76"><path d="m151.410156 269.640625h-12.589844c-4.636718 0-8.394531-3.757813-8.394531-8.394531 0-4.636719 3.757813-8.394532 8.394531-8.394532h12.589844c4.636719 0 8.394532 3.757813 8.394532 8.394532 0 4.636718-3.757813 8.394531-8.394532 8.394531zm0 0"/><path d="m106.730469 267.960938c-.605469 0-1.210938-.0625-1.804688-.191407-8.800781-1.921875-17.207031-5.335937-24.859375-10.089843-2.550781-1.582032-4.0625-4.402344-3.96875-7.398438.09375-3 1.78125-5.71875 4.425782-7.136719 2.640624-1.414062 5.839843-1.316406 8.390624.265625 6.042969 3.757813 12.683594 6.453125 19.640626 7.972656 4.1875.914063 7.011718 4.839844 6.554687 9.101563-.460937 4.261719-4.058594 7.492187-8.34375 7.492187zm-44.953125-31.484376c-2.875.003907-5.550782-1.46875-7.09375-3.894531-4.847656-7.613281-8.351563-15.996093-10.367188-24.792969-.738281-2.949218.175782-6.066406 2.386719-8.148437 2.210937-2.085937 5.378906-2.808594 8.277344-1.898437 2.898437.914062 5.078125 3.320312 5.695312 6.292968 1.59375 6.933594 4.359375 13.546875 8.175781 19.550782 1.640626 2.582031 1.746094 5.851562.273438 8.535156s-4.289062 4.351562-7.347656 4.355468zm-9.292969-54.128906c-2.554687.003906-4.972656-1.160156-6.566406-3.15625s-2.191407-4.609375-1.625-7.101562c2.007812-8.792969 5.503906-17.179688 10.332031-24.800782 2.496094-3.917968 7.695312-5.070312 11.613281-2.574218s5.066407 7.695312 2.570313 11.613281c-3.8125 6.007813-6.566406 12.625-8.148438 19.566406-.898437 3.785157-4.285156 6.457031-8.175781 6.453125zm31.894531-44.671875c-3.742187 0-7.035156-2.476562-8.066406-6.078125-1.03125-3.597656.445312-7.445312 3.617188-9.429687 7.652343-4.78125 16.0625-8.214844 24.871093-10.15625 2.933594-.65625 5.992188.304687 8.019531 2.519531 2.03125 2.214844 2.722657 5.347656 1.8125 8.210938-.910156 2.863281-3.277343 5.019531-6.214843 5.660156-6.945313 1.53125-13.574219 4.238281-19.605469 8.007812-1.328125.839844-2.863281 1.289063-4.433594 1.300782zm0 0"/><path d="m151.410156 126.949219h-12.589844c-4.636718 0-8.394531-3.757813-8.394531-8.390625 0-4.636719 3.757813-8.394532 8.394531-8.394532h12.589844c4.636719 0 8.394532 3.757813 8.394532 8.394532 0 4.632812-3.757813 8.390625-8.394532 8.390625zm0 0"/><path d="m365.441406 269.640625h-12.589844c-4.632812 0-8.390624-3.757813-8.390624-8.394531 0-4.636719 3.757812-8.394532 8.390624-8.394532h12.589844c4.636719 0 8.394532 3.757813 8.394532 8.394532 0 4.636718-3.757813 8.394531-8.394532 8.394531zm0 0"/><path d="m373.835938 504.65625h-18.464844c-4.636719 0-8.394532-3.757812-8.394532-8.394531s3.757813-8.394531 8.394532-8.394531h18.464844c1.9375 0 3.894531-.046876 5.875-.140626 4.601562-.132812 8.480468 3.398438 8.78125 7.988282.21875 4.628906-3.355469 8.558594-7.984376 8.78125-2.238281.101562-4.4375.160156-6.671874.160156zm-51.285157 0h-24.648437c-4.636719 0-8.394532-3.757812-8.394532-8.394531s3.757813-8.394531 8.394532-8.394531h24.648437c4.636719 0 8.394531 3.757812 8.394531 8.394531s-3.757812 8.394531-8.394531 8.394531zm-57.519531 0h-24.652344c-4.632812 0-8.390625-3.757812-8.390625-8.394531s3.757813-8.394531 8.390625-8.394531h24.652344c4.636719 0 8.394531 3.757812 8.394531 8.394531s-3.757812 8.394531-8.394531 8.394531zm-57.519531 0h-24.652344c-4.636719 0-8.394531-3.757812-8.394531-8.394531s3.757812-8.394531 8.394531-8.394531h24.652344c4.636719 0 8.394531 3.757812 8.394531 8.394531s-3.757812 8.394531-8.394531 8.394531zm-57.519531 0h-24.652344c-4.636719 0-8.394532-3.757812-8.394532-8.394531s3.757813-8.394531 8.394532-8.394531h24.652344c4.632812 0 8.394531 3.757812 8.394531 8.394531s-3.761719 8.394531-8.394531 8.394531zm262.328124-5.976562c-4.144531.011718-7.675781-3-8.316406-7.09375-.644531-4.09375 1.796875-8.042969 5.746094-9.296876 7.285156-2.34375 14.3125-5.410156 20.984375-9.152343 2.621094-1.546875 5.875-1.554688 8.5-.019531 2.628906 1.535156 4.21875 4.375 4.160156 7.417968-.0625 3.039063-1.765625 5.8125-4.449219 7.242188-7.664062 4.292968-15.734374 7.808594-24.097656 10.492187-.816406.265625-1.667968.402344-2.527344.410157zm48.683594-29.5625c-3.402344-.007813-6.464844-2.066407-7.753906-5.214844-1.285156-3.148438-.546875-6.765625 1.875-9.152344 5.433594-5.371094 10.289062-11.289062 14.488281-17.667969 2.550781-3.875 7.757813-4.949219 11.628907-2.398437 3.875 2.550781 4.945312 7.757812 2.398437 11.628906-4.851563 7.355469-10.453125 14.1875-16.722656 20.378906-1.566407 1.550782-3.683594 2.425782-5.890625 2.425782zm29.558594-48.679688c-.828125 0-1.65625-.125-2.449219-.371094-4.433593-1.351562-6.933593-6.039062-5.582031-10.476562 2.222656-7.289063 3.648438-14.796875 4.253906-22.390625.371094-4.621094 4.414063-8.070313 9.035156-7.703125 4.625.371094 8.070313 4.414062 7.703126 9.035156-.707032 8.808594-2.363282 17.511719-4.9375 25.960938-1.066407 3.527343-4.3125 5.945312-7.996094 5.960937zm2.519531-56.867188c-3.96875-.003906-7.390625-2.78125-8.210937-6.664062-1.570313-7.449219-3.945313-14.707031-7.082032-21.648438-1.382812-2.757812-1.144531-6.050781.625-8.578124 1.769532-2.527344 4.785157-3.878907 7.851563-3.523438 3.0625.359375 5.683594 2.371094 6.824219 5.238281 3.632812 8.046875 6.386718 16.460938 8.21875 25.09375.457031 2.179688.03125 4.453125-1.183594 6.320313-1.21875 1.863281-3.125 3.167968-5.304688 3.628906-.574218.109375-1.15625.160156-1.738281.148438zm-25.179687-51.023437c-2.464844 0-4.800782-1.078125-6.398438-2.953125-4.964844-5.820312-10.511718-11.121094-16.550781-15.816406-2.542969-1.773438-3.898437-4.808594-3.523437-7.890625.371093-3.078125 2.414062-5.703125 5.308593-6.820313 2.894531-1.117187 6.167969-.546875 8.515625 1.484375 6.941406 5.398438 13.316406 11.488281 19.027344 18.179688 2.125 2.492187 2.605469 5.992187 1.234375 8.964843-1.371094 2.972657-4.347656 4.878907-7.621094 4.875zm-46.164063-33.464844c-1.101562 0-2.191406-.214843-3.207031-.636719-7.085938-2.929687-14.449219-5.148437-21.972656-6.625-4.550782-.890624-7.515625-5.304687-6.625-9.851562.894531-4.550781 5.304687-7.515625 9.855468-6.625 8.621094 1.679688 17.058594 4.210938 25.179688 7.554688 3.703125 1.53125 5.804688 5.464843 5.023438 9.394531-.78125 3.929687-4.230469 6.757812-8.238282 6.753906zm0 0"/><path d="m92.320312 504.65625h-12.589843c-4.636719 0-8.394531-3.757812-8.394531-8.394531s3.757812-8.394531 8.394531-8.394531h12.589843c4.636719 0 8.394532 3.757812 8.394532 8.394531s-3.757813 8.394531-8.394532 8.394531zm0 0"/><path d="m453.574219 126.949219h-12.589844c-4.636719 0-8.394531-3.757813-8.394531-8.390625 0-4.636719 3.757812-8.394532 8.394531-8.394532h12.589844c4.636719 0 8.394531 3.757813 8.394531 8.394532 0 4.632812-3.757812 8.390625-8.394531 8.390625zm0 0"/><path d="m413.511719 126.949219h-20.605469c-4.636719 0-8.394531-3.757813-8.394531-8.390625 0-4.636719 3.757812-8.394532 8.394531-8.394532h20.605469c4.636719 0 8.394531 3.757813 8.394531 8.394532 0 4.632812-3.757812 8.390625-8.394531 8.390625zm0 0"/><path d="m365.441406 126.949219h-12.589844c-4.632812 0-8.390624-3.757813-8.390624-8.390625 0-4.636719 3.757812-8.394532 8.390624-8.394532h12.589844c4.636719 0 8.394532 3.757813 8.394532 8.394532 0 4.632812-3.757813 8.390625-8.394532 8.390625zm0 0"/></g><path d="m352.851562 87.585938v274.382812h-201.441406v-273.628906c.214844-3.339844 1.753906-6.460938 4.273438-8.664063 2.519531-2.207031 5.816406-3.316406 9.15625-3.085937h175.421875c6.5-.402344 12.117187 4.5 12.589843 10.996094zm0 0" fill="#b0d3f0"/><path d="m352.851562 200.5625v161.40625h-201.441406v-104.5c54.425782-49.660156 129.078125-70.75 201.441406-56.90625zm0 0" fill="#90bae1"/><path d="m352.851562 361.96875v55.394531c-.214843 3.34375-1.753906 6.460938-4.273437 8.667969-2.519531 2.203125-5.8125 3.3125-9.15625 3.082031h-174.582031c-3.339844.230469-6.636719-.878906-9.15625-3.082031-2.519532-2.207031-4.058594-5.324219-4.273438-8.667969v-55.394531zm0 0" fill="#35495e"/><path d="m193.378906 76.589844h117.507813v16.789062c0 9.269532-7.515625 16.785156-16.789063 16.785156h-83.933594c-9.269531 0-16.785156-7.515624-16.785156-16.785156zm0 0" fill="#2c3e50"/><path d="m344.460938 84.984375v335.738281h-184.65625v-335.738281zm0-8.394531h-184.65625c-4.636719 0-8.394532 3.757812-8.394532 8.394531v335.738281c0 4.632813 3.757813 8.390625 8.394532 8.390625h184.65625c4.632812 0 8.390624-3.757812 8.390624-8.390625v-335.738281c0-4.636719-3.757812-8.394531-8.390624-8.394531zm0 0" fill="#2c3e50"/><path d="m252.132812 311.605469c-41.699218-.050781-75.492187-33.839844-75.542968-75.539063-.003906-3.144531.1875-6.289062.5625-9.410156 4.679687-37.601562 36.492187-65.914062 74.382812-66.207031 37.890625-.289063 70.132813 27.535156 75.390625 65.058593.488281 3.496094.738281 7.023438.746094 10.558594-.050781 41.699219-33.839844 75.488282-75.539063 75.539063zm0-134.292969c-29.613281-.015625-54.609374 22.011719-58.320312 51.390625-.289062 2.445313-.433594 4.902344-.433594 7.363281 0 32.449219 26.304688 58.753906 58.753906 58.753906 32.449219 0 58.753907-26.304687 58.753907-58.753906-.011719-2.761718-.210938-5.519531-.597657-8.25-4.164062-28.9375-28.921874-50.441406-58.15625-50.503906zm0 92.328125c-2.226562 0-4.363281-.886719-5.9375-2.460937l-33.570312-33.574219c-2.402344-2.398438-3.121094-6.007813-1.820312-9.144531 1.296874-3.136719 4.359374-5.179688 7.753906-5.183594h67.144531c3.394531.003906 6.457031 2.046875 7.753906 5.183594 1.300781 3.136718.582031 6.746093-1.816406 9.144531l-33.574219 33.574219c-1.574218 1.574218-3.710937 2.460937-5.933594 2.460937zm-13.3125-33.574219 13.3125 13.3125 13.308594-13.3125zm0 0" fill="#955ba5"/><path d="m252.132812 269.640625c-2.226562 0-4.363281-.886719-5.9375-2.460937l-33.570312-33.574219c-2.402344-2.398438-3.121094-6.007813-1.820312-9.144531 1.296874-3.136719 4.359374-5.179688 7.753906-5.183594h67.144531c3.394531.003906 6.457031 2.046875 7.753906 5.183594 1.300781 3.136718.582031 6.746093-1.816406 9.144531l-33.574219 33.574219c-1.574218 1.574218-3.710937 2.460937-5.933594 2.460937zm0 0" fill="#955ba5"/><path d="m285.703125 219.277344h25.183594v16.789062h-25.183594zm0 0" fill="#955ba5"/><path d="m218.558594 236.066406h-33.070313l-.503906-16.789062h33.574219zm0 0" fill="#955ba5"/><path d="m243.738281 261.246094h16.785157v41.96875h-16.785157zm0 0" fill="#955ba5"/><path d="m268.917969 403.933594h-33.574219c-4.636719 0-8.394531-3.757813-8.394531-8.394532 0-4.632812 3.757812-8.390624 8.394531-8.390624h33.574219c4.636719 0 8.394531 3.757812 8.394531 8.390624 0 4.636719-3.757812 8.394532-8.394531 8.394532zm0 0" fill="#2c3e50"/><path d="m453.574219 126.949219c-2.347657 0-4.589844-.980469-6.179688-2.710938-4.515625-4.910156-44.179687-48.730469-44.179687-73.878906 0-27.8125 22.546875-50.359375 50.359375-50.359375s50.359375 22.546875 50.359375 50.359375c0 25.179687-39.667969 68.96875-44.183594 73.863281-1.585938 1.734375-3.824219 2.722656-6.175781 2.726563zm0 0" fill="#e64c3c"/><path d="m453.574219 105.96875c-17.390625-20.246094-33.574219-44.753906-33.574219-55.566406 0-18.542969 15.03125-33.574219 33.574219-33.574219s33.574219 15.03125 33.574219 33.574219c0 10.769531-16.175782 35.269531-33.574219 55.566406zm0 0" fill="#fb7b76"/><path d="m80.066406 504.65625c-2.339844 0-4.574218-.976562-6.160156-2.695312-7.53125-8.148438-73.578125-80.746094-73.578125-121.109376.636719-43.433593 36.300781-78.160156 79.738281-77.636718 43.433594-.523438 79.101563 34.203125 79.738282 77.636718 0 40.363282-66.050782 112.960938-73.578126 121.109376-1.589843 1.71875-3.820312 2.695312-6.160156 2.695312zm0 0" fill="#e64c3c"/><path d="m80.066406 483.773438c-32.222656-36.191407-62.953125-81.351563-62.953125-102.921876.625-34.167968 28.785157-61.382812 62.953125-60.851562 34.167969-.53125 62.324219 26.683594 62.949219 60.851562 0 21.570313-30.726563 66.730469-62.949219 102.921876zm0 0" fill="#fb7b76"/><path d="m453.574219 76.589844c-6.667969-.097656-13.050781-2.707032-17.878907-7.300782-4.636718-4.804687-7.25-11.203124-7.300781-17.878906.03125-3.292968.714844-6.546875 2.003907-9.578125 1.160156-3.109375 2.964843-5.9375 5.296874-8.300781 6.105469-5.800781 14.621094-8.328125 22.90625-6.796875 1.582032.265625 3.113282.773437 4.539063 1.5 1.546875.503906 2.992187 1.273437 4.273437 2.277344 1.519532 1.003906 2.769532 2.011719 4.039063 3.019531 4.59375 4.828125 7.203125 11.210938 7.300781 17.878906-.101562 6.664063-2.707031 13.046875-7.300781 17.878906-4.832031 4.59375-11.214844 7.199219-17.878906 7.300782zm0 0" fill="#2c3e50"/><path d="m126.230469 382.949219c0 25.496093-20.667969 46.164062-46.164063 46.164062s-46.164062-20.667969-46.164062-46.164062c0-25.492188 20.667968-46.164063 46.164062-46.164063s46.164063 20.671875 46.164063 46.164063zm0 0" fill="#2c3e50"/></svg>