<svg height="512pt" viewBox="0 -55 512 512" width="512pt" xmlns="http://www.w3.org/2000/svg"><path d="m68.265625 123.433594v.300781c0 11.78125-9.550781 21.332031-21.332031 21.332031s-21.332032-9.550781-21.332032-21.332031 9.550782-21.335937 21.332032-21.335937c1.871094 0 3.738281.246093 5.546875.726562zm0 0" fill="#2980ba"/><path d="m213.597656 290.132812h84.804688c4.859375 0 8.796875 3.941407 8.796875 8.796876v84.804687c0 4.859375-3.9375 8.800781-8.796875 8.800781h-84.804688c-4.859375 0-8.796875-3.941406-8.796875-8.800781v-84.804687c0-4.855469 3.9375-8.796876 8.796875-8.796876zm0 0" fill="#4fba6f"/><path d="m204.800781 51.199219h102.398438v85.335937c0 4.710938-3.820313 8.53125-8.53125 8.53125h-85.335938c-4.710937 0-8.53125-3.820312-8.53125-8.53125zm0 0" fill="#f9eab0"/><path d="m494.933594 59.734375v68.265625c0 4.710938-3.820313 8.535156-8.535156 8.535156h-68.265626c-4.710937 0-8.53125-3.824218-8.53125-8.535156v-68.265625zm0 0" fill="#f29c1f"/><path d="m496.230469 59.734375h-87.894531c-6.75 0-9.8125-9.855469-4.625-14.910156l41.925781-25.761719c4.09375-2.382812 9.152343-2.382812 13.242187 0l41.96875 25.773438c5.179688 5.042968 2.140625 14.898437-4.617187 14.898437zm0 0" fill="#d25627"/><path d="m307.199219 51.199219h-102.398438l6.917969-27.691407c.957031-3.777343 4.355469-6.429687 8.253906-6.441406h72.054688c3.898437.011719 7.296875 2.664063 8.253906 6.441406zm0 0" fill="#f5efca"/><path d="m247.464844 366.933594c-2.261719 0-4.429688-.898438-6.03125-2.5l-8.535156-8.535156c-3.230469-3.347657-3.1875-8.667969.105468-11.960938 3.292969-3.292969 8.613282-3.335938 11.960938-.105469l2.5 2.5 19.570312-19.566406c3.347656-3.234375 8.667969-3.1875 11.960938.105469 3.292968 3.292968 3.335937 8.613281.105468 11.960937l-25.601562 25.601563c-1.601562 1.601562-3.769531 2.5-6.035156 2.5zm0 0" fill="#ecf0f1"/><path d="m409.863281 290.132812h84.804688c4.859375 0 8.796875 3.941407 8.796875 8.796876v84.804687c0 4.859375-3.9375 8.800781-8.796875 8.800781h-84.804688c-4.859375 0-8.796875-3.941406-8.796875-8.800781v-84.804687c0-4.855469 3.9375-8.796876 8.796875-8.796876zm0 0" fill="#bdc3c7"/><path d="m17.332031 290.132812h84.804688c4.859375 0 8.796875 3.941407 8.796875 8.796876v84.804687c0 4.859375-3.9375 8.800781-8.796875 8.800781h-84.804688c-4.859375 0-8.796875-3.941406-8.796875-8.800781v-84.804687c0-4.855469 3.9375-8.796876 8.796875-8.796876zm0 0" fill="#4fba6f"/><path d="m51.199219 366.933594c-2.261719 0-4.433594-.898438-6.03125-2.5l-8.535157-8.535156c-3.234374-3.347657-3.1875-8.667969.105469-11.960938 3.289063-3.292969 8.613281-3.335938 11.960938-.105469l2.5 2.5 19.566406-19.566406c3.347656-3.234375 8.671875-3.1875 11.964844.105469 3.289062 3.292968 3.335937 8.613281.101562 11.960937l-25.597656 25.601563c-1.601563 1.601562-3.769531 2.5-6.035156 2.5zm0 0" fill="#ecf0f1"/><path d="m273.066406 93.867188h-34.132812c-4.714844 0-8.535156-3.820313-8.535156-8.535157 0-4.710937 3.820312-8.53125 8.535156-8.53125h34.132812c4.714844 0 8.535156 3.820313 8.535156 8.53125 0 4.714844-3.820312 8.535157-8.535156 8.535157zm0 0" fill="#fac176"/><path d="m51.199219 21.332031c0 11.785157-9.550781 21.335938-21.332031 21.335938s-21.332032-9.550781-21.332032-21.335938c0-11.78125 9.550782-21.332031 21.332032-21.332031s21.332031 9.550781 21.332031 21.332031zm0 0" fill="#2980ba"/><path d="m119.464844 93.867188c0 18.851562-15.28125 34.132812-34.132813 34.132812-18.851562 0-34.132812-15.28125-34.132812-34.132812 0-18.851563 15.28125-34.132813 34.132812-34.132813 18.851563 0 34.132813 15.28125 34.132813 34.132813zm0 0" fill="#2fa8cc"/><path d="m460.800781 110.933594v25.601562h-17.066406v-25.601562c0-4.714844 3.820313-8.535156 8.53125-8.535156 4.714844 0 8.535156 3.820312 8.535156 8.535156zm0 0" fill="#d25627"/><path d="m204.800781 349.867188h-93.867187c-4.714844 0-8.535156-3.820313-8.535156-8.535157 0-4.710937 3.820312-8.53125 8.535156-8.53125h93.867187c4.710938 0 8.53125 3.820313 8.53125 8.53125 0 4.714844-3.820312 8.535157-8.53125 8.535157zm0 0" fill="#e57e25"/><path d="m401.066406 349.867188h-93.867187c-4.710938 0-8.53125-3.820313-8.53125-8.535157 0-4.710937 3.820312-8.53125 8.53125-8.53125h93.867187c4.714844 0 8.535156 3.820313 8.535156 8.53125 0 4.714844-3.820312 8.535157-8.535156 8.535157zm0 0" fill="#e57e25"/><path d="m341.332031 375.464844c-3.582031.003906-6.785156-2.230469-8.019531-5.597656-1.230469-3.363282-.230469-7.140626 2.507812-9.453126l22.578126-19.082031-22.585938-19.078125c-2.328125-1.96875-3.429688-5.03125-2.890625-8.035156.542969-3 2.644531-5.488281 5.511719-6.519531 2.871094-1.03125 6.074218-.453125 8.402344 1.515625l23.195312 19.625c3.378906 3.15625 5.339844 7.542968 5.4375 12.164062.101562 4.621094-1.667969 9.089844-4.910156 12.386719l-23.722656 20.085937c-1.542969 1.292969-3.492188 1.996094-5.503907 1.988282zm0 0" fill="#e57e25"/><path d="m145.066406 375.464844c-3.578125 0-6.773437-2.234375-8.003906-5.589844-1.234375-3.359375-.242188-7.128906 2.484375-9.445312l22.46875-19.097657-22.46875-19.097656c-2.421875-1.941406-3.59375-5.046875-3.066406-8.105469.527343-3.058594 2.675781-5.589844 5.609375-6.609375 2.933594-1.015625 6.1875-.363281 8.496094 1.710938l23.042968 19.628906c3.367188 3.15625 5.320313 7.542969 5.414063 12.160156.097656 4.617188-1.675781 9.078125-4.910157 12.371094l-23.578124 20.070313c-1.539063 1.292968-3.480469 2.003906-5.488282 2.003906zm0 0" fill="#e57e25"/><g fill="#81ccb8"><path d="m68.265625 256c0 4.710938-3.820313 8.535156-8.53125 8.535156-4.714844 0-8.535156-3.824218-8.535156-8.535156s3.820312-8.535156 8.535156-8.535156c4.710937 0 8.53125 3.824218 8.53125 8.535156zm0 0"/><path d="m68.265625 221.867188c0 4.710937-3.820313 8.53125-8.53125 8.53125-4.714844 0-8.535156-3.820313-8.535156-8.53125 0-4.714844 3.820312-8.535157 8.535156-8.535157 4.710937 0 8.53125 3.820313 8.53125 8.535157zm0 0"/><path d="m264.535156 256c0 4.710938-3.824218 8.535156-8.535156 8.535156s-8.535156-3.824218-8.535156-8.535156 3.824218-8.535156 8.535156-8.535156 8.535156 3.824218 8.535156 8.535156zm0 0"/><path d="m264.535156 221.867188c0 4.710937-3.824218 8.53125-8.535156 8.53125s-8.535156-3.820313-8.535156-8.53125c0-4.714844 3.824218-8.535157 8.535156-8.535157s8.535156 3.820313 8.535156 8.535157zm0 0"/><path d="m460.800781 256c0 4.710938-3.820312 8.535156-8.535156 8.535156-4.710937 0-8.53125-3.824218-8.53125-8.535156s3.820313-8.535156 8.53125-8.535156c4.714844 0 8.535156 3.824218 8.535156 8.535156zm0 0"/><path d="m460.800781 221.867188c0 4.710937-3.820312 8.53125-8.535156 8.53125-4.710937 0-8.53125-3.820313-8.53125-8.53125 0-4.714844 3.820313-8.535157 8.53125-8.535157 4.714844 0 8.535156 3.820313 8.535156 8.535157zm0 0"/><path d="m68.265625 187.734375c0 4.710937-3.820313 8.53125-8.53125 8.53125-4.714844 0-8.535156-3.820313-8.535156-8.53125 0-4.714844 3.820312-8.535156 8.535156-8.535156 4.710937 0 8.53125 3.820312 8.53125 8.535156zm0 0"/><path d="m264.535156 187.734375c0 4.710937-3.824218 8.53125-8.535156 8.53125s-8.535156-3.820313-8.535156-8.53125c0-4.714844 3.824218-8.535156 8.535156-8.535156s8.535156 3.820312 8.535156 8.535156zm0 0"/><path d="m460.800781 187.734375c0 4.710937-3.820312 8.53125-8.535156 8.53125-4.710937 0-8.53125-3.820313-8.53125-8.53125 0-4.714844 3.820313-8.535156 8.53125-8.535156 4.714844 0 8.535156 3.820312 8.535156 8.535156zm0 0"/></g><path d="m298.402344 401.066406h-84.804688c-9.566406-.007812-17.320312-7.761718-17.332031-17.332031v-84.804687c.011719-9.566407 7.765625-17.320313 17.332031-17.328126h84.804688c9.566406.007813 17.320312 7.761719 17.332031 17.328126v84.804687c-.011719 9.570313-7.765625 17.324219-17.332031 17.332031zm-84.804688-102.398437-.265625 85.066406 85.070313.265625c.144531 0 .265625-.117188.265625-.265625v-84.804687zm0 0" fill="#24ae5f"/><path d="m494.667969 401.066406h-84.804688c-9.566406-.007812-17.320312-7.761718-17.328125-17.332031v-84.804687c.007813-9.566407 7.761719-17.320313 17.328125-17.328126h84.804688c9.570312.007813 17.324219 7.761719 17.332031 17.328126v84.804687c-.007812 9.570313-7.761719 17.324219-17.332031 17.332031zm-84.804688-102.398437-.261719 85.066406 85.066407.265625c.144531-.003906.261719-.121094.265625-.265625v-84.804687zm0 0" fill="#95a5a5"/><path d="m102.136719 401.066406h-84.804688c-9.570312-.007812-17.3242185-7.761718-17.332031-17.332031v-84.804687c.0078125-9.566407 7.761719-17.320313 17.332031-17.328126h84.804688c9.566406.007813 17.320312 7.761719 17.328125 17.328126v84.804687c-.007813 9.570313-7.761719 17.324219-17.328125 17.332031zm-84.804688-102.398437-.265625 85.066406 85.070313.265625c.070312 0 .136719-.027344.1875-.078125.046875-.050781.074219-.117187.074219-.1875v-84.804687zm0 0" fill="#24ae5f"/></svg>