<svg height="512pt" viewBox="0 0 512 512.01623" width="512pt" xmlns="http://www.w3.org/2000/svg"><path d="m206.660156 220.707031h-188.996094c-9.738281.027344-17.6249995 7.914063-17.6562495 17.652344v256c.03125 9.742187 7.9179685 17.628906 17.6562495 17.65625h476.6875c9.738282-.027344 17.628907-7.914063 17.65625-17.65625v-256c-.027343-9.738281-7.917968-17.625-17.65625-17.652344h-188.996093" fill="#2980ba"/><path d="m210.105469 220.707031h-176.003907c-9.398437.371094-16.738281 8.253907-16.4375 17.652344v256c-.300781 9.402344 7.039063 17.285156 16.4375 17.65625h443.8125c9.398438-.371094 16.738282-8.253906 16.4375-17.65625v-256c.300782-9.398437-7.039062-17.28125-16.4375-17.652344h-176.003906" fill="#2fa8cc"/><path d="m353.113281 220.707031c4.5625.28125 8.5-3.164062 8.824219-7.726562v-205.238281c-.324219-4.5625-4.261719-8.007813-8.824219-7.726563h-194.207031c-4.566406-.28125-8.503906 3.164063-8.828125 7.726563v205.363281c.320313 4.488281 4.195313 7.878906 8.683594 7.601562h47.925781c3.199219.003907 6.140625 1.734375 7.699219 4.527344l33.933593 61.574219c1.5625 2.773437 4.503907 4.488281 7.6875 4.488281 3.1875 0 6.125-1.714844 7.6875-4.488281l33.933594-61.574219c1.558594-2.792969 4.503906-4.523437 7.699219-4.527344zm0 0" fill="#802d40"/><path d="m200.484375 97.121094h-15.097656c-4.875 0-8.828125-3.953125-8.828125-8.828125s3.953125-8.828125 8.828125-8.828125h15.097656c4.875 0 8.824219 3.953125 8.824219 8.828125s-3.949219 8.828125-8.824219 8.828125zm0 0" fill="#e64c3c"/><path d="m326.628906 97.121094h-15.09375c-4.875 0-8.828125-3.953125-8.828125-8.828125s3.953125-8.828125 8.828125-8.828125h15.09375c4.875 0 8.828125 3.953125 8.828125 8.828125s-3.953125 8.828125-8.828125 8.828125zm0 0" fill="#e64c3c"/><path d="m132.421875 274.640625c-28.679687 37.816406-44.183594 83.984375-44.136719 131.445313h-26.394531c-2.394531-.003907-4.6875-.96875-6.363281-2.679688-1.675782-1.710938-2.597656-4.019531-2.554688-6.414062.996094-49.125 16.371094-96.878907 44.226563-137.355469 1.425781-1.929688 3.566406-3.203125 5.941406-3.535157 2.375-.332031 4.78125.304688 6.683594 1.769532zm0 0" fill="#e4c05c"/><path d="m152.902344 290.796875c-23.359375 34.039063-36.527344 74.03125-37.960938 115.289063h-26.65625c-.046875-47.460938 15.457032-93.628907 44.136719-131.445313zm0 0" fill="#c03a2b"/><path d="m273.664062 406.085938h-158.722656c1.433594-41.257813 14.601563-81.25 37.960938-115.289063l126.144531 99.488281c2.976563 2.308594 4.160156 6.253906 2.945313 9.820313-1.214844 3.566406-4.5625 5.96875-8.328126 5.980469zm0 0" fill="#f0c419"/><path d="m173.742188 307.320312c-8.945313 2.179688-14.714844 10.863282-13.253907 19.957032 1.457031 9.089844 9.660157 15.53125 18.835938 14.796875 9.175781-.730469 16.25-8.394531 16.25-17.601563zm0 0" fill="#cc4b4c"/><path d="m167.910156 406.085938c0-14.625-11.859375-26.484376-26.484375-26.484376s-26.484375 11.859376-26.484375 26.484376zm0 0" fill="#cc4b4c"/><path d="m211.878906 370.773438c0 4.875-3.953125 8.828124-8.828125 8.828124s-8.828125-3.953124-8.828125-8.828124 3.953125-8.828126 8.828125-8.828126 8.828125 3.953126 8.828125 8.828126zm0 0" fill="#24ae5f"/><path d="m144.851562 344.292969c0 4.875-3.953124 8.828125-8.828124 8.828125s-8.828126-3.953125-8.828126-8.828125 3.953126-8.828125 8.828126-8.828125 8.828124 3.953125 8.828124 8.828125zm0 0" fill="#24ae5f"/><g fill="#35495e"><path d="m467.871094 300.152344h-141.242188c-4.875 0-8.828125-3.949219-8.828125-8.824219s3.953125-8.828125 8.828125-8.828125h141.242188c4.875 0 8.828125 3.953125 8.828125 8.828125s-3.953125 8.824219-8.828125 8.824219zm0 0"/><path d="m406.078125 335.464844h-79.449219c-4.875 0-8.828125-3.953125-8.828125-8.828125s3.953125-8.828125 8.828125-8.828125h79.449219c4.875 0 8.828125 3.953125 8.828125 8.828125s-3.953125 8.828125-8.828125 8.828125zm0 0"/><path d="m344.285156 467.878906c-4.875 0-8.828125-3.953125-8.828125-8.828125v-70.621093c0-14.625 11.855469-26.484376 26.480469-26.484376 14.628906 0 26.484375 11.859376 26.484375 26.484376 0 4.875-3.953125 8.828124-8.828125 8.828124s-8.828125-3.953124-8.828125-8.828124-3.949219-8.828126-8.828125-8.828126c-4.875 0-8.824219 3.953126-8.824219 8.828126v70.621093c0 4.875-3.953125 8.828125-8.828125 8.828125zm0 0"/><path d="m361.9375 432.566406h-35.308594c-4.875 0-8.828125-3.949218-8.828125-8.824218 0-4.878907 3.953125-8.828126 8.828125-8.828126h35.308594c4.878906 0 8.828125 3.949219 8.828125 8.828126 0 4.875-3.949219 8.824218-8.828125 8.824218zm0 0"/><path d="m379.59375 467.878906h-52.964844c-4.875 0-8.828125-3.953125-8.828125-8.828125s3.953125-8.828125 8.828125-8.828125h52.964844c4.875 0 8.828125 3.953125 8.828125 8.828125s-3.953125 8.828125-8.828125 8.828125zm0 0"/></g><path d="m238.351562 388.570312c-4.914062.039063-8.929687-3.914062-8.96875-8.828124-.039062-4.914063 3.914063-8.929688 8.828126-8.96875 4.933593.054687 8.917968 4.039062 8.96875 8.96875 0 4.875-3.953126 8.828124-8.828126 8.828124zm0 0" fill="#24ae5f"/><path d="m256.007812 406.085938v52.964843c-.070312 9.71875-7.933593 17.582031-17.65625 17.65625-9.738281-.03125-17.625-7.917969-17.652343-17.65625v-17.65625c-.074219 9.722657-7.9375 17.585938-17.65625 17.65625-9.738281-.027343-17.625-7.917969-17.65625-17.65625v-35.308593zm0 0" fill="#f29c1f"/><path d="m256.007812 423.742188v35.308593c-.070312 9.71875-7.933593 17.582031-17.65625 17.65625-9.738281-.03125-17.625-7.917969-17.652343-17.65625v-17.65625c-.074219 9.722657-7.9375 17.585938-17.65625 17.65625-9.738281-.027343-17.625-7.917969-17.65625-17.65625v-17.652343zm0 0" fill="#f0c419"/><path d="m286.632812 44.152344h-61.246093c-9.910157.28125-18.210938 7.578125-19.765625 17.367187l-10.144532 62.082031h121.0625l-10.144531-62.082031c-1.554687-9.789062-9.855469-17.085937-19.761719-17.367187zm0 0" fill="#90bae1"/><path d="m203.042969 158.914062h26.480469v17.652344c0 5.574219-4.515626 10.089844-10.089844 10.089844h-6.300782c-2.675781 0-5.242187-1.0625-7.136718-2.953125-1.890625-1.894531-2.953125-4.460937-2.953125-7.136719zm0 0" fill="#4482c3"/><path d="m282.492188 158.914062h26.480468v17.652344c0 5.574219-4.515625 10.089844-10.089844 10.089844h-6.300781c-5.574219 0-10.089843-4.515625-10.089843-10.089844zm0 0" fill="#4482c3"/><path d="m220.699219 123.601562c-3.257813 0-6.246094-1.796874-7.78125-4.667968-1.53125-2.867188-1.363281-6.351563.445312-9.058594l17.652344-26.480469c2.707031-4.058593 8.1875-5.152343 12.246094-2.445312 4.054687 2.703125 5.152343 8.1875 2.445312 12.242187l-17.65625 26.484375c-1.640625 2.457031-4.398437 3.929688-7.351562 3.925781zm0 0" fill="#2c3e50"/><path d="m264.835938 123.601562c-3.253907 0-6.246094-1.796874-7.777344-4.667968-1.535156-2.867188-1.363282-6.351563.441406-9.058594l17.65625-26.480469c1.75-2.625 4.765625-4.117187 7.914062-3.914062 3.148438.207031 5.949219 2.074219 7.34375 4.902343 1.398438 2.828126 1.179688 6.183594-.570312 8.808594l-17.65625 26.484375c-1.636719 2.457031-4.398438 3.929688-7.351562 3.925781zm0 0" fill="#2c3e50"/><path d="m203.042969 114.773438h105.929687c9.75 0 17.65625 7.90625 17.65625 17.65625v8.828124c0 9.75-7.90625 17.65625-17.65625 17.65625h-105.929687c-9.75 0-17.65625-7.90625-17.65625-17.65625v-8.828124c0-9.75 7.90625-17.65625 17.65625-17.65625zm0 0" fill="#e64c3c"/></svg>