<svg height="512pt" viewBox="-4 0 512 512.00431" width="512pt" xmlns="http://www.w3.org/2000/svg"><path d="m358.402344 170.671875h-273.066406c-3.359376-32.148437 19.289062-61.203125 51.285156-65.792969-.070313-.824218-.101563-1.648437-.085938-2.472656 0-33.027344 41.984375-59.734375 93.867188-59.734375 23.957031-.546875 47.558594 5.886719 67.925781 18.515625 15.082031 8.445312 24.847656 23.964844 25.941406 41.21875.015625 2.257812-.183593 4.515625-.597656 6.738281-.015625.292969-.074219.578125-.171875.855469 23.449219 10.636719 37.496094 35.050781 34.902344 60.671875zm0 0" fill="#f5efca"/><path d="m355.5 170.671875h-249.683594c9.84375-12.382813 23.96875-20.632813 39.59375-23.125-.070312-.824219-.097656-1.648437-.085937-2.476563 0-33.023437 41.984375-59.734374 93.867187-59.734374 23.957032-.542969 47.558594 5.890624 67.925782 18.519531 15.082031 8.445312 24.847656 23.964843 25.941406 41.214843.015625 2.261719-.183594 4.519532-.597656 6.742188-.015626.289062-.074219.578125-.171876.851562 9.164063 3.898438 17.160157 10.101563 23.210938 18.007813zm0 0" fill="#f9eab0"/><path d="m153.601562 307.203125c-4.710937 0-8.53125-3.820313-8.53125-8.53125v-34.132813c0-4.714843 3.820313-8.535156 8.53125-8.535156 4.714844 0 8.535157 3.820313 8.535157 8.535156v34.132813c0 4.710937-3.820313 8.53125-8.535157 8.53125zm0 0" fill="#95a5a5"/><path d="m298.667969 307.203125c-4.710938 0-8.53125-3.820313-8.53125-8.53125v-34.132813c0-4.714843 3.820312-8.535156 8.53125-8.535156 4.714843 0 8.535156 3.820313 8.535156 8.535156v34.132813c0 4.710937-3.820313 8.53125-8.535156 8.53125zm0 0" fill="#95a5a5"/><path d="m392.535156 511.875h-68.265625c-4.714843 0-8.535156-3.820312-8.535156-8.53125 0-4.714844 3.820313-8.535156 8.535156-8.535156h68.265625c4.714844 0 8.535156 3.820312 8.535156 8.535156 0 4.710938-3.820312 8.53125-8.535156 8.53125zm0 0" fill="#2c3e50"/><path d="m503.46875 400.898438v42.667968c.027344 4.324219-3.144531 8.003906-7.425781 8.621094l-52.308594 8.617188h-401.066406l-27.648438-8.789063c-3.804687-.941406-6.480469-4.355469-6.484375-8.277344v-25.769531l34.132813-51.203125h418.132812zm0 0" fill="#c03a2b"/><path d="m503.46875 400.898438v25.773437c.027344 4.324219-3.144531 8.003906-7.425781 8.617187l-52.308594 8.621094h-401.066406l-27.648438-8.792968c-3.804687-.9375-6.480469-4.355469-6.484375-8.277344v-8.871094l34.132813-51.203125h418.132812zm0 0" fill="#e64c3c"/><path d="m392.535156 511.875c-28.277344 0-51.199218-22.921875-51.199218-51.199219 0-28.277343 22.921874-51.199219 51.199218-51.199219s51.199219 22.921876 51.199219 51.199219c-.03125 28.265625-22.9375 51.167969-51.199219 51.199219zm0 0" fill="#2c3e50"/><path d="m401.070312 366.765625h-170.667968v-68.265625h98.816406c2.285156-.007812 4.472656.917969 6.058594 2.558594l13.824218 13.824218zm0 0" fill="#b0d3f0"/><path d="m230.402344 298.5v68.265625h-102.398438l8.53125-68.265625zm0 0" fill="#90bae1"/><path d="m136.535156 298.5-8.53125 68.265625h-42.667968l23.550781-62.632813c1.207031-3.390624 4.421875-5.652343 8.023437-5.632812zm0 0" fill="#c03a2b"/><path d="m264.535156 422.0625v38.742188h-17.066406v-38.742188c-.011719-1.324219-.300781-2.632812-.851562-3.839844l-23.808594-47.617187c-.59375-1.195313-.914063-2.503907-.941406-3.839844h18.09375l21.84375 43.777344c1.804687 3.570312 2.738281 7.519531 2.730468 11.519531zm0 0" fill="#c03a2b"/><path d="m503.46875 375.300781v25.597657h-27.476562c-3.898438.007812-7.304688-2.625-8.277344-6.398438l-6.914063-27.734375h34.132813c4.714844 0 8.535156 3.820313 8.535156 8.535156zm0 0" fill="#f0c419"/><path d="m42.667969 366.765625v21.335937c.019531 2.691407-1.246094 5.226563-3.414063 6.824219l-30.71875 23.042969v-30.550781c.015625-2.261719.902344-4.433594 2.476563-6.058594l12.117187-12.03125c1.5625-1.628906 3.714844-2.550781 5.972656-2.5625zm0 0" fill="#f0c419"/><g fill="#2c3e50"><path d="m119.46875 511.875h-68.265625c-4.714844 0-8.535156-3.820312-8.535156-8.53125 0-4.714844 3.820312-8.535156 8.535156-8.535156h68.265625c4.714844 0 8.535156 3.820312 8.535156 8.535156 0 4.710938-3.820312 8.53125-8.535156 8.53125zm0 0"/><path d="m17.070312 512.003906h-8.535156c-4.710937 0-8.53124975-3.820312-8.53124975-8.53125 0-4.714844 3.82031275-8.535156 8.53124975-8.535156h8.535156c4.710938 0 8.53125 3.820312 8.53125 8.535156 0 4.710938-3.820312 8.53125-8.53125 8.53125zm0 0"/><path d="m290.136719 512.003906h-8.535157c-4.710937 0-8.53125-3.820312-8.53125-8.53125 0-4.714844 3.820313-8.535156 8.53125-8.535156h8.535157c4.710937 0 8.53125 3.820312 8.53125 8.535156 0 4.710938-3.820313 8.53125-8.53125 8.53125zm0 0"/><path d="m119.46875 511.875c-28.277344 0-51.199219-22.921875-51.199219-51.199219 0-28.277343 22.921875-51.199219 51.199219-51.199219s51.199219 22.921876 51.199219 51.199219c-.03125 28.265625-22.9375 51.167969-51.199219 51.199219zm0 0"/></g><path d="m162.136719 460.675781c0 23.566407-19.105469 42.667969-42.667969 42.667969s-42.667969-19.101562-42.667969-42.667969c0-23.5625 19.105469-42.667969 42.667969-42.667969s42.667969 19.105469 42.667969 42.667969zm0 0" fill="#35495e"/><path d="m144.941406 460.675781c0 14.066407-11.40625 25.472657-25.472656 25.472657s-25.472656-11.40625-25.472656-25.472657c0-14.066406 11.40625-25.472656 25.472656-25.472656s25.472656 11.40625 25.472656 25.472656zm0 0" fill="#95a5a5"/><path d="m435.203125 460.675781c0 23.566407-19.101563 42.667969-42.667969 42.667969-23.5625 0-42.667968-19.101562-42.667968-42.667969 0-23.5625 19.105468-42.667969 42.667968-42.667969 23.566406 0 42.667969 19.105469 42.667969 42.667969zm0 0" fill="#35495e"/><path d="m418.007812 460.675781c0 14.066407-11.40625 25.472657-25.472656 25.472657s-25.472656-11.40625-25.472656-25.472657c0-14.066406 11.40625-25.472656 25.472656-25.472656s25.472656 11.40625 25.472656 25.472656zm0 0" fill="#95a5a5"/><path d="m401.070312 366.765625h-139.09375c19.550782-29.738281 51.664063-48.859375 87.125-51.882813zm0 0" fill="#90bae1"/><path d="m376.492188 179.203125c.003906 5.734375-.566407 11.449219-1.707032 17.066406l-5.375 17.066407c-4.308594 9.742187-10.351562 18.617187-17.835937 26.199218-15.980469 16.027344-37.695313 25.027344-60.328125 25.003906h-136.621094c-22.921875 0-44.882812-9.226562-60.925781-25.601562-5.007813-5.136719-9.363281-10.867188-12.972657-17.066406-7.503906-12.96875-11.445312-27.6875-11.433593-42.667969 0-4.710937 3.820312-8.53125 8.53125-8.53125h290.136719c4.710937 0 8.53125 3.820313 8.53125 8.53125zm0 0" fill="#90bae1"/><path d="m358.402344 177.652344c.003906 4.695312-.507813 9.378906-1.519532 13.96875l-4.777343 13.960937c-3.917969 8.0625-9.304688 15.324219-15.890625 21.410157-14.664063 13.300781-33.789063 20.609374-53.589844 20.480468h-121.4375c-20.054688.128906-39.414062-7.359375-54.160156-20.949218-4.414063-4.15625-8.285156-8.84375-11.527344-13.960938-6.617188-10.445312-10.140625-22.546875-10.164062-34.910156.183593-4.015625 3.570312-7.128906 7.585937-6.980469h257.894531c1.933594-.085937 3.820313.601563 5.242188 1.914063 1.425781 1.308593 2.269531 3.132812 2.34375 5.066406zm0 0" fill="#b0d3f0"/><path d="m279.238281 127.671875c-2.738281 0-5.316406-1.3125-6.921875-3.535156-1.605468-2.21875-2.046875-5.078125-1.183594-7.679688l36.496094-110.589843c1.476563-4.476563 6.300782-6.910157 10.777344-5.4375 4.476562 1.476562 6.910156 6.300781 5.4375 10.777343l-36.5 110.601563c-1.152344 3.5-4.421875 5.863281-8.105469 5.863281zm0 0" fill="#af8066"/><path d="m307.203125 145.070312c-3.074219-.003906-5.910156-1.660156-7.421875-4.335937s-1.464844-5.957031.117188-8.589844l76.800781-128c2.464843-3.945312 7.640625-5.1875 11.628906-2.789062 3.988281 2.398437 5.320313 7.546875 2.996094 11.578125l-76.800781 128c-1.542969 2.570312-4.324219 4.140625-7.320313 4.136718zm0 0" fill="#af8066"/><path d="m374.785156 196.269531-5.375 17.066407h-62.207031c-4.714844 0-8.535156-3.820313-8.535156-8.53125 0-4.714844 3.820312-8.535157 8.535156-8.535157zm0 0" fill="#4482c3"/><path d="m273.070312 213.335938h-17.066406c-4.714844 0-8.535156-3.820313-8.535156-8.53125 0-4.714844 3.820312-8.535157 8.535156-8.535157h17.066406c4.710938 0 8.53125 3.820313 8.53125 8.535157 0 4.710937-3.820312 8.53125-8.53125 8.53125zm0 0" fill="#4482c3"/><path d="m196.269531 238.9375h-17.066406c-4.714844 0-8.535156-3.820312-8.535156-8.53125 0-4.714844 3.820312-8.535156 8.535156-8.535156h17.066406c4.710938 0 8.53125 3.820312 8.53125 8.535156 0 4.710938-3.820312 8.53125-8.53125 8.53125zm0 0" fill="#4482c3"/><path d="m153.601562 230.40625c0 4.710938-3.820312 8.53125-8.53125 8.53125h-51.371093c-5.007813-5.136719-9.363281-10.867188-12.972657-17.066406h64.34375c4.710938 0 8.53125 3.820312 8.53125 8.535156zm0 0" fill="#4482c3"/></svg>