<svg height="512pt" viewBox="0 -95 512 512" width="512pt" xmlns="http://www.w3.org/2000/svg"><path d="m251.660156 242.984375c0 38.339844-31.082031 69.421875-69.421875 69.421875-38.34375 0-69.425781-31.082031-69.425781-69.421875 0-38.34375 31.082031-69.425781 69.425781-69.425781 38.339844 0 69.421875 31.082031 69.421875 69.425781zm0 0" fill="#35495e"/><path d="m503.320312 242.984375c0 38.339844-31.082031 69.421875-69.421874 69.421875-38.34375 0-69.425782-31.082031-69.425782-69.421875 0-38.34375 31.082032-69.425781 69.425782-69.425781 38.339843 0 69.421874 31.082031 69.421874 69.425781zm0 0" fill="#35495e"/><path d="m182.238281 321.085938h-121.492187c-4.792969 0-8.679688-3.886719-8.679688-8.679688s3.886719-8.675781 8.679688-8.675781h121.492187c4.792969 0 8.675781 3.882812 8.675781 8.675781s-3.882812 8.679688-8.675781 8.679688zm0 0" fill="#2c3e50"/><path d="m433.898438 321.085938h-121.492188c-4.792969 0-8.675781-3.886719-8.675781-8.679688s3.882812-8.675781 8.675781-8.675781h121.492188c4.792968 0 8.679687 3.882812 8.679687 8.675781s-3.886719 8.679688-8.679687 8.679688zm0 0" fill="#2c3e50"/><path d="m173.558594 173.558594h17.355468v52.070312h-17.355468zm0 0" fill="#95a5a5"/><path d="m173.558594 260.339844h17.355468v52.066406h-17.355468zm0 0" fill="#95a5a5"/><path d="m312.40625 251.660156h-112.8125v-17.355468h104.082031c.683594-27.984376 11.164063-54.839844 29.617188-75.886719 22.6875-24.5 56.539062-36.925781 100.605469-36.925781 4.792968 0 8.679687 3.882812 8.679687 8.675781v43.390625h-17.359375v-34.527344c-34.761719 1.464844-61.378906 11.9375-79.195312 31.179688-17.050782 20.0625-25.949219 45.792968-24.9375 72.105468.183593 2.414063-.644532 4.796875-2.292969 6.570313-1.648438 1.777343-3.964844 2.78125-6.386719 2.773437zm0 0" fill="#4482c3"/><path d="m112.8125 234.304688h52.070312v17.355468h-52.070312zm0 0" fill="#95a5a5"/><path d="m425.21875 173.558594h17.359375v52.070312h-17.359375zm0 0" fill="#4482c3"/><path d="m425.21875 260.339844h17.359375v52.066406h-17.359375zm0 0" fill="#95a5a5"/><path d="m451.253906 234.304688h52.066406v17.355468h-52.066406zm0 0" fill="#95a5a5"/><path d="m364.472656 234.304688h52.070313v17.355468h-52.070313zm0 0" fill="#95a5a5"/><path d="m172.535156 156.203125h-85.753906c-4.792969 0-8.679688-3.886719-8.679688-8.675781 0-4.792969 3.886719-8.679688 8.679688-8.679688h85.753906c2.664063.007813 5.097656-1.496094 6.28125-3.878906 4.105469-8.28125 12.558594-13.507812 21.800782-13.476562h224.210937c-.558594-17.367188-8.476563-33.671876-21.78125-44.847657-3.984375-2.660156-5.0625-8.050781-2.402344-12.035156 2.660157-3.988281 8.046875-5.066406 12.035157-2.40625 1.257812.816406 29.898437 20.480469 29.898437 67.964844 0 4.792969-3.886719 8.679687-8.679687 8.679687h-233.28125c-2.664063-.011718-5.097657 1.496094-6.28125 3.878906-4.105469 8.277344-12.558594 13.503907-21.800782 13.476563zm0 0" fill="#4482c3"/><path d="m416.542969 52.066406c0 14.378906-11.65625 26.035156-26.035157 26.035156-14.378906 0-26.035156-11.65625-26.035156-26.035156 0-14.375 11.65625-26.03125 26.035156-26.03125 14.378907 0 26.035157 11.65625 26.035157 26.03125zm0 0" fill="#2c3e50"/><path d="m295.050781 286.371094h-8.679687c-4.789063 0-8.675782-3.882813-8.675782-8.675782 0-4.792968 3.886719-8.679687 8.675782-8.679687h3.316406l12.738281-25.484375-92.757812-143.363281c-1.816407-2.601563-2.066407-5.984375-.65625-8.828125 1.414062-2.839844 4.261719-4.683594 7.433593-4.808594 3.167969-.125 6.15625 1.492188 7.785157 4.214844l95.457031 147.523437c1.671875 2.578125 1.855469 5.84375.484375 8.59375l-17.355469 34.710938c-1.46875 2.941406-4.476562 4.800781-7.765625 4.796875zm0 0" fill="#4482c3"/><path d="m147.527344 34.710938v95.457031c-.03125 9.574219-7.785156 17.328125-17.359375 17.359375h-112.8125c-9.574219-.03125-17.3281252-7.785156-17.355469-17.359375v-95.457031zm0 0" fill="#f29c1f"/><path d="m147.527344 17.355469v17.355469h-147.527344v-17.355469c.0273438-9.574219 7.78125-17.3281252 17.355469-17.355469h112.8125c9.574219.0273438 17.328125 7.78125 17.359375 17.355469zm0 0" fill="#e57e25"/><path d="m242.984375 104.136719c-4.652344 0-45.996094-.269531-64.625-9.589844-4.289063-2.144531-6.03125-7.355469-3.890625-11.644531 2.144531-4.292969 7.359375-6.03125 11.648438-3.890625 12.710937 6.363281 45.359374 7.769531 56.867187 7.769531 4.792969 0 8.675781 3.882812 8.675781 8.675781s-3.882812 8.679688-8.675781 8.679688zm0 0" fill="#fac176"/><g fill="#2c3e50"><path d="m182.238281 321.085938c-43.136719 0-78.101562-34.96875-78.101562-78.101563 0-43.136719 34.964843-78.101563 78.101562-78.101563 43.132813 0 78.101563 34.964844 78.101563 78.101563-.054688 43.109375-34.988282 78.046875-78.101563 78.101563zm0-138.847657c-33.550781 0-60.746093 27.195313-60.746093 60.746094 0 33.546875 27.195312 60.746094 60.746093 60.746094 33.546875 0 60.746094-27.199219 60.746094-60.746094-.039063-33.535156-27.214844-60.707031-60.746094-60.746094zm0 0"/><path d="m433.898438 321.085938c-43.132813 0-78.101563-34.96875-78.101563-78.101563 0-43.136719 34.96875-78.101563 78.101563-78.101563 43.132812 0 78.101562 34.964844 78.101562 78.101563-.050781 43.109375-34.988281 78.046875-78.101562 78.101563zm0-138.847657c-24.570313 0-46.71875 14.800781-56.121094 37.5s-4.207032 48.824219 13.167968 66.199219c17.371094 17.371094 43.5 22.570312 66.199219 13.167969 22.699219-9.402344 37.5-31.554688 37.5-56.121094-.039062-33.535156-27.214843-60.707031-60.746093-60.746094zm0 0"/><path d="m182.238281 269.015625c-10.53125 0-20.023437-6.339844-24.054687-16.070313-4.027344-9.726562-1.800782-20.925781 5.644531-28.371093 7.445313-7.445313 18.644531-9.671875 28.371094-5.644531 9.730469 4.03125 16.070312 13.523437 16.070312 24.054687 0 14.375-11.652343 26.03125-26.03125 26.03125zm0-34.710937c-4.792969 0-8.679687 3.886718-8.679687 8.679687s3.886718 8.675781 8.679687 8.675781 8.675781-3.882812 8.675781-8.675781-3.882812-8.679687-8.675781-8.679687zm0 0"/><path d="m433.898438 269.015625c-14.378907 0-26.035157-11.65625-26.035157-26.03125 0-14.378906 11.65625-26.035156 26.035157-26.035156 14.378906 0 26.035156 11.65625 26.035156 26.035156 0 14.375-11.65625 26.03125-26.035156 26.03125zm0-34.710937c-4.792969 0-8.679688 3.886718-8.679688 8.679687s3.886719 8.675781 8.679688 8.675781c4.792968 0 8.679687-3.882812 8.679687-8.675781s-3.886719-8.679687-8.679687-8.679687zm0 0"/></g></svg>