<svg height="512pt" viewBox="-75 0 512 512" width="512pt" xmlns="http://www.w3.org/2000/svg"><path d="m120.054688 120.054688-12.796876 51.199218c-.882812 3.523438-1.328124 7.140625-1.324218 10.769532v38.667968h-35.3125v-30.898437c-.007813-8.542969 3.101562-16.796875 8.738281-23.214844zm0 0" fill="#fdd7ad"/><path d="m105.933594 229.515625h-35.3125c-4.875 0-8.828125-3.949219-8.828125-8.824219v-30.898437c.003906-10.683594 3.886719-21 10.929687-29.035157l40.695313-46.511718c2.6875-3.054688 7.113281-3.882813 10.71875-1.996094 3.609375 1.886719 5.457031 5.992188 4.480469 9.941406l-12.796876 51.199219c-.703124 2.820313-1.058593 5.71875-1.0625 8.625v38.675781c0 4.875-3.949218 8.824219-8.824218 8.824219zm-26.484375-8.824219h17.65625v-38.667968c0-4.351563.535156-8.6875 1.585937-12.914063l3.929688-15.710937-16.613282 18.988281c-4.222656 4.8125-6.554687 11-6.558593 17.40625zm0 0" fill="#f09372"/><path d="m282.484375 220.691406h12.800781c3.007813-.023437 5.808594 1.515625 7.414063 4.058594l57.820312 90.835938c.941407 1.410156 1.433594 3.070312 1.414063 4.765624v182.820313c0 4.875-3.953125 8.828125-8.828125 8.828125h-344.277344c-4.875 0-8.828125-3.953125-8.828125-8.828125v-182.820313c-.0234375-1.695312.472656-3.355468 1.414062-4.765624l57.820313-90.835938c1.601563-2.542969 4.40625-4.082031 7.414063-4.058594zm0 0" fill="#b0d3f0"/><path d="m282.484375 173.902344v108.582031c-.03125 9.738281-7.917969 17.625-17.65625 17.652344h-8.828125c-9.738281-.027344-17.625-7.914063-17.65625-17.652344v17.652344c-.027344 9.738281-7.914062 17.628906-17.652344 17.65625h-8.828125c-9.738281-.027344-17.625-7.917969-17.65625-17.65625v8.828125c-.027343 9.738281-7.914062 17.625-17.65625 17.65625h-8.824219c-9.742187-.03125-17.628906-7.917969-17.65625-17.65625-.03125 9.738281-7.917968 17.625-17.65625 17.65625h-8.828124c-9.738282-.03125-17.625-7.917969-17.652344-17.65625v-126.941406c-.003906-3.628907.441406-7.246094 1.324218-10.769532l12.796876-51.199218 3.53125-14.125h141.242187l15.976563 55.878906c1.132812 3.933594 1.699218 8.003906 1.679687 12.09375zm0 0" fill="#fdd7ad"/><path d="m70.621094 344.277344c-3.394532 0-6.488282-1.945313-7.960938-5.003906-1.46875-3.0625-1.054687-6.691407 1.066406-9.34375l28.488282-35.609376-25.539063-12.71875c-4.363281-2.179687-6.132812-7.484374-3.953125-11.847656 2.175782-4.363281 7.480469-6.132812 11.84375-3.957031l35.3125 17.65625c2.386719 1.191406 4.105469 3.398437 4.679688 6.003906.574218 2.605469-.0625 5.332031-1.734375 7.414063l-35.308594 44.136718c-1.683594 2.078126-4.21875 3.28125-6.894531 3.269532zm0 0" fill="#285680"/><path d="m317.792969 335.449219c-2.679688 0-5.21875-1.21875-6.894531-3.3125l-35.308594-44.136719c-1.667969-2.082031-2.304688-4.808594-1.734375-7.414062.574219-2.605469 2.292969-4.8125 4.683593-6.003907l17.652344-8.828125c4.363282-2.179687 9.667969-.40625 11.847656 3.957032 2.179688 4.363281.410157 9.664062-3.953124 11.84375l-7.882813 3.9375 28.484375 35.609374c2.121094 2.652344 2.535156 6.285157 1.066406 9.34375-1.472656 3.058594-4.566406 5.003907-7.960937 5.003907zm0 0" fill="#285680"/><path d="m112.039062 406.070312h146.679688c3.375 0 6.109375 2.734376 6.109375 6.105469v3.390625c.003906 16.210938-6.433594 31.757813-17.894531 43.21875-11.464844 11.464844-27.007813 17.90625-43.21875 17.90625h-36.667969c-16.210937 0-31.757813-6.441406-43.21875-17.90625-11.460937-11.460937-17.898437-27.007812-17.894531-43.21875v-3.390625c0-1.617187.640625-3.171875 1.789062-4.316406 1.144532-1.148437 2.699219-1.789063 4.316406-1.789063zm0 0" fill="#285680"/><path d="m129.695312 406.070312h111.371094c3.371094 0 6.105469 2.734376 6.105469 6.105469v3.390625c.003906 16.210938-6.433594 31.757813-17.894531 43.21875-11.460938 11.464844-27.007813 17.90625-43.21875 17.90625h-1.347656c-16.214844 0-31.761719-6.4375-43.222657-17.902344-11.464843-11.460937-17.902343-27.011718-17.902343-43.222656v-3.390625c0-3.371093 2.734374-6.105469 6.109374-6.105469zm0 0" fill="#4482c3"/><path d="m256 406.070312-8.722656-11.398437c-2.910156-3.734375-6.722656-6.667969-11.078125-8.527344l-18.863281-8.28125c-.53125-.226562-1.042969-.464843-1.542969-.722656l-16.078125-8.148437c-10.058594-4.992188-21.964844-4.5625-31.636719 1.148437-2.515625 1.519531-5.230469 2.679687-8.070313 3.441406l-8.894531 2.410157c-4.410156 1.171874-8.5 3.320312-11.964843 6.285156l-5.78125 5.042968c-1.371094 1.191407-2.613282 2.523438-3.707032 3.972657l-11.121094 14.777343" fill="#f5efca"/><g fill="#f09372"><path d="m150.070312 317.792969c-4.875 0-8.828124-3.953125-8.828124-8.828125v-70.621094c0-4.875 3.953124-8.828125 8.828124-8.828125s8.828126 3.953125 8.828126 8.828125v70.621094c0 4.875-3.953126 8.828125-8.828126 8.828125zm0 0"/><path d="m150.070312 317.792969c-4.875 0-8.828124-3.953125-8.828124-8.828125v-70.621094c0-4.875 3.953124-8.828125 8.828124-8.828125s8.828126 3.953125 8.828126 8.828125v70.621094c0 4.875-3.953126 8.828125-8.828126 8.828125zm0 0"/><path d="m194.207031 308.964844c-4.875 0-8.828125-3.953125-8.828125-8.828125v-61.792969c0-4.875 3.953125-8.828125 8.828125-8.828125s8.828125 3.953125 8.828125 8.828125v61.792969c0 4.875-3.953125 8.828125-8.828125 8.828125zm0 0"/><path d="m238.34375 291.308594c-4.875 0-8.824219-3.949219-8.824219-8.824219v-44.140625c0-4.875 3.949219-8.828125 8.824219-8.828125 4.878906 0 8.828125 3.953125 8.828125 8.828125v44.140625c0 4.875-3.949219 8.824219-8.828125 8.824219zm0 0"/><path d="m194.207031 308.964844c-4.875 0-8.828125-3.953125-8.828125-8.828125v-61.792969c0-4.875 3.953125-8.828125 8.828125-8.828125s8.828125 3.953125 8.828125 8.828125v61.792969c0 4.875-3.953125 8.828125-8.828125 8.828125zm0 0"/><path d="m238.34375 291.308594c-4.875 0-8.824219-3.949219-8.824219-8.824219v-44.140625c0-4.875 3.949219-8.828125 8.824219-8.828125 4.878906 0 8.828125 3.953125 8.828125 8.828125v44.140625c0 4.875-3.949219 8.824219-8.828125 8.824219zm0 0"/><path d="m176.550781 335.449219h-8.824219c-6.519531.003906-12.808593-2.402344-17.65625-6.761719-4.847656 4.359375-11.136718 6.765625-17.65625 6.761719h-8.828124c-14.625 0-26.480469-11.859375-26.480469-26.484375v-126.941406c0-4.351563.535156-8.6875 1.585937-12.914063l16.332032-65.324219c.984374-3.925781 4.515624-6.679687 8.5625-6.683594h141.242187c3.9375.003907 7.398437 2.613282 8.484375 6.402344l15.976562 55.878906c1.367188 4.71875 2.046876 9.609376 2.023438 14.519532v108.582031c0 14.625-11.859375 26.480469-26.484375 26.480469h-8.828125c-3.324219 0-6.621094-.632813-9.710938-1.863282-3.160156 11.53125-13.644531 19.523438-25.597656 19.519532h-8.828125c-4.554687.003906-9.03125-1.171875-12.996093-3.40625-4.863282 7.617187-13.277344 12.230468-22.316407 12.234375zm-17.652343-26.484375c0 4.875 3.949218 8.828125 8.828124 8.828125h8.824219c4.878907 0 8.828125-3.953125 8.828125-8.828125v-8.828125c0-4.875 3.953125-8.828125 8.828125-8.828125s8.828125 3.953125 8.828125 8.828125 3.953125 8.828125 8.828125 8.828125h8.828125c4.875 0 8.828125-3.953125 8.828125-8.828125v-17.652344c0-4.878906 3.949219-8.828125 8.824219-8.828125 4.878906 0 8.828125 3.949219 8.828125 8.828125 0 4.875 3.953125 8.824219 8.828125 8.824219h8.828125c4.875 0 8.828125-3.949219 8.828125-8.824219v-108.582031c.015625-3.242188-.429688-6.472656-1.316406-9.59375l-14.167969-58.378906h-127.691406l-14.660157 67.46875c-.703124 2.824218-1.058593 5.71875-1.0625 8.625v126.941406c0 4.875 3.953126 8.828125 8.828126 8.828125h8.828124c4.875 0 8.828126-3.953125 8.828126-8.828125s3.953124-8.828125 8.828124-8.828125 8.828126 3.953125 8.828126 8.828125zm0 0"/></g><path d="m282.484375 70.621094v26.480468c0 4.878907-3.953125 8.828126-8.828125 8.828126h-35.3125v-35.308594zm0 0" fill="#bdc3c7"/><path d="m238.34375 70.621094v35.308594h-123.585938c-4.875 0-8.824218-3.949219-8.824218-8.828126v-26.480468zm0 0" fill="#ecf0f1"/><path d="m88.277344 0h211.859375v61.792969c0 4.875-3.949219 8.828125-8.824219 8.828125h-194.207031c-4.875 0-8.828125-3.953125-8.828125-8.828125zm0 0" fill="#2c3e50"/><path d="m105.933594 0h176.550781v61.792969c0 4.875-3.953125 8.828125-8.828125 8.828125h-158.898438c-4.875 0-8.824218-3.953125-8.824218-8.828125zm0 0" fill="#35495e"/></svg>