<svg height="512pt" viewBox="-9 0 512 512.0001" width="512pt" xmlns="http://www.w3.org/2000/svg"><path d="m282.484375 18.804688v283.539062l-6.269531 139.035156h-276.214844v-423.722656c.0273438-9.738281 7.917969-17.6289062 17.65625-17.65625h246.023438c4.992187-.0117188 9.78125 1.964844 13.308593 5.496094 3.527344 3.527344 5.507813 8.316406 5.496094 13.308594zm0 0" fill="#35495e"/><path d="m282.484375 221.835938v80.507812l-6.269531 139.035156h-276.214844v-131.707031c44.578125-54.554687 129.589844-113.167969 282.484375-87.835937zm0 0" fill="#2c3e50"/><path d="m276.214844 441.378906-3 67.972656c-2.882813 1.726563-6.175782 2.640626-9.535156 2.648438h-244.875c-4.992188.011719-9.78125-1.964844-13.308594-5.496094-3.53125-3.527344-5.5078128-8.316406-5.496094-13.304687v-51.820313zm0 0" fill="#95a5a5"/><path d="m203.035156 35.308594h-123.585937c-9.75 0-17.65625-7.902344-17.65625-17.652344v-17.65625h158.898437v17.65625c0 9.75-7.90625 17.652344-17.65625 17.652344zm0 0" fill="#95a5a5"/><path d="m264.828125 8.828125c4.875 0 8.828125 3.953125 8.828125 8.828125v476.6875c0 4.875-3.953125 8.828125-8.828125 8.828125h-247.171875c-4.875 0-8.828125-3.953125-8.828125-8.828125v-476.6875c0-4.875 3.953125-8.828125 8.828125-8.828125zm0-8.828125h-247.171875c-9.75 0-17.65625 7.90625-17.65625 17.65625v476.6875c0 9.75 7.90625 17.65625 17.65625 17.65625h247.171875c9.75 0 17.65625-7.90625 17.65625-17.65625v-476.6875c0-9.75-7.90625-17.65625-17.65625-17.65625zm0 0" fill="#95a5a5"/><path d="m185.378906 485.515625h-88.273437c-4.878907 0-8.828125-3.949219-8.828125-8.824219 0-4.878906 3.949218-8.828125 8.828125-8.828125h88.273437c4.875 0 8.828125 3.949219 8.828125 8.828125 0 4.875-3.953125 8.824219-8.828125 8.824219zm0 0" fill="#7f8c8d"/><path d="m273.65625 353.101562h-15.890625c-4.875 0-8.828125-3.949218-8.828125-8.824218s3.953125-8.828125 8.828125-8.828125h15.890625c4.875 0 8.828125 3.953125 8.828125 8.828125s-3.953125 8.824218-8.828125 8.824218zm0 0" fill="#c03a2b"/><path d="m483.75 353.101562h-15.886719c-4.875 0-8.828125-3.949218-8.828125-8.824218s3.953125-8.828125 8.828125-8.828125h15.886719c4.878906 0 8.828125 3.953125 8.828125 8.828125s-3.949219 8.824218-8.828125 8.824218zm0 0" fill="#c03a2b"/><path d="m424.351562 273.65625h-107.183593c-16.777344.003906-31.234375 11.8125-34.589844 28.246094l-17.75 86.511718h211.863281l-17.753906-86.511718c-3.355469-16.433594-17.8125-28.242188-34.585938-28.246094zm0 0" fill="#b0d3f0"/><path d="m424.351562 282.484375c12.566407.042969 23.386719 8.878906 25.933594 21.183594l17.578125 84.746093h-194.207031l17.574219-84.746093c2.550781-12.304688 13.371093-21.140625 25.9375-21.183594zm0-8.828125h-107.183593c-16.777344.003906-31.234375 11.8125-34.589844 28.246094l-17.75 86.511718h211.863281l-17.753906-86.511718c-3.355469-16.433594-17.8125-28.242188-34.585938-28.246094zm0 0" fill="#e64c3c"/><path d="m300.136719 397.242188c-4.875 0-8.828125-3.953126-8.828125-8.828126v-17.65625c0-14.625 11.859375-26.480468 26.484375-26.480468h35.3125c4.875 0 8.824219 3.949218 8.824219 8.824218 0 4.878907-3.949219 8.828126-8.824219 8.828126h-35.3125c-4.875 0-8.828125 3.953124-8.828125 8.828124v17.65625c0 4.875-3.953125 8.828126-8.828125 8.828126zm0 0" fill="#35495e"/><path d="m441.378906 397.242188c-4.875 0-8.828125-3.953126-8.828125-8.828126v-17.65625c0-4.875-3.953125-8.828124-8.828125-8.828124h-35.308594c-4.875 0-8.828124-3.949219-8.828124-8.828126 0-4.875 3.953124-8.824218 8.828124-8.824218h35.308594c14.628906 0 26.484375 11.855468 26.484375 26.480468v17.65625c0 4.875-3.953125 8.828126-8.828125 8.828126zm0 0" fill="#35495e"/><path d="m264.828125 388.414062h211.863281c9.75 0 17.652344 7.902344 17.652344 17.65625v44.136719c0 9.75-7.902344 17.65625-17.652344 17.65625h-211.863281c-9.75 0-17.65625-7.90625-17.65625-17.65625v-44.136719c0-9.753906 7.90625-17.65625 17.65625-17.65625zm0 0" fill="#c03a2b"/><path d="m494.34375 415.875v24.523438c0 5.394531-7.945312 9.808593-17.652344 9.808593h-211.863281c-9.710937 0-17.65625-4.414062-17.65625-9.808593v-24.523438c0-5.390625 7.945313-9.804688 17.65625-9.804688h211.863281c9.707032 0 17.652344 4.414063 17.652344 9.804688zm0 0" fill="#e64c3c"/><path d="m264.828125 467.863281h35.308594v26.480469c0 9.75-7.902344 17.65625-17.652344 17.65625-9.753906 0-17.65625-7.90625-17.65625-17.65625zm0 0" fill="#35495e"/><path d="m441.378906 467.863281h35.3125v26.480469c0 9.75-7.90625 17.65625-17.65625 17.65625s-17.65625-7.90625-17.65625-17.65625zm0 0" fill="#35495e"/><path d="m308.964844 423.722656v8.828125c0 4.875-3.953125 8.828125-8.828125 8.828125s-8.828125-3.953125-8.828125-8.828125h-44.136719v-17.652343h52.964844c4.875 0 8.828125 3.949218 8.828125 8.824218zm0 0" fill="#f0c419"/><path d="m494.34375 414.898438v17.652343h-44.136719c0 4.875-3.953125 8.828125-8.828125 8.828125s-8.828125-3.953125-8.828125-8.828125v-8.828125c0-4.875 3.953125-8.824218 8.828125-8.824218zm0 0" fill="#f0c419"/><path d="m388.414062 432.550781h-35.308593c-4.878907 0-8.828125-3.953125-8.828125-8.828125s3.949218-8.824218 8.828125-8.824218h35.308593c4.875 0 8.828126 3.949218 8.828126 8.824218s-3.953126 8.828125-8.828126 8.828125zm0 0" fill="#ecf0f1"/><path d="m79.449219 282.484375h-35.3125c-4.875 0-8.828125 3.949219-8.828125 8.824219v8.828125c0 14.628906 11.859375 26.484375 26.484375 26.484375h158.898437c14.625 0 26.480469-11.855469 26.480469-26.484375v-8.828125c0-4.875-3.953125-8.824219-8.828125-8.824219zm0 0" fill="#e57e25"/><path d="m89.75 282.484375h-29.429688c-4.449218.441406-7.722656 4.371094-7.355468 8.824219v8.828125c-1.105469 13.375 8.71875 25.160156 22.070312 26.484375h132.414063c13.351562-1.324219 23.175781-13.109375 22.066406-26.484375v-8.828125c.371094-4.453125-2.902344-8.382813-7.351563-8.824219zm0 0" fill="#f29c1f"/><path d="m150.070312 282.484375h69.472657c14.941406.308594 27.304687-11.542969 27.628906-26.484375-.324219-14.941406-12.6875-26.792969-27.628906-26.484375h-156.601563c-14.941406-.308594-27.308594 11.542969-27.632812 26.484375.324218 14.941406 12.691406 26.792969 27.632812 26.484375zm0 0" fill="#802f34"/><path d="m237.1875 264.828125c3.421875.433594 6.785156-1.148437 8.632812-4.058594 1.847657-2.910156 1.847657-6.628906 0-9.539062-1.847656-2.910157-5.210937-4.492188-8.632812-4.058594h-191.894531c-3.417969-.433594-6.78125 1.148437-8.628907 4.058594-1.847656 2.910156-1.847656 6.628906 0 9.539062 1.847657 2.910157 5.210938 4.492188 8.628907 4.058594zm0 0" fill="#cc4b4c"/><path d="m238.34375 229.515625h-194.207031c-4.875 0-8.828125-3.949219-8.828125-8.824219 0-48.753906 39.523437-88.277344 88.277344-88.277344h35.3125c48.75 0 88.273437 39.523438 88.273437 88.277344 0 4.875-3.953125 8.824219-8.828125 8.824219zm0 0" fill="#e57e25"/><path d="m220.691406 229.515625h-158.898437c-4.875 0-8.828125-3.949219-8.828125-8.824219 0-23.414062 9.300781-45.867187 25.855468-62.421875 16.554688-16.554687 39.007813-25.855469 62.421876-25.855469 48.753906 0 88.273437 39.523438 88.273437 88.277344 0 4.875-3.949219 8.824219-8.824219 8.824219zm0 0" fill="#f29c1f"/><g fill="#f3d55b"><path d="m176.550781 167.722656c0 4.875-3.953125 8.828125-8.828125 8.828125s-8.824218-3.953125-8.824218-8.828125 3.949218-8.824218 8.824218-8.824218 8.828125 3.949218 8.828125 8.824218zm0 0"/><path d="m123.585938 167.722656c0 4.875-3.953126 8.828125-8.828126 8.828125s-8.828124-3.953125-8.828124-8.828125 3.953124-8.824218 8.828124-8.824218 8.828126 3.949218 8.828126 8.824218zm0 0"/><path d="m88.277344 194.207031c0 4.875-3.953125 8.828125-8.828125 8.828125s-8.828125-3.953125-8.828125-8.828125 3.953125-8.828125 8.828125-8.828125 8.828125 3.953125 8.828125 8.828125zm0 0"/><path d="m211.863281 194.207031c0 4.875-3.953125 8.828125-8.828125 8.828125s-8.828125-3.953125-8.828125-8.828125 3.953125-8.828125 8.828125-8.828125 8.828125 3.953125 8.828125 8.828125zm0 0"/><path d="m150.070312 229.515625v52.96875c0 9.75-7.90625 17.652344-17.65625 17.652344s-17.65625-7.902344-17.65625-17.652344v61.792969c0 9.75-7.902343 17.652344-17.652343 17.652344-9.753907 0-17.65625-7.902344-17.65625-17.652344v-114.761719zm0 0"/></g></svg>