<svg height="512pt" viewBox="-115 0 512 512.0001" width="512pt" xmlns="http://www.w3.org/2000/svg"><path d="m282.484375 17.65625v423.722656h-282.484375v-422.574218c-.0117188-4.992188 1.964844-9.78125 5.496094-13.308594 3.527344-3.53125 8.316406-5.5078128 13.308594-5.496094h246.023437c9.738281.0273438 17.625 7.917969 17.65625 17.65625zm0 0" fill="#35495e"/><path d="m282.484375 212.65625v228.722656h-282.484375v-153.597656c58.527344-54.644531 149.449219-100.726562 282.484375-75.125zm0 0" fill="#2c3e50"/><path d="m282.484375 441.378906v51.820313c.011719 4.988281-1.96875 9.777343-5.496094 13.304687-3.527343 3.53125-8.316406 5.507813-13.308593 5.496094h-244.875c-4.992188.011719-9.78125-1.964844-13.308594-5.496094-3.53125-3.527344-5.5078128-8.316406-5.496094-13.304687v-51.820313zm0 0" fill="#95a5a5"/><path d="m185.378906 485.515625h-88.273437c-4.878907 0-8.828125-3.949219-8.828125-8.824219 0-4.878906 3.949218-8.828125 8.828125-8.828125h88.273437c4.875 0 8.828125 3.949219 8.828125 8.828125 0 4.875-3.953125 8.824219-8.828125 8.824219zm0 0" fill="#7f8c8d"/><path d="m61.792969 0h158.898437v17.65625c0 9.75-7.90625 17.652344-17.65625 17.652344h-123.585937c-9.75 0-17.65625-7.902344-17.65625-17.652344zm0 0" fill="#95a5a5"/><path d="m264.828125 8.828125c4.875 0 8.828125 3.953125 8.828125 8.828125v476.6875c0 4.875-3.953125 8.828125-8.828125 8.828125h-247.171875c-4.875 0-8.828125-3.953125-8.828125-8.828125v-476.6875c0-4.875 3.953125-8.828125 8.828125-8.828125zm0-8.828125h-247.171875c-9.75 0-17.65625 7.90625-17.65625 17.65625v476.6875c0 9.75 7.90625 17.65625 17.65625 17.65625h247.171875c9.75 0 17.65625-7.90625 17.65625-17.65625v-476.6875c0-9.75-7.90625-17.65625-17.65625-17.65625zm0 0" fill="#95a5a5"/><path d="m52.964844 406.070312c0-48.753906 39.523437-88.277343 88.277344-88.277343 48.753906 0 88.273437 39.523437 88.273437 88.277343zm0 0" fill="#90bae1"/><path d="m70.621094 406.070312c0-48.757812 31.621094-88.277343 70.621094-88.277343s70.621093 39.519531 70.621093 88.277343zm0 0" fill="#b0d3f0"/><path d="m158.898438 300.136719c0 9.75-7.90625 17.65625-17.65625 17.65625s-17.65625-7.90625-17.65625-17.65625 7.90625-17.652344 17.65625-17.652344 17.65625 7.902344 17.65625 17.652344zm0 0" fill="#4482c3"/><path d="m185.378906 379.585938c-3.359375.019531-6.441406-1.875-7.945312-4.882813-3.179688-5.742187-7.914063-10.472656-13.65625-13.65625-4.363282-2.179687-6.132813-7.480469-3.953125-11.84375 2.179687-4.363281 7.484375-6.136719 11.847656-3.957031 9.207031 4.867187 16.75 12.378906 21.652344 21.566406 1.371093 2.746094 1.21875 6.003906-.402344 8.609375-1.617187 2.605469-4.476563 4.179687-7.542969 4.164063zm0 0" fill="#ecf0f1"/><g fill="#955ba5"><path d="m79.449219 308.964844c-4.875 0-8.828125-3.953125-8.828125-8.828125v-40.480469l-2.585938 2.585938c-3.464844 3.34375-8.96875 3.296874-12.375-.109376-3.40625-3.402343-3.453125-8.910156-.109375-12.375l17.65625-17.652343c2.523438-2.527344 6.320313-3.28125 9.621094-1.914063 3.296875 1.367188 5.445313 4.582032 5.449219 8.152344v61.792969c0 4.875-3.953125 8.828125-8.828125 8.828125zm0 0"/><path d="m97.105469 264.828125c-2.34375 0-4.589844-.929687-6.242188-2.585937l-17.65625-17.65625c-3.34375-3.464844-3.296875-8.96875.109375-12.375 3.402344-3.40625 8.910156-3.453126 12.375-.105469l17.652344 17.652343c2.523438 2.527344 3.28125 6.320313 1.914062 9.621094-1.367187 3.296875-4.585937 5.449219-8.152343 5.449219zm0 0"/><path d="m203.035156 308.964844c-4.875 0-8.828125-3.953125-8.828125-8.828125v-40.480469l-2.585937 2.585938c-3.464844 3.34375-8.96875 3.296874-12.375-.109376-3.40625-3.402343-3.453125-8.910156-.109375-12.375l17.65625-17.652343c2.523437-2.527344 6.320312-3.28125 9.621093-1.914063 3.296876 1.367188 5.449219 4.582032 5.449219 8.152344v61.792969c0 4.875-3.953125 8.828125-8.828125 8.828125zm0 0"/><path d="m220.691406 264.828125c-2.34375 0-4.585937-.929687-6.242187-2.585937l-17.65625-17.65625c-3.34375-3.464844-3.296875-8.96875.109375-12.375 3.402344-3.40625 8.910156-3.453126 12.375-.105469l17.652344 17.652343c2.523437 2.527344 3.28125 6.320313 1.914062 9.621094-1.367188 3.296875-4.585938 5.449219-8.152344 5.449219zm0 0"/></g><path d="m105.929688 70.621094h70.621093c4.875 0 8.828125 3.953125 8.828125 8.828125v123.585937h-88.273437v-123.585937c0-4.875 3.949219-8.828125 8.824219-8.828125zm0 0" fill="#f29c1f"/><path d="m123.585938 150.070312c-1.152344-.015624-2.292969-.253906-3.355469-.707031-1.066407-.449219-2.054688-1.074219-2.910157-1.855469-.800781-.84375-1.429687-1.832031-1.855468-2.910156-.453125-1.0625-.691406-2.203125-.707032-3.355468.015626-.59375.074219-1.183594.175782-1.765626.097656-.554687.277344-1.089843.53125-1.589843.191406-.5625.460937-1.097657.792968-1.589844l1.0625-1.324219c.855469-.777344 1.84375-1.40625 2.910157-1.851562 2.152343-.882813 4.5625-.882813 6.710937 0 1.070313.445312 2.054688 1.074218 2.914063 1.851562.378906.421875.730469.863282 1.058593 1.324219.332032.492187.601563 1.027344.792969 1.589844.253907.5.433594 1.035156.53125 1.589843.101563.582032.160157 1.171876.175781 1.765626-.015624 1.152343-.253906 2.292968-.707031 3.355468-.425781 1.078125-1.054687 2.066406-1.851562 2.910156-1.695313 1.613282-3.933594 2.527344-6.269531 2.5625zm0 0" fill="#d25627"/><path d="m203.035156 211.863281h-123.585937c-4.875 0-8.828125-3.953125-8.828125-8.828125s3.953125-8.828125 8.828125-8.828125h123.585937c4.875 0 8.828125 3.953125 8.828125 8.828125s-3.953125 8.828125-8.828125 8.828125zm0 0" fill="#e57e25"/><path d="m238.34375 414.898438h-194.207031c-4.875 0-8.828125-3.953126-8.828125-8.828126s3.953125-8.828124 8.828125-8.828124h194.207031c4.875 0 8.828125 3.953124 8.828125 8.828124s-3.953125 8.828126-8.828125 8.828126zm0 0" fill="#4482c3"/></svg>