<svg height="512pt" viewBox="0 -4 512 511" width="512pt" xmlns="http://www.w3.org/2000/svg"><path d="m119.464844 34.632812h273.070312c4.710938 0 8.53125 3.820313 8.53125 8.535157v358.398437h-290.132812v-358.398437c0-4.714844 3.820312-8.535157 8.53125-8.535157zm0 0" fill="#2c3e50"/><path d="m110.933594 401.566406h290.132812c4.714844 0 8.535156 3.820313 8.535156 8.535156v17.066407c0 4.710937-3.820312 8.53125-8.535156 8.53125h-290.132812c-4.714844 0-8.535156-3.820313-8.535156-8.53125v-17.066407c0-4.714843 3.820312-8.535156 8.535156-8.535156zm0 0" fill="#c03a2b"/><path d="m162.132812 495.433594h-25.597656c-4.714844 0-8.535156-3.820313-8.535156-8.535156v-51.199219h42.667969v51.199219c0 4.714843-3.820313 8.535156-8.535157 8.535156zm0 0" fill="#2c3e50"/><path d="m366.933594 495.433594h-25.601563c-4.710937 0-8.53125-3.820313-8.53125-8.535156v-51.199219h42.664063v51.199219c0 4.714843-3.820313 8.535156-8.53125 8.535156zm0 0" fill="#2c3e50"/><path d="m153.601562.5h204.796876c4.714843 0 8.535156 3.820312 8.535156 8.535156v25.597656h-221.867188v-25.597656c0-4.714844 3.820313-8.535156 8.535156-8.535156zm0 0" fill="#e64c3c"/><path d="m153.515625 102.898438h68.4375c4.664063 0 8.445313 3.785156 8.445313 8.449218v25.6875h-85.332032v-25.6875c0-2.238281.890625-4.390625 2.476563-5.972656 1.582031-1.585938 3.730469-2.476562 5.972656-2.476562zm0 0" fill="#e57e25"/><path d="m290.046875 102.898438h68.4375c2.242187 0 4.390625.890624 5.972656 2.476562 1.585938 1.582031 2.476563 3.734375 2.476563 5.972656v25.6875h-85.332032v-25.6875c0-2.238281.886719-4.390625 2.472657-5.972656 1.585937-1.585938 3.734375-2.476562 5.972656-2.476562zm0 0" fill="#e57e25"/><g fill="#f0c419"><path d="m170.582031 68.765625h34.304688c4.664062 0 8.445312 3.785156 8.445312 8.449219v25.683594h-51.199219v-25.683594c0-4.664063 3.78125-8.449219 8.449219-8.449219zm0 0"/><path d="m307.113281 68.765625h34.304688c4.667969 0 8.449219 3.785156 8.449219 8.449219v25.683594h-51.199219v-25.683594c0-4.664063 3.78125-8.449219 8.445312-8.449219zm0 0"/><path d="m256 316.234375v25.597656h-110.933594v-25.597656c0-4.714844 3.820313-8.535156 8.535156-8.535156h93.863282c4.714844 0 8.535156 3.820312 8.535156 8.535156zm0 0"/></g><path d="m145.066406 341.832031h110.933594v59.734375h-110.933594zm0 0" fill="#d25627"/><path d="m256 341.832031h110.933594v59.734375h-110.933594zm0 0" fill="#e57e25"/><path d="m366.933594 316.234375v25.597656h-110.933594v-25.597656c0-4.714844 3.820312-8.535156 8.535156-8.535156h93.863282c4.714843 0 8.535156 3.820312 8.535156 8.535156zm0 0" fill="#f0c419"/><path d="m366.933594 222.367188v85.332031h-76.800782v-85.332031c0-4.714844 3.820313-8.535157 8.535157-8.535157h59.730469c4.714843 0 8.535156 3.820313 8.535156 8.535157zm0 0" fill="#f29c1f"/><path d="m290.132812 273.566406v34.132813h-25.597656c-4.714844 0-8.535156 3.820312-8.535156 8.535156 0-4.714844-3.820312-8.535156-8.535156-8.535156h-68.265625v-25.597657c0-4.714843 3.820312-8.535156 8.535156-8.535156zm0 0" fill="#c03a2b"/><path d="m290.132812 239.433594v34.132812h-102.398437c-4.714844 0-8.535156-3.820312-8.535156-8.53125v-17.070312c0-4.710938 3.820312-8.53125 8.535156-8.53125zm0 0" fill="#e64c3c"/><path d="m503.464844 503.964844h-494.929688c-4.714844 0-8.535156-3.820313-8.535156-8.53125 0-4.714844 3.820312-8.535156 8.535156-8.535156h494.929688c4.714844 0 8.535156 3.820312 8.535156 8.535156 0 4.710937-3.820312 8.53125-8.535156 8.53125zm0 0" fill="#547580"/><path d="m204.929688 213.832031c-3.457032.003907-6.570313-2.078125-7.894532-5.269531-1.320312-3.191406-.585937-6.863281 1.859375-9.304688 1.375-1.375 1.375-3.605468 0-4.984374-8.03125-8.050782-8.03125-21.085938 0-29.140626 2.144531-2.21875 5.316407-3.105468 8.300781-2.328124 2.980469.78125 5.3125 3.113281 6.09375 6.097656.78125 2.980468-.109374 6.15625-2.328124 8.296875-1.375 1.382812-1.375 3.617187 0 5 8.046874 8.046875 8.046874 21.09375 0 29.140625-1.601563 1.597656-3.769532 2.496094-6.03125 2.492187zm0 0" fill="#bdc3c7"/><path d="m256.078125 213.832031c-3.453125 0-6.5625-2.078125-7.882813-5.265625-1.320312-3.1875-.589843-6.859375 1.847657-9.300781 1.375-1.382813 1.375-3.613281 0-5-8.046875-8.046875-8.046875-21.09375 0-29.140625 3.335937-3.332031 8.742187-3.328125 12.074219.007812 3.332031 3.335938 3.328124 8.742188-.007813 12.074219-1.375 1.378907-1.375 3.609375 0 4.984375 8.023437 8.058594 8.023437 21.085938 0 29.140625-1.597656 1.601563-3.769531 2.5-6.03125 2.5zm0 0" fill="#bdc3c7"/><path d="m401.066406 145.566406h-290.132812c-4.714844 0-8.535156-3.820312-8.535156-8.53125 0-4.714844 3.820312-8.535156 8.535156-8.535156h290.132812c4.714844 0 8.535156 3.820312 8.535156 8.535156 0 4.710938-3.820312 8.53125-8.535156 8.53125zm0 0" fill="#4482c3"/><path d="m494.933594 401.566406h-93.867188v-341.332031l92.476563-16.914063c2.464843-.40625 4.984375.285157 6.894531 1.898438s3.019531 3.980469 3.027344 6.480469v341.335937c0 4.710938-3.820313 8.53125-8.53125 8.53125zm0 0" fill="#95a5a5"/><path d="m460.800781 333.300781h-17.066406c-9.425781 0-17.066406-7.640625-17.066406-17.066406 0-4.714844 3.820312-8.535156 8.53125-8.535156 4.714843 0 8.535156 3.820312 8.535156 8.535156h17.066406c0-4.714844 3.820313-8.535156 8.53125-8.535156 4.714844 0 8.535157 3.820312 8.535157 8.535156 0 9.425781-7.640626 17.066406-17.066407 17.066406zm0 0" fill="#2c3e50"/><path d="m458.683594 86.097656-17.066406 4.265625c-3.777344.96875-6.417969 4.371094-6.417969 8.269531v157.867188c0 4.710938 3.820312 8.535156 8.535156 8.535156h17.066406c4.710938 0 8.53125-3.824218 8.53125-8.535156v-162.089844c.015625-2.644531-1.199219-5.144531-3.28125-6.773437-2.085937-1.625-4.804687-2.195313-7.367187-1.539063zm0 0" fill="#2c3e50"/><path d="m17.066406 401.566406h93.867188v-341.332031l-92.476563-16.914063c-2.464843-.40625-4.984375.285157-6.894531 1.898438s-3.019531 3.980469-3.027344 6.480469v341.335937c0 4.710938 3.820313 8.53125 8.53125 8.53125zm0 0" fill="#95a5a5"/><path d="m68.265625 333.300781h-17.066406c-9.425781 0-17.066407-7.640625-17.066407-17.066406.046876-4.4375 3.644532-8.015625 8.082032-8.039063 4.617187-.03125 8.503906 3.445313 8.984375 8.039063h17.066406c0-4.714844 3.820313-8.535156 8.535156-8.535156 4.710938 0 8.53125 3.820312 8.53125 8.535156 0 9.425781-7.640625 17.066406-17.066406 17.066406zm0 0" fill="#2c3e50"/><path d="m53.316406 86.097656 17.066406 4.265625c3.777344.96875 6.417969 4.371094 6.417969 8.269531v157.867188c0 4.710938-3.820312 8.535156-8.535156 8.535156h-17.066406c-4.710938 0-8.53125-3.824218-8.53125-8.535156v-162.089844c-.015625-2.644531 1.199219-5.144531 3.28125-6.773437 2.085937-1.625 4.804687-2.195313 7.367187-1.539063zm0 0" fill="#2c3e50"/></svg>