<svg height="512pt" viewBox="0 -4 512 511" width="512pt" xmlns="http://www.w3.org/2000/svg"><path d="m401.066406 257.269531v7.765625h-290.132812v-7.765625c.015625-.515625.070312-1.03125.171875-1.539062l15.613281-86.101563c.742188-4.039062 4.253906-6.980468 8.363281-6.996094h241.835938c4.109375.015626 7.621093 2.957032 8.363281 6.996094l15.613281 86.101563c.101563.507812.15625 1.023437.171875 1.539062zm0 0" fill="#b0d3f0"/><path d="m110.933594 367.433594h290.132812v34.132812h-290.132812zm0 0" fill="#547580"/><path d="m110.933594 265.035156h290.132812v102.398438h-290.132812zm0 0" fill="#2c3e50"/><path d="m85.332031 410.101562v17.066407c-.109375 4.597656 3.527344 8.414062 8.125 8.53125h325.121094c4.582031-.132813 8.199219-3.945313 8.089844-8.53125v-17.066407c.109375-4.601562-3.527344-8.417968-8.125-8.535156h-325.121094c-4.582031.136719-8.199219 3.949219-8.089844 8.535156zm0 0" fill="#802f34"/><path d="m128 435.699219h42.667969v51.199219c0 4.714843-3.820313 8.535156-8.535157 8.535156h-25.597656c-4.714844 0-8.535156-3.820313-8.535156-8.535156zm0 0" fill="#2c3e50"/><path d="m332.800781 435.699219h42.664063v51.199219c0 4.714843-3.820313 8.535156-8.53125 8.535156h-25.601563c-4.710937 0-8.53125-3.820313-8.53125-8.535156zm0 0" fill="#2c3e50"/><path d="m153.515625 230.898438h68.4375c4.664063 0 8.445313 3.785156 8.445313 8.449218v25.6875h-85.332032v-25.6875c0-4.664062 3.78125-8.449218 8.449219-8.449218zm0 0" fill="#95a5a5"/><path d="m290.046875 230.898438h68.4375c4.667969 0 8.449219 3.785156 8.449219 8.449218v25.6875h-85.332032v-25.6875c0-4.664062 3.78125-8.449218 8.445313-8.449218zm0 0" fill="#95a5a5"/><path d="m170.582031 196.765625h34.304688c4.664062 0 8.445312 3.785156 8.445312 8.449219v25.683594h-51.199219v-25.683594c0-4.664063 3.78125-8.449219 8.449219-8.449219zm0 0" fill="#7f8c8d"/><path d="m307.113281 196.765625h34.304688c4.667969 0 8.449219 3.785156 8.449219 8.449219v25.683594h-51.199219v-25.683594c0-4.664063 3.78125-8.449219 8.445312-8.449219zm0 0" fill="#7f8c8d"/><path d="m153.601562 299.167969h93.863282c4.714844 0 8.535156 3.820312 8.535156 8.53125v17.066406c0 4.714844-3.820312 8.535156-8.535156 8.535156h-93.863282c-4.714843 0-8.535156-3.820312-8.535156-8.535156v-17.066406c0-4.710938 3.820313-8.53125 8.535156-8.53125zm0 0" fill="#f0c419"/><path d="m153.601562 333.300781h93.863282c4.714844 0 8.535156 3.820313 8.535156 8.53125v17.066407c0 4.714843-3.820312 8.535156-8.535156 8.535156h-93.863282c-4.714843 0-8.535156-3.820313-8.535156-8.535156v-17.066407c0-4.710937 3.820313-8.53125 8.535156-8.53125zm0 0" fill="#f29c1f"/><path d="m503.464844 503.964844h-494.929688c-4.714844 0-8.535156-3.820313-8.535156-8.53125 0-4.714844 3.820312-8.535156 8.535156-8.535156h494.929688c4.714844 0 8.535156 3.820312 8.535156 8.535156 0 4.710937-3.820312 8.53125-8.535156 8.53125zm0 0" fill="#547580"/><path d="m375.464844 162.632812 23.84375-31.71875c1.144531-1.519531 1.761718-3.371093 1.757812-5.273437v-82.226563c-.003906-2.332031-.929687-4.566406-2.582031-6.210937-1.648437-1.648437-3.882813-2.570313-6.214844-2.570313h-272.539062c-2.332031 0-4.566407.921876-6.214844 2.570313-1.652344 1.644531-2.578125 3.878906-2.582031 6.210937v82.226563c-.003906 1.902344.613281 3.753906 1.757812 5.273437l23.84375 31.71875zm0 0" fill="#802f34"/><path d="m393.308594 213.832031h49.964844c2.695312-.082031 5.277343 1.089844 6.984374 3.175781 1.707032 2.085938 2.347657 4.847657 1.734376 7.476563l-4.453126 16.988281c-1.105468 3.890625-4.683593 6.554688-8.730468 6.492188h-39.296875" fill="#90bae1"/><path d="m118.691406 213.832031h-49.964844c-2.695312-.082031-5.277343 1.089844-6.984374 3.175781-1.707032 2.085938-2.347657 4.847657-1.734376 7.476563l4.453126 16.988281c1.105468 3.890625 4.683593 6.554688 8.730468 6.492188h39.296875" fill="#90bae1"/><path d="m264.535156 205.300781h-17.070312c-4.710938 0-8.53125-3.820312-8.53125-8.535156 0-4.710937 3.820312-8.53125 8.53125-8.53125h17.070312c4.710938 0 8.53125 3.820313 8.53125 8.53125 0 4.714844-3.820312 8.535156-8.53125 8.535156zm0 0" fill="#b0d3f0"/><path d="m264.535156 333.300781h93.863282c4.714843 0 8.535156 3.820313 8.535156 8.53125v17.066407c0 4.714843-3.820313 8.535156-8.535156 8.535156h-93.863282c-4.714844 0-8.535156-3.820313-8.535156-8.535156v-17.066407c0-4.710937 3.820312-8.53125 8.535156-8.53125zm0 0" fill="#e57e25"/><path d="m153.601562 85.832031h204.796876c4.714843 0 8.535156 3.820313 8.535156 8.535157v5.972656c0 1.6875-.5 3.332031-1.433594 4.734375l-13.097656 19.628906c-1.585938 2.371094-4.25 3.796875-7.101563 3.796875h-178.601562c-2.851563 0-5.515625-1.425781-7.101563-3.796875l-13.097656-19.628906c-.933594-1.402344-1.433594-3.046875-1.433594-4.734375v-5.972656c0-4.714844 3.820313-8.535157 8.535156-8.535157zm0 0" fill="#b0d3f0"/><path d="m230.398438.5h51.203124c4.710938 0 8.53125 3.820312 8.53125 8.535156v25.597656h-68.265624v-25.597656c0-4.714844 3.820312-8.535156 8.53125-8.535156zm0 0" fill="#c03a2b"/><path d="m376.875 171.167969 15.523438 85.332031c.089843.507812.136718 1.019531.136718 1.535156v135h-273.070312v-134.238281c0-.511719.046875-1.019531.136718-1.519531l15.53125-86.109375zm0-8.535157h-241.742188c-4.128906 0-7.664062 2.960938-8.394531 7.023438l-15.53125 86.109375c-.179687 1-.273437 2.015625-.273437 3.03125v142.769531h290.132812v-143.53125c0-1.019531-.09375-2.039062-.273437-3.046875l-15.523438-85.332031c-.730469-4.0625-4.265625-7.023438-8.394531-7.023438zm0 0" fill="#e64c3c"/></svg>