<svg height="512pt" viewBox="0 -4 512.00079 512" width="512pt" xmlns="http://www.w3.org/2000/svg"><path d="m407.863281 112.625c-.027343 5.886719-.640625 11.757812-1.820312 17.527344h-139.195313c-1.183594-5.769532-1.792968-11.640625-1.824218-17.527344-.03125-7.71875 1.019531-15.402344 3.125-22.824219.015624-.242187.074218-.476562.175781-.695312 8.035156-31.296875 35.820312-53.492188 68.121093-54.410157 12.9375.046876 25.589844 3.8125 36.445313 10.847657 1.632813 1.027343 3.199219 2.160156 4.6875 3.382812 19.402344 15.40625 30.582031 38.925781 30.285156 63.699219zm0 0" fill="#e64c3c"/><path d="m359.964844 59.667969c-6.714844-15.375-28.179688-20.835938-47.945313-12.207031-19.761719 8.632812-30.34375 28.09375-23.628906 43.464843 6.714844 15.371094 28.179687 20.835938 47.941406 12.203125 19.765625-8.628906 30.34375-28.089844 23.632813-43.460937zm0 0" fill="#fb7b76"/><path d="m425.21875 112.625c-.027344 5.886719-.640625 11.757812-1.820312 17.527344h-17.355469c1.179687-5.769532 1.792969-11.640625 1.820312-17.527344.296875-24.773438-10.882812-48.292969-30.285156-63.699219.074219-2.375.546875-4.71875 1.386719-6.941406.230468-.675781.554687-1.320313.957031-1.910156 3.574219 1.5625 7.023437 3.390625 10.328125 5.46875 1.628906 1.027343 3.195312 2.160156 4.683594 3.382812 19.402344 15.40625 30.585937 38.925781 30.285156 63.699219zm0 0" fill="#24ae5f"/><path d="m510.265625 87.371094c-2.457031 6.449218-7.378906 11.65625-13.679687 14.472656-6.300782 2.816406-13.460938 3.011719-19.90625.539062 0 0-20.21875-9.71875-23.863282 19.179688v8.589844h-29.417968c1.179687-5.769532 1.792968-11.640625 1.820312-17.527344.300781-24.773438-10.882812-48.292969-30.285156-63.699219-1.488282-1.222656-3.054688-2.355469-4.683594-3.382812-3.304688-2.078125-6.753906-3.90625-10.328125-5.46875 4.90625-10.023438 16.667969-14.625 27.074219-10.585938 1.539062.558594 3 1.316407 4.339844 2.257813.199218-1.636719.609374-3.242188 1.214843-4.773438 3.039063-7.972656 10.46875-13.421875 18.984375-13.925781 8.515625-.507813 16.539063 4.027344 20.5 11.582031 6.910156-7.898437 18.480469-9.714844 27.480469-4.320312 9 5.394531 12.851563 16.460937 9.140625 26.273437-.730469 1.96875-1.753906 3.8125-3.039062 5.46875 3.285156-.046875 6.550781.515625 9.632812 1.648438 6.464844 2.46875 11.675781 7.402343 14.496094 13.722656 2.816406 6.316406 3 13.492187.519531 19.949219zm0 0" fill="#4fba6f"/><path d="m265.023438 112.625c.03125 5.886719.640624 11.757812 1.824218 17.527344h-13.363281c-1.183594-5.769532-1.792969-11.640625-1.824219-17.527344-.03125-7.71875 1.019532-15.402344 3.125-22.824219.015625-.242187.074219-.476562.171875-.695312 1.757813-6.085938 4.234375-11.941407 7.378907-17.441407 1.996093 5.640626 3.902343 11.628907 5.8125 18.136719-2.105469 7.421875-3.15625 15.105469-3.125 22.824219zm0 0" fill="#805333"/><path d="m262.335938 71.664062c-3.144532 5.5-5.621094 11.355469-7.378907 17.441407-.097656.21875-.15625.453125-.171875.695312-2.105468 7.421875-3.15625 15.105469-3.125 22.824219.03125 5.886719.640625 11.757812 1.824219 17.527344h-88.429687c-4.90625-37.257813-1.769532-75.132813 9.199218-111.078125 2.824219-8.03125 9.085938-14.382813 17.078125-17.320313 7.988281-2.9375 16.875-2.15625 24.230469 2.132813 14.925781 8.941406 32.453125 27.945312 46.773438 67.777343zm0 0" fill="#cb8252"/><path d="m225.628906 138.832031c-3.980468-.003906-7.445312-2.710937-8.410156-6.570312l-17.355469-69.425781c-1.125-4.632813 1.695313-9.304688 6.324219-10.464844 4.625-1.160156 9.316406 1.632812 10.511719 6.25l17.355469 69.421875c.558593 2.234375.207031 4.597656-.980469 6.574219-1.183594 1.972656-3.105469 3.394531-5.339844 3.953124-.6875.175782-1.394531.261719-2.105469.261719zm0 0" fill="#805333"/><path d="m199.59375 104.117188c-4.378906-.007813-8.0625-3.277344-8.597656-7.621094-.53125-4.347656 2.257812-8.410156 6.503906-9.472656l34.714844-8.679688c3.035156-.832031 6.285156.046875 8.488281 2.292969 2.203125 2.246093 3.019531 5.511719 2.128906 8.53125s-3.347656 5.320312-6.417969 6.011719l-34.710937 8.679687c-.691406.175781-1.398437.261719-2.109375.257813zm0 0" fill="#805333"/><path d="m347.117188 95.441406c-4.792969 0-8.675782-3.886718-8.675782-8.679687v-17.355469c0-4.792969 3.882813-8.675781 8.675782-8.675781 4.792968 0 8.679687 3.882812 8.679687 8.675781v17.355469c0 4.792969-3.886719 8.679687-8.679687 8.679687zm0 0" fill="#65ddb9"/><path d="m355.796875 86.761719h-17.355469c-4.792968 0-8.679687-3.882813-8.679687-8.675781 0-4.792969 3.886719-8.679688 8.679687-8.679688h17.355469c4.792969 0 8.675781 3.886719 8.675781 8.679688 0 4.792968-3.882812 8.675781-8.675781 8.675781zm0 0" fill="#65ddb9"/><path d="m138.847656 86.761719h-52.066406c-4.792969 0-8.679688-3.882813-8.679688-8.675781 0-4.792969 3.886719-8.679688 8.679688-8.679688h52.066406c4.792969 0 8.679688 3.886719 8.679688 8.679688 0 4.792968-3.886719 8.675781-8.679688 8.675781zm0 0" fill="#2fa8cc"/><path d="m509.742188 149.503906-2.777344 24.125-1.992188 17.269532-2.085937 17.441406-1.996094 17.269531-30.457031 262.335937c-1.050782 8.75-8.460938 15.339844-17.269532 15.359376h-255.480468c-8.808594-.019532-16.21875-6.609376-17.269532-15.359376l-2.253906-19.351562-21.089844-181.371094-15.964843-137.71875c-.570313-4.921875.988281-9.855468 4.289062-13.550781 3.300781-3.699219 8.023438-5.808594 12.976563-5.800781h334.101562c4.957032-.007813 9.679688 2.101562 12.980469 5.800781 3.300781 3.695313 4.859375 8.628906 4.289063 13.550781zm0 0" fill="#90bae1"/><path d="m442.308594 130.152344h36.375c4.761718.230468 9.203125 2.46875 12.222656 6.15625s4.335938 8.484375 3.625 13.195312l-36.066406 338.441406c-.597656 8.410157-7.421875 15.023438-15.84375 15.359376h-234.351563c-8.421875-.335938-15.246093-6.949219-15.84375-15.359376l-2.117187-19.351562-19.351563-181.371094-14.640625-137.71875c-.710937-4.710937.605469-9.507812 3.625-13.195312 3.019532-3.6875 7.460938-5.925782 12.222656-6.15625zm0 0" fill="#b0d3f0"/><path d="m384.347656 395.089844c-3.140625 2.625-7.101562 4.066406-11.195312 4.078125h-23.171875c9.585937 0 17.359375 7.773437 17.359375 17.359375.015625 1.765625-.25 3.519531-.78125 5.207031-2.238282 7.261719-8.976563 12.199219-16.578125 12.148437h-45.296875c4.816406 0 9.417968 2 12.707031 5.519532 3.289063 3.519531 4.972656 8.242187 4.648437 13.050781-1.09375 9.367187-9.140624 16.359375-18.570312 16.140625h-138.585938c-18.105468-2.023438-35.113281-9.707031-48.597656-21.957031-2.34375-2.355469-5.453125-3.800781-8.765625-4.078125h-29.417969v-112.726563h13.710938c9.285156.003907 18.175781-3.75 24.644531-10.414062 13.722657-14.910157 30.15625-27.074219 48.425781-35.839844 28.894532-11.628906 69.421876-30.023437 80.964844-41.652344 11.539063-11.628906 23.167969 0 23.167969 11.628907 0 11.628906-23.167969 30.023437-40.523437 41.566406-5.570313 3.644531-10.695313 7.925781-15.273438 12.757812-2.6875 2.878906-3.71875 6.933594-2.734375 10.746094.984375 3.816406 3.847656 6.863281 7.59375 8.082031 7.128906 2.230469 14.574219 3.285157 22.042969 3.125h108.992187c8.714844-.207031 16.320313 5.863281 18.050781 14.40625.84375 5.042969-.578124 10.203125-3.890624 14.101563-3.3125 3.898437-8.175782 6.136718-13.292969 6.117187h22.21875c8.464843-.132812 15.90625 5.585938 17.960937 13.796875 1.332032 6.257813-.90625 12.734375-5.8125 16.835938zm0 0" fill="#fdd7ad"/><g fill="#f09372"><path d="m350.007812 373.179688h-98.347656c-4.792968 0-8.675781-3.886719-8.675781-8.679688s3.882813-8.675781 8.675781-8.675781h98.347656c4.792969 0 8.679688 3.882812 8.679688 8.675781s-3.886719 8.679688-8.679688 8.679688zm0 0"/><path d="m350.007812 373.179688h-98.347656c-4.792968 0-8.675781-3.886719-8.675781-8.679688s3.882813-8.675781 8.675781-8.675781h98.347656c4.792969 0 8.679688 3.882812 8.679688 8.675781s-3.886719 8.679688-8.679688 8.679688zm0 0"/><path d="m350.007812 407.847656h-98.347656c-4.792968 0-8.675781-3.886718-8.675781-8.679687 0-4.789063 3.882813-8.675781 8.675781-8.675781h98.347656c4.792969 0 8.679688 3.886718 8.679688 8.675781 0 4.792969-3.886719 8.679687-8.679688 8.679687zm0 0"/><path d="m304.710938 442.558594h-58.839844c-4.789063 0-8.675782-3.882813-8.675782-8.675782 0-4.792968 3.886719-8.679687 8.675782-8.679687h58.839844c4.792968 0 8.675781 3.886719 8.675781 8.679687 0 4.792969-3.882813 8.675782-8.675781 8.675782zm0 0"/><path d="m303.511719 477.269531h-138.628907c-20.488281-2.054687-39.757812-10.707031-54.90625-24.652343-.746093-.664063-1.636718-1.136719-2.605468-1.378907h-29.269532c-4.792968 0-8.679687-3.886719-8.679687-8.679687v-112.761719c0-4.792969 3.886719-8.675781 8.679687-8.675781h13.710938c6.933594-.003906 13.574219-2.789063 18.433594-7.734375 14.527344-15.835938 31.984375-28.707031 51.40625-37.902344 37.714844-15.085937 69.824218-31.390625 78.101562-39.652344 5.757813-6.691406 15.097656-9.039062 23.335938-5.867187 9.070312 4.316406 14.777344 13.53125 14.605468 23.570312 0 15.890625-24.125 35.304688-44.363281 48.789063-5.027343 3.300781-9.667969 7.160156-13.832031 11.507812-.679688.679688-.933594 1.679688-.648438 2.601563.238282 1.015625.996094 1.828125 1.992188 2.136718 6.242188 1.863282 12.738281 2.742188 19.25 2.601563h109.046875c12.96875-.160156 24.175781 9.023437 26.5625 21.773437.707031 4.367188.300781 8.847657-1.179687 13.015626 11.679687.789062 21.46875 9.121093 24.109374 20.523437 1.542969 7.4375-.226562 15.179687-4.855468 21.203125-4.625 6.023438-11.644532 9.734375-19.226563 10.160156 2.816407 7.96875 1.589844 16.808594-3.289062 23.707032-4.878907 6.902343-12.800781 11.003906-21.253907 11.003906h-20.757812c1.1875 3.355468 1.671875 6.917968 1.414062 10.464844-1.328124 13.933593-13.15625 24.496093-27.152343 24.246093zm-225.410157-43.386719h29.382813c5.707031.25 11.101563 2.675782 15.074219 6.777344 12.074218 10.714844 27.152344 17.453125 43.191406 19.296875l137.761719-.042969c4.875.210938 9.121093-3.289062 9.851562-8.113281.179688-2.484375-.742187-4.925781-2.519531-6.671875-1.609375-1.660156-3.820312-2.597656-6.132812-2.605468-4.792969 0-8.679688-3.882813-8.679688-8.675782 0-4.792968 3.886719-8.679687 8.679688-8.679687h45.296874c3.792969.015625 7.148438-2.449219 8.269532-6.074219.261718-.84375.398437-1.71875.410156-2.601562 0-4.792969-3.886719-8.679688-8.679688-8.679688-4.792968 0-8.675781-3.886719-8.675781-8.675781 0-4.792969 3.882813-8.679688 8.675781-8.679688h23.144532c2.039062.003907 4.015625-.722656 5.5625-2.046875 2.480468-2.070312 3.605468-5.339844 2.925781-8.496094-1.222656-4.175781-5.132813-6.980468-9.476563-6.796874h-22.15625c-4.792968 0-8.675781-3.882813-8.675781-8.675782 0-4.792968 3.882813-8.679687 8.675781-8.679687 2.566407.003906 5.003907-1.128907 6.65625-3.097657 1.652344-1.964843 2.347657-4.5625 1.902344-7.089843-1.035156-4.328125-4.980468-7.324219-9.425781-7.160157h-109.046875c-8.40625.167969-16.78125-1.019531-24.8125-3.511718-6.582031-2.210938-11.585938-7.621094-13.277344-14.355469-1.660156-6.636719.164063-13.660156 4.84375-18.648437 5.066406-5.316407 10.71875-10.039063 16.851563-14.074219 24.984375-16.59375 36.640625-30.277344 36.640625-34.289063.097656-3.019531-1.382813-5.871094-3.90625-7.53125-1.371094-.5625-3.160156.867188-4.425782 2.101563-15.757812 15.757812-72.660156 38.988281-83.90625 43.492187-17.113281 8.386719-32.519531 19.886719-45.429687 33.90625-8.132813 8.28125-19.25 12.957032-30.859375 12.972656h-13.710938zm0 0"/></g><path d="m78.101562 407.847656v41.652344c.417969 5.253906-3.433593 9.878906-8.679687 10.414062h-60.742187v-52.066406zm0 0" fill="#95a5a5"/><path d="m78.101562 321.9375v85.910156h-69.421874v-95.457031h60.742187c5.019531.265625 8.890625 4.523437 8.679687 9.546875zm0 0" fill="#bdc3c7"/><path d="m251.660156 190.898438h-26.03125c-4.792968 0-8.679687-3.886719-8.679687-8.679688 0-4.789062 3.886719-8.675781 8.679687-8.675781h26.03125c4.792969 0 8.679688 3.886719 8.679688 8.675781 0 4.792969-3.886719 8.679688-8.679688 8.679688zm0 0" fill="#4482c3"/><path d="m506.964844 173.628906-1.992188 17.269532h-218.601562c-4.789063 0-8.675782-3.886719-8.675782-8.679688 0-4.789062 3.886719-8.675781 8.675782-8.675781h219.554687c.347657-.015625.699219.015625 1.039063.085937zm0 0" fill="#4482c3"/><path d="m433.898438 225.609375h-78.101563c-4.792969 0-8.679687-3.882813-8.679687-8.675781 0-4.792969 3.886718-8.679688 8.679687-8.679688h78.101563c4.792968 0 8.679687 3.886719 8.679687 8.679688 0 4.792968-3.886719 8.675781-8.679687 8.675781zm0 0" fill="#4482c3"/><path d="m502.886719 208.339844-1.996094 17.269531h-32.28125c-4.792969 0-8.675781-3.882813-8.675781-8.675781 0-4.792969 3.882812-8.679688 8.675781-8.679688h33.324219c.320312-.019531.640625.011719.953125.085938zm0 0" fill="#4482c3"/><path d="m52.066406 86.761719h-17.355468c-4.792969 0-8.675782-3.882813-8.675782-8.675781 0-4.792969 3.882813-8.679688 8.675782-8.679688h17.355468c4.792969 0 8.679688 3.886719 8.679688 8.679688 0 4.792968-3.886719 8.675781-8.679688 8.675781zm0 0" fill="#2fa8cc"/><path d="m112.8125 121.476562h-52.066406c-4.792969 0-8.679688-3.886718-8.679688-8.679687s3.886719-8.679687 8.679688-8.679687h52.066406c4.792969 0 8.679688 3.886718 8.679688 8.679687s-3.886719 8.679687-8.679688 8.679687zm0 0" fill="#2fa8cc"/><path d="m26.035156 121.476562h-17.355468c-4.792969 0-8.679688-3.886718-8.679688-8.679687s3.886719-8.679687 8.679688-8.679687h17.355468c4.792969 0 8.675782 3.886718 8.675782 8.679687s-3.882813 8.679687-8.675782 8.679687zm0 0" fill="#2fa8cc"/></svg>