<svg height="512pt" viewBox="-65 0 512 512.0011" width="512pt" xmlns="http://www.w3.org/2000/svg"><path d="m251.664062 295.050781c-4.792968 0-8.679687-3.882812-8.679687-8.675781v-95.457031c0-4.792969 3.886719-8.679688 8.679687-8.679688 4.789063 0 8.675782 3.886719 8.675782 8.679688v95.457031c0 4.792969-3.886719 8.675781-8.675782 8.675781zm0 0" fill="#7f8c8d"/><path d="m130.171875 295.050781c-4.792969 0-8.679687-3.882812-8.679687-8.675781v-95.457031c0-4.792969 3.886718-8.679688 8.679687-8.679688s8.675781 3.886719 8.675781 8.679688v95.457031c0 4.792969-3.882812 8.675781-8.675781 8.675781zm0 0" fill="#7f8c8d"/><path d="m321.085938 347.121094h-260.339844c-3.679688 0-6.957032-2.320313-8.183594-5.789063l-52.066406-147.527343c-1.03125-2.921876-.4257815-6.175782 1.589844-8.53125 2.015624-2.355469 5.132812-3.457032 8.183593-2.890626 3.046875.570313 5.5625 2.71875 6.59375 5.644532l50.019531 141.738281h248.066407l50.019531-141.738281c1.597656-4.519532 6.554688-6.890625 11.074219-5.292969 4.519531 1.59375 6.890625 6.550781 5.292969 11.070313l-52.066407 147.527343c-1.226562 3.46875-4.503906 5.789063-8.183593 5.789063zm0 0" fill="#95a5a5"/><path d="m320.566406 338.441406h-259.296875c.429688-1.707031 1.101563-3.34375 1.992188-4.859375l22.566406-38.097656c3.285156-5.652344 9.339844-9.125 15.878906-9.109375h178.417969c6.542969-.015625 12.59375 3.457031 15.882812 9.109375l22.5625 38.097656c.898438 1.511719 1.570313 3.152344 1.996094 4.859375zm0 0" fill="#f9eab0"/><path d="m303.730469 338.441406h-225.628907c.367188-1.6875.949219-3.320312 1.738282-4.859375l19.636718-38.097656c2.496094-5.417969 7.851563-8.949219 13.816407-9.109375h155.246093c5.964844.160156 11.320313 3.691406 13.816407 9.109375l19.640625 38.097656c.792968 1.535157 1.375 3.167969 1.734375 4.859375zm0 0" fill="#f5efca"/><path d="m320.914062 345.644531-23.519531 150.648438c-1.339843 9.03125-9.09375 15.714843-18.222656 15.707031h-176.511719c-9.128906.007812-16.882812-6.675781-18.222656-15.707031l-23.515625-150.648438c-.320313-2.402343-.203125-4.84375.347656-7.203125h259.296875c.59375 2.355469.710938 4.804688.347656 7.203125zm0 0" fill="#f18d46"/><path d="m303.554688 345.644531-20.382813 150.648438c-.566406 8.460937-7.324219 15.183593-15.785156 15.707031h-152.957031c-8.464844-.519531-15.226563-7.246094-15.792969-15.707031l-20.378907-150.648438c-.277343-2.402343-.175781-4.832031.304688-7.203125h224.691406c.511719 2.367188.617188 4.800782.300782 7.203125zm0 0" fill="#fac176"/><path d="m117.152344 468.609375c-4.101563.007813-7.644532-2.859375-8.496094-6.871094-.855469-4.011719 1.21875-8.074219 4.964844-9.738281l156.203125-69.421875c2.835937-1.257813 6.125-.910156 8.632812.914063 2.503907 1.824218 3.847657 4.847656 3.523438 7.933593-.328125 3.082031-2.273438 5.757813-5.109375 7.015625l-156.203125 69.421875c-1.105469.496094-2.304688.75-3.515625.746094zm0 0" fill="#7f5b53"/><path d="m147.664062 491.84375c-3.359374-.003906-6.414062-1.945312-7.84375-4.984375-1.429687-3.042969-.976562-6.632813 1.164063-9.222656l90.96875-110.011719c1.976563-2.390625 5.078125-3.542969 8.132813-3.03125 3.058593.515625 5.609374 2.625 6.691406 5.53125 1.082031 2.902344.535156 6.167969-1.441406 8.554688l-90.980469 110.011718c-1.648438 1.996094-4.101563 3.152344-6.691407 3.152344zm0 0" fill="#7f5b53"/><path d="m190.917969 0h-.523438c1.007813.00390625 2.003907.179688 2.953125.523438.832032.292968 1.640625.640624 2.429688 1.039062-1.40625-1.042969-3.113282-1.5898438-4.859375-1.5625zm-190.917969 190.917969c0 4.792969 3.886719 8.675781 8.679688 8.675781 4.792968 0 8.675781-3.882812 8.675781-8.675781 0-12.324219 21.347656-26.035157 52.070312-26.035157 28.808594 0 49.375 12.0625 51.808594 23.691407-.175781-2.863281-.347656-5.035157-.347656-5.816407-.433594-6.332031-8.246094-154.207031 66.296875-182.234374.886718-.347657 1.828125-.52734425 2.777344-.523438-105.007813.664062-189.824219 85.90625-189.960938 190.917969zm0 0" fill="#e64c3c"/><path d="m373.152344 199.59375c-4.792969 0-8.675782-3.882812-8.675782-8.675781 0-12.316407-21.382812-26.035157-52.070312-26.035157-27.457031 0-46.808594 11.003907-51.066406 21.355469-.886719 2.140625-2.589844 3.839844-4.730469 4.71875-2.144531.878907-4.550781.863281-6.683594-.039062l-1.65625-.695313c-3.390625-1.429687-5.511719-4.839844-5.292969-8.511718.078126-1.40625 7.496094-141.453126-55.140624-164.882813-3.96875-1.453125-6.3125-5.554687-5.554688-9.710937.761719-4.160157 4.410156-7.164063 8.636719-7.117188 105.386719.121094 190.792969 85.527344 190.914062 190.917969 0 4.792969-3.886719 8.675781-8.679687 8.675781zm0 0" fill="#e64c3c"/><path d="m259.976562 190.917969c0 4.792969-3.886718 8.675781-8.679687 8.675781s-8.675781-3.882812-8.675781-8.675781c0-12.324219-21.46875-26.035157-52.15625-26.035157-25.988282 0-45.898438 7.984376-51.546875 17.355469v8.679688c-.011719 1.769531-.558594 3.492187-1.570313 4.945312-1.984375 2.847657-5.46875 4.238281-8.867187 3.539063-3.398438-.699219-6.054688-3.351563-6.753907-6.75-.171874-1.476563-.261718-2.863282-.433593-4.078125-.171875-2.863281-.347657-5.035157-.347657-5.816407-.433593-6.332031-8.261718-154.207031 66.414063-182.234374.855469-.335938 1.769531-.5156255 2.6875-.523438h.4375c1.035156-.00390625 2.0625.171875 3.035156.523438.832031.292968 1.644531.640624 2.429688 1.039062 65.804687 27.597656 65.085937 150.5625 64.21875 176.511719.328125.519531-.191407 11.191406-.191407 12.84375zm0 0" fill="#c03a2b"/></svg>